<?xml version="1.0" encoding="UTF-8" standalone="no"?>
<svg xmlns:rdf="http://www.w3.org/1999/02/22-rdf-syntax-ns#" xmlns="http://www.w3.org/2000/svg" viewBox="0 0 100 100" height="100%" width="100%" version="1.1" xmlns:cc="http://creativecommons.org/ns#" xmlns:dc="http://purl.org/dc/elements/1.1/" class="logo-aplazame">
	<metadata>
		<rdf:RDF>
			<cc:Work rdf:about="">
				<dc:format>image/svg+xml</dc:format>
				<dc:type rdf:resource="http://purl.org/dc/dcmitype/StillImage"/>
				<dc:title/>
			</cc:Work>
		</rdf:RDF>
	</metadata>
	<path style="baseline-shift:baseline;block-progression:tb;color:#000000;direction:ltr;text-indent:0;text-align:start;enable-background:accumulate;text-transform:none;" fill="#FFF" d="m49.45,1.9068a5.8933,5.8933,0,0,0,-0.55244,0.12276,5.8933,5.8933,0,0,0,-0.3683,0.06138,5.8933,5.8933,0,0,0,-0.18415,0.06138,5.8933,5.8933,0,0,0,-0.12276,0.06138,5.8933,5.8933,0,0,0,-1.4732,0.67521,5.8933,5.8933,0,0,0,-0.12276,0.12277,5.8933,5.8933,0,0,0,-2.3325,3.3147l-13.75,32.962c3.3033,2.0483,6.9615,3.6193,10.865,4.5423l8.4708-20.256,9.2688,23.694c-2.9404,0.67972-5.9953,1.0435-9.146,1.0435-13.813,0-25.916-6.9098-33.208-17.433a5.7487,5.7487,0,0,0,-5.464,-2.516,5.7487,5.7487,0,0,0,-3.9897,9.084c9.3636,13.512,25.015,22.343,42.661,22.343,4.6171,0,9.1087-0.64524,13.381-1.7801l14.118,36.032a5.8933,5.8933,0,1,0,10.927,-4.358l-14.057-35.909c7.3552-3.8999,13.645-9.5362,18.353-16.328a5.7553,5.7553,0,0,0,-9.4529,-6.5679c-3.4226,4.9365-7.9036,9.0865-13.136,12.092l-14.424-36.89a5.8933,5.8933,0,0,0,-0.43,-0.9207,5.8933,5.8933,0,0,0,-0.061,-0.1228,5.8933,5.8933,0,0,0,-0.553,-0.8594,5.8933,5.8933,0,0,0,-0.061,-0.1227,5.8933,5.8933,0,0,0,-0.307,-0.3069,5.8933,5.8933,0,0,0,-0.123,-0.1228,5.8933,5.8933,0,0,0,-0.307,-0.3069,5.8933,5.8933,0,0,0,-0.122,-0.1228,5.8933,5.8933,0,0,0,-0.369,-0.2455,5.8933,5.8933,0,0,0,-0.614,-0.3683,5.8933,5.8933,0,0,0,-0.429,-0.1842,5.8933,5.8933,0,0,0,-0.123,-0.0613,5.8933,5.8933,0,0,0,-0.43,-0.1228,5.8933,5.8933,0,0,0,-0.552,-0.1842,5.8933,5.8933,0,0,0,-1.1663,-0.12276,5.8933,5.8933,0,0,0,-0.61383,0zm-26.027,54.508-4.603,11.048a5.8933,5.8933,0,1,0,10.865,4.5423l4.6037-11.11c-3.8107-1.1281-7.4419-2.602-10.865-4.4809z"/>
</svg>
