<?xml version="1.0" encoding="UTF-8" standalone="no"?>
<svg width="172px" height="32px" viewBox="0 0 172 32" version="1.1" xmlns="http://www.w3.org/2000/svg" xmlns:xlink="http://www.w3.org/1999/xlink" xmlns:sketch="http://www.bohemiancoding.com/sketch/ns">
    <!-- Generator: Sketch Beta 3.2 (9961) - http://www.bohemiancoding.com/sketch -->
    <title>Aplazame 2</title>
    <desc>Created with Sketch Beta.</desc>
    <defs></defs>
    <g id="Page-1" stroke="none" stroke-width="1" fill="none" fill-rule="evenodd" sketch:type="MSPage">
        <g id="Aplazame-2" sketch:type="MSLayerGroup" fill="#FFFFFF">
            <g id="Imported-Layers-5" sketch:type="MSShapeGroup">
                <g id="Imported-Layers">
                    <path d="M57.4960071,8.58696951 C57.4960071,8.37878444 57.6633383,8.19152892 57.8934611,8.19152892 L62.9362006,8.19152892 C65.5099418,8.19152892 67.6232006,10.2725384 67.6232006,12.7907466 C67.6232006,15.3712723 65.5099418,17.473245 62.9571424,17.473245 L60.7601503,17.473245 L60.7601503,22.3637939 C60.7601503,22.571979 60.5717758,22.7592345 60.362561,22.7592345 L57.8934611,22.7592345 C57.6633383,22.7592345 57.4960071,22.571979 57.4960071,22.3637939 L57.4960071,8.58696951 L57.4960071,8.58696951 Z M62.7479276,14.4348265 C63.6476459,14.4348265 64.400941,13.7272261 64.400941,12.7907466 C64.400941,11.9167192 63.6476459,11.250776 62.7479276,11.250776 L60.7601503,11.250776 L60.7601503,14.4348265 L62.7479276,14.4348265 Z M73.800247,8.58696951 C73.800247,8.37878444 73.9675783,8.19152892 74.197701,8.19152892 L76.6877427,8.19152892 C76.8969575,8.19152892 77.085332,8.37878444 77.085332,8.58696951 L77.085332,19.6999874 L82.0652463,19.6999874 C82.295369,19.6999874 82.4628356,19.8873438 82.4628356,20.0953943 L82.4628356,22.3637939 C82.4628356,22.571979 82.295369,22.7592345 82.0652463,22.7592345 L74.197701,22.7592345 C73.9675783,22.7592345 73.800247,22.571979 73.800247,22.3637939 L73.800247,8.58696951 Z M105.670589,21.9891819 L111.236331,11.2922986 L111.236331,11.250776 L106.674948,11.250776 C106.465632,11.250776 106.277359,11.0634196 106.277359,10.8553354 L106.277359,8.58696951 C106.277359,8.37878444 106.465632,8.19152892 106.674948,8.19152892 L115.567625,8.19152892 C115.77684,8.19152892 115.965215,8.37878444 115.965215,8.58696951 L115.965215,8.85747213 L110.587711,19.6583302 L110.587711,19.6999874 L115.149128,19.6999874 C115.379352,19.6999874 115.546684,19.8873438 115.546684,20.0953943 L115.546684,22.3637939 C115.546684,22.571979 115.379352,22.7592345 115.149128,22.7592345 L106.068042,22.7592345 C105.858828,22.7592345 105.670589,22.571979 105.670589,22.3637939 L105.670589,21.9891819 Z M162.517536,8.58696951 C162.517536,8.37878444 162.684867,8.19152892 162.91499,8.19152892 L171.577714,8.19152892 C171.807803,8.19152892 171.975168,8.37878444 171.975168,8.58696951 L171.975168,10.8553354 C171.975168,11.0634196 171.807803,11.250776 171.577714,11.250776 L165.781679,11.250776 L165.781679,13.8313018 L170.552412,13.8313018 C170.761593,13.8313018 170.949866,14.0185573 170.949866,14.2267424 L170.949866,16.495142 C170.949866,16.724021 170.761593,16.8905489 170.552412,16.8905489 L165.781679,16.8905489 L165.781679,19.6999874 L171.577714,19.6999874 C171.807803,19.6999874 171.975168,19.8873438 171.975168,20.0953943 L171.975168,22.3637939 C171.975168,22.571979 171.807803,22.7592345 171.577714,22.7592345 L162.91499,22.7592345 C162.684867,22.7592345 162.517536,22.571979 162.517536,22.3637939 L162.517536,8.58696951 Z M51.848764,22.2181956 L45.4772872,8.41213039 C45.4771518,8.41189485 45.4768812,8.41169295 45.4767459,8.41145741 C45.3748112,8.16057203 45.1280094,7.98334385 44.8392227,7.98334385 C44.5406247,7.98334385 44.287192,8.17295478 44.1921251,8.43743428 C44.1898584,8.43999159 44.187321,8.4425489 44.1860016,8.44520715 L37.8296137,22.2181956 C37.704166,22.4886982 37.8714972,22.7592345 38.1853533,22.7592345 L40.4869866,22.7592345 C40.9055177,22.7592345 41.1356404,22.5095268 41.2402817,22.2596845 L44.828904,14.3533964 L44.8182809,14.3307171 L44.8391888,14.3307171 L46.4295122,17.7645762 L45.4756294,15.7316509 L47.6849363,20.5949443 L48.4382313,22.2389905 C48.6265043,22.6342965 48.7939709,22.7592345 49.1704831,22.7592345 L51.4930582,22.7592345 C51.8069142,22.7592345 51.974347,22.4886982 51.848764,22.2181956 Z M44.828904,14.3533964 L45.4756294,15.7316509 L44.8391888,14.3307171 L44.828904,14.3533964 Z M101.240032,22.2181956 L94.8685555,8.41213039 C94.868454,8.41189485 94.8681495,8.41169295 94.8680142,8.41145741 C94.7660795,8.16057203 94.5192777,7.98334385 94.230491,7.98334385 C93.931893,7.98334385 93.6784603,8.17295478 93.5834272,8.43743428 C93.5810928,8.43999159 93.5785893,8.4425489 93.5772699,8.44520715 L87.220882,22.2181956 C87.0954343,22.4886982 87.2627655,22.7592345 87.5766216,22.7592345 L89.8782549,22.7592345 C90.296786,22.7592345 90.5269087,22.5095268 90.63155,22.2596845 L94.2201723,14.3533964 L94.2095153,14.3307171 L94.2304571,14.3307171 L95.8207805,17.7645762 L94.8668977,15.7316509 L97.0762046,20.5949443 L97.8294996,22.2389905 C98.0177726,22.6342965 98.1852392,22.7592345 98.5617514,22.7592345 L100.884327,22.7592345 C101.198149,22.7592345 101.365615,22.4886982 101.240032,22.2181956 Z M94.2201723,14.3533964 L94.8668977,15.7316509 L94.2304571,14.3307171 L94.2201723,14.3533964 Z M120.534921,22.2181956 L126.906431,8.41213039 C126.906533,8.41189485 126.906837,8.41169295 126.906939,8.41149106 C127.008873,8.16057203 127.255675,7.98334385 127.544496,7.98334385 C127.843094,7.98334385 128.096493,8.17295478 128.191559,8.43743428 C128.19386,8.43999159 128.196363,8.4425489 128.197683,8.44520715 L134.554071,22.2181956 C134.679518,22.4886982 134.512221,22.7592345 134.198365,22.7592345 L131.896698,22.7592345 C131.478201,22.7592345 131.248078,22.5095268 131.143403,22.2596845 L127.55478,14.3533964 L127.565437,14.3307171 L127.544496,14.3307171 L125.954172,17.7645762 L126.908089,15.7316509 L124.698748,20.5949443 L123.945487,22.2389905 C123.757214,22.6342965 123.589747,22.7592345 123.213235,22.7592345 L120.89066,22.7592345 C120.576804,22.7592345 120.409338,22.4886982 120.534921,22.2181956 Z M127.55478,14.3533964 L126.908089,15.7316509 L127.544496,14.3307171 L127.55478,14.3533964 Z M155.737068,22.3013081 L153.42329,8.60123659 C153.421801,8.58787802 153.417809,8.57667298 153.412531,8.56657834 C153.355694,8.2322776 153.063998,7.97742166 152.711709,7.97742166 C152.419539,7.97742166 152.168745,8.15269821 152.059164,8.40317981 C152.059029,8.40348265 152.058792,8.40361725 152.058657,8.40392008 L147.451161,17.1819138 L147.409312,17.1819138 L142.808142,8.40392008 C142.807026,8.40173291 142.804962,8.40042061 142.803643,8.39843533 C142.692946,8.15054469 142.443708,7.97742166 142.153433,7.97742166 C141.822153,7.97742166 141.544565,8.20290221 141.465297,8.5077266 C141.453287,8.53397266 141.444829,8.5606898 141.441852,8.58747424 L139.123235,22.3013081 C139.081386,22.571979 139.26976,22.7592345 139.520825,22.7592345 L141.989924,22.7592345 C142.199105,22.7592345 142.366572,22.5928076 142.38748,22.4262461 L143.30814,15.995592 L143.34999,15.995592 L146.886105,22.7384059 C146.948897,22.8633102 147.116228,22.967285 147.241811,22.967285 L147.618493,22.967285 C147.723134,22.967285 147.911407,22.8633102 147.974198,22.7384059 L151.489372,15.995592 L151.531256,15.995592 L152.47279,22.4262461 C152.493732,22.5928076 152.68214,22.7592345 152.870379,22.7592345 L155.339479,22.7592345 C155.590544,22.7592345 155.778918,22.571979 155.737068,22.3013081 Z" id="Fill-1"></path>
                    <path d="M6.2879465,28.6472008 C2.48182061,25.7256782 0.0305837923,21.1456404 0.0305837923,15.9966688 C0.0305837923,7.17372029 7.22799213,0.0212996845 16.1064941,0.0212996845 C24.9849961,0.0212996845 32.1824382,7.17372029 32.1824382,15.9966688 C32.1824382,24.8196172 24.9849961,31.9720379 16.1064941,31.9720379 C13.485118,31.9720379 11.0102667,31.3485258 8.82393155,30.2426246 L16.3263997,14.4904479 L16.4262368,14.4904479 L19.8211731,22.0494469 C19.9194878,22.327285 20.0782935,22.446368 20.4202636,22.446368 L22.6169851,22.446368 C22.9368969,22.446368 23.0957026,22.1883828 23.0163674,21.8509863 L16.825653,8.55473396 C16.7035547,8.45550368 16.564642,8.3562734 16.4262368,8.3562734 L16.2265287,8.3562734 C16.0881912,8.3562734 15.9492109,8.45550368 15.8271463,8.55473396 L6.2879465,28.6472008" id="Path"></path>
                </g>
            </g>
        </g>
    </g>
</svg>