<?xml version="1.0" encoding="UTF-8" standalone="no"?>
<svg xmlns:rdf="http://www.w3.org/1999/02/22-rdf-syntax-ns#" xmlns="http://www.w3.org/2000/svg" height="272px" viewBox="0 0 256 272" width="256px" version="1.1" xmlns:cc="http://creativecommons.org/ns#" xmlns:dc="http://purl.org/dc/elements/1.1/" preserveAspectRatio="xMidYMid">
 <path d="m0.099611 45.522 125.81-44.825 129.19 44.028-20.91 166.46-108.28 59.96-106.58-59.17-19.23-166.45z" fill="#e23237"/>
 <path fill="#b52e31" d="m255.1 44.725-129.19-44.028v270.44l108.28-59.866 20.918-166.55z"/>
 <path style="color:#000000;text-indent:0;block-progression:tb;text-transform:none" fill="#fff" d="m125.34 63.71a8.8589 8.8589 0 0 0 -0.83043 0.18453 8.8589 8.8589 0 0 0 -0.55363 0.0923 8.8589 8.8589 0 0 0 -0.27682 0.0923 8.8589 8.8589 0 0 0 -0.18453 0.0923 8.8589 8.8589 0 0 0 -2.2145 1.015 8.8589 8.8589 0 0 0 -0.18454 0.18455 8.8589 8.8589 0 0 0 -3.5062 4.9827l-20.67 49.546c4.9656 3.079 10.465 5.4406 16.332 6.828l12.733-30.449 13.933 35.617c-4.42 1.0218-9.0122 1.5686-13.748 1.5686-20.764 0-38.957-10.387-49.919-26.205a8.6415 8.6415 0 0 0 -8.2135 -3.7821 8.6415 8.6415 0 0 0 -5.9974 13.655c14.075 20.311 37.603 33.586 64.128 33.586 6.9405 0 13.692-0.96993 20.114-2.6759l21.222 54.164a8.8589 8.8589 0 1 0 16.426 -6.551l-21.13-53.97c11.056-5.8624 20.511-14.335 27.588-24.544a8.6514 8.6514 0 1 0 -14.21 -9.8729c-5.1449 7.4206-11.881 13.659-19.746 18.177l-21.68-55.465a8.8589 8.8589 0 0 0 -0.64638 -1.384 8.8589 8.8589 0 0 0 -0.0917 -0.18459 8.8589 8.8589 0 0 0 -0.83128 -1.2919 8.8589 8.8589 0 0 0 -0.0917 -0.18444 8.8589 8.8589 0 0 0 -0.46148 -0.46134 8.8589 8.8589 0 0 0 -0.1849 -0.18459 8.8589 8.8589 0 0 0 -0.46148 -0.46134 8.8589 8.8589 0 0 0 -0.1834 -0.18459 8.8589 8.8589 0 0 0 -0.55468 -0.36904 8.8589 8.8589 0 0 0 -0.92297 -0.55363 8.8589 8.8589 0 0 0 -0.64487 -0.27689 8.8589 8.8589 0 0 0 -0.1849 -0.09215 8.8589 8.8589 0 0 0 -0.64638 -0.1846 8.8589 8.8589 0 0 0 -0.82977 -0.27689 8.8589 8.8589 0 0 0 -1.7532 -0.18453 8.8589 8.8589 0 0 0 -0.92272 0zm-39.124 81.94-6.92 16.6a8.8589 8.8589 0 1 0 16.332 6.828l6.9203-16.701c-5.729-1.69-11.188-3.91-16.333-6.73z"/>
</svg>
