<?xml version="1.0" encoding="UTF-8" standalone="no"?>
<svg xmlns:sketch="http://www.bohemiancoding.com/sketch/ns" xmlns:rdf="http://www.w3.org/1999/02/22-rdf-syntax-ns#" xmlns="http://www.w3.org/2000/svg" viewBox="0 0 920 272" height="272" width="920" version="1.1" xmlns:cc="http://creativecommons.org/ns#" preserveAspectRatio="xMidYMid" xmlns:dc="http://purl.org/dc/elements/1.1/">
 <path fill="#e23237" d="m0.099611 45.522 125.81-44.825l129.19 44.028-20.91 166.46-108.28 59.96-106.58-59.17-19.23-166.45z"/>
 <path fill="#b52e31" d="m255.1 44.725-129.19-44.028v270.44l108.28-59.866 20.918-166.55z"/>
 <path style="color:#000000;text-indent:0;block-progression:tb;text-transform:none" fill="#fff" d="m125.34 63.71a8.8589 8.8589 0 0 0 -0.83043 0.18453 8.8589 8.8589 0 0 0 -0.55363 0.0923 8.8589 8.8589 0 0 0 -0.27682 0.0923 8.8589 8.8589 0 0 0 -0.18453 0.0923 8.8589 8.8589 0 0 0 -2.2145 1.015 8.8589 8.8589 0 0 0 -0.18454 0.18455 8.8589 8.8589 0 0 0 -3.5062 4.9827l-20.67 49.546c4.9656 3.079 10.465 5.4406 16.332 6.828l12.733-30.449 13.933 35.617c-4.42 1.0218-9.0122 1.5686-13.748 1.5686-20.764 0-38.957-10.387-49.919-26.205a8.6415 8.6415 0 0 0 -8.2135 -3.7821 8.6415 8.6415 0 0 0 -5.9974 13.655c14.075 20.311 37.603 33.586 64.128 33.586 6.9405 0 13.692-0.96993 20.114-2.6759l21.222 54.164a8.8589 8.8589 0 1 0 16.426 -6.551l-21.13-53.97c11.056-5.8624 20.511-14.335 27.588-24.544a8.6514 8.6514 0 1 0 -14.21 -9.8729c-5.1449 7.4206-11.881 13.659-19.746 18.177l-21.68-55.465a8.8589 8.8589 0 0 0 -0.64638 -1.384 8.8589 8.8589 0 0 0 -0.0917 -0.18459 8.8589 8.8589 0 0 0 -0.83128 -1.2919 8.8589 8.8589 0 0 0 -0.0917 -0.18444 8.8589 8.8589 0 0 0 -0.46148 -0.46134 8.8589 8.8589 0 0 0 -0.1849 -0.18459 8.8589 8.8589 0 0 0 -0.46148 -0.46134 8.8589 8.8589 0 0 0 -0.1834 -0.18459 8.8589 8.8589 0 0 0 -0.55468 -0.36904 8.8589 8.8589 0 0 0 -0.92297 -0.55363 8.8589 8.8589 0 0 0 -0.64487 -0.27689 8.8589 8.8589 0 0 0 -0.1849 -0.09215 8.8589 8.8589 0 0 0 -0.64638 -0.1846 8.8589 8.8589 0 0 0 -0.82977 -0.27689 8.8589 8.8589 0 0 0 -1.7532 -0.18453 8.8589 8.8589 0 0 0 -0.92272 0zm-39.124 81.94-6.92 16.6a8.8589 8.8589 0 1 0 16.332 6.828l6.9203-16.701c-5.729-1.69-11.188-3.91-16.333-6.73z"/>
 <g fill-rule="evenodd" fill="#267bbd" transform="translate(-2.8814 1.4101)">
  <path d="m316.22 149.92v-7.0111c0-0.65164-0.32582-0.97746-0.97746-0.97746h-13.045c-12.07 0-16.962 3.4223-16.962 10.6 0 6.5236 4.7304 9.7818 13.699 9.7818 10.6 0 17.285-4.0763 17.285-12.393m22.831 17.777c0 4.8897-3.9146 8.4785-9.1325 8.4785-3.2606 0-5.8695-1.1416-7.6651-3.7505l-2.6089-3.917h-0.16173c-4.5662 5.382-12.557 8.645-23.155 8.645-18.593 0-28.539-8.8043-28.539-23.809 0-16.959 11.903-25.112 31.31-25.112h16.144c0.65164 0 0.97746-0.32582 0.97746-0.97984v-1.9573c0-9.1301-5.2155-14.51-17.609-14.51-5.5461 0-10.928 1.6291-14.353 3.2606-1.6315 0.64927-3.263 0.97509-4.7304 0.97509-4.3998 0-7.5034-2.9324-7.5034-7.4963 0-2.6137 1.308-5.5461 4.571-7.1776 5.0538-2.9348 13.209-5.382 23.968-5.382 22.346 0 32.944 11.092 32.944 30.494v24.789c0 4.0787 0.48992 5.7078 1.6291 7.8268l2.4448 4.2381c0.97984 1.7956 1.4698 3.5912 1.4698 5.3844" sketch:type="MSShapeGroup"/>
  <path d="m402.06 150.41c1.1392-3.4247 1.6315-8.1527 1.6315-14.35 0-6.1977-0.4923-10.926-1.6315-14.348-2.4448-7.5034-7.6651-10.438-14.515-10.438-7.0111 0-12.229 2.9348-14.674 10.438-1.1416 3.4223-1.6315 8.1503-1.6315 14.348s0.48993 10.926 1.6315 14.35c2.4448 7.501 7.6628 10.436 14.674 10.436 6.8494 0 12.07-2.9348 14.515-10.436m-49.087 45.498v-90.343c0-6.036 3.7505-9.62 9.1349-9.62 5.3796 0 8.3144 3.2606 9.1325 8.3144h0.16173c3.7505-5.3796 10.11-9.2942 21.2-9.2942 13.047 0 22.829 7.501 26.908 19.894 1.9573 6.0336 2.773 12.393 2.773 21.2 0 8.8067-0.81574 15.164-2.773 21.2-4.0787 12.391-13.86 19.894-26.908 19.894-11.09 0-17.773-4.238-21.2-9.2942h-0.16173v28.049c0 6.0336-3.7529 9.6224-9.1325 9.6224-5.3844 0-9.1349-3.5888-9.1349-9.6224" sketch:type="MSShapeGroup"/>
  <path d="m459.54 176.34c-15.984 0-21.53-7.9909-21.53-22.995v-80.069c0-6.0336 3.7529-9.6224 9.1325-9.6224 5.2203 0 9.1349 3.5888 9.1349 9.6224v78.601c0 5.5461 1.7956 7.501 6.3618 8.155 5.3772 0.64926 7.6628 3.9122 7.6628 7.9909 0 4.728-2.9348 8.3168-9.4583 8.3168h-1.3033z" sketch:type="MSShapeGroup"/>
  <path d="m528.37 149.92v-7.0111c0-0.65164-0.32582-0.97746-0.97508-0.97746h-13.047c-12.07 0-16.959 3.4223-16.959 10.6 0 6.5236 4.728 9.7818 13.696 9.7818 10.598 0 17.285-4.0763 17.285-12.393m22.834 17.777c0 4.8897-3.917 8.4785-9.1349 8.4785-3.2606 0-5.8695-1.1416-7.6651-3.7505l-2.609-3.917h-0.16172c-4.5662 5.382-12.557 8.645-23.157 8.645-18.591 0-28.537-8.8043-28.537-23.809 0-16.959 11.906-25.112 31.31-25.112h16.146c0.64926 0 0.97508-0.32582 0.97508-0.97984v-1.9573c0-9.1301-5.2179-14.51-17.611-14.51-5.5437 0-10.926 1.6291-14.353 3.2606-1.6267 0.64927-3.2582 0.97509-4.7256 0.97509-4.4045 0-7.5034-2.9324-7.5034-7.4963 0-2.6137 1.308-5.5461 4.5686-7.1776 5.0538-2.9348 13.209-5.382 23.97-5.382 22.344 0 32.941 11.092 32.941 30.494v24.789c0 4.0787 0.48992 5.7078 1.6291 7.8268l2.4448 4.2381c0.98222 1.7956 1.4721 3.5912 1.4721 5.3844" sketch:type="MSShapeGroup"/>
  <path d="m570 175.36c-5.0562 0-8.3168-3.0989-8.3168-7.9909 0-3.5864 1.9573-6.847 5.7054-11.254l36.204-43.049v-0.32583h-31.307c-5.2179 0-8.3168-3.4247-8.3168-7.9886 0-4.5663 3.0989-7.9933 8.3168-7.9933h46.312c5.0538 0 8.3191 3.0989 8.3191 7.9933 0 3.584-1.798 6.8446-5.7102 11.411l-35.712 42.892v0.32344h33.103c5.2203 0 8.3191 3.4247 8.3191 7.991 0 4.5662-3.0989 7.9909-8.3191 7.9909h-48.597z" sketch:type="MSShapeGroup"/>
  <path d="m686.19 149.92v-7.0111c0-0.65164-0.32582-0.97746-0.97746-0.97746h-13.045c-12.072 0-16.959 3.4223-16.959 10.6 0 6.5236 4.7256 9.7818 13.696 9.7818 10.6 0 17.285-4.0763 17.285-12.393m22.831 17.777c0 4.8897-3.9122 8.4785-9.1325 8.4785-3.2606 0-5.8695-1.1416-7.6651-3.7505l-2.609-3.917h-0.16172c-4.5662 5.382-12.557 8.645-23.155 8.645-18.596 0-28.539-8.8043-28.539-23.809 0-16.959 11.903-25.112 31.31-25.112h16.144c0.65164 0 0.97746-0.32582 0.97746-0.97984v-1.9573c0-9.1301-5.2179-14.51-17.611-14.51-5.5461 0-10.926 1.6291-14.35 3.2606-1.6339 0.64927-3.263 0.97509-4.7304 0.97509-4.4022 0-7.501-2.9324-7.501-7.4963 0-2.6137 1.3057-5.5461 4.5639-7.1776 5.0586-2.9348 13.214-5.382 23.975-5.382 22.344 0 32.941 11.092 32.941 30.494v24.789c0 4.0787 0.48754 5.7078 1.6315 7.8268l2.4425 4.2381c0.97985 1.7956 1.4698 3.5912 1.4698 5.3844" sketch:type="MSShapeGroup"/>
  <path d="m722.62 105.56c0-6.0336 3.7505-9.6201 9.1301-9.6201 5.3844 0 8.3191 3.4247 9.1325 8.1527h0.1641c3.4247-4.8921 10.274-9.1325 20.71-9.1325 9.2942 0 16.798 3.7505 21.526 10.441h0.1641c6.0313-6.5259 13.86-10.441 25.114-10.441 18.26 0 28.534 12.393 28.534 29.191v42.402c0 6.0313-3.7481 9.6177-9.1278 9.6177-5.3844 0-9.1349-3.5864-9.1349-9.6177v-38.162c0-10.108-5.0562-17.123-14.838-17.123-9.4607 0-15.007 7.0159-15.007 17.123v38.162c0 6.0313-3.7481 9.6177-9.1301 9.6177-5.3796 0-9.1301-3.5864-9.1301-9.6177v-38.162c0-10.108-5.0586-17.123-14.84-17.123-9.4583 0-15.004 7.0159-15.004 17.123v38.162c0 6.0313-3.7481 9.6177-9.1325 9.6177-5.3796 0-9.1301-3.5864-9.1301-9.6177v-60.993z" sketch:type="MSShapeGroup"/>
  <path d="m902.52 120.57c-2.1214-6.3595-7.9909-10.112-15.328-10.112-7.5058 0-13.373 3.7529-15.492 10.112-0.65164 1.9549-0.97984 3.9146-0.97984 6.6853 0 0.65402 0.3282 0.97984 0.97984 0.97984h30.82c0.64927 0 0.97747-0.32582 0.97747-0.97984 0-2.7707-0.3282-4.7304-0.97747-6.6853m-47.456 34.734c-1.6315-5.0562-2.7707-11.09-2.7707-19.242 0-8.1527 0.97746-14.35 2.6089-19.407 4.4045-13.696 16.469-21.69 32.126-21.69 16.141 0 27.885 8.3168 32.29 21.69 1.6291 5.2203 2.6066 11.416 2.6066 18.919 0 3.7481-2.2808 6.3571-6.3571 6.3571h-43.867c-0.65164 0-0.97984 0.3282-0.97984 0.97985 0 2.2831 0.48992 4.2404 1.1392 6.0336 2.6113 7.6604 8.8091 11.903 17.777 11.903 6.6877 0 11.09-1.9549 16.144-5.3796 2.1238-1.4674 4.2404-2.609 6.69-2.609 4.728 0 7.6628 3.2582 7.6628 7.6651 0 3.0989-1.308 5.2155-3.7529 7.1728-7.0135 5.7078-15.654 9.4583-28.375 9.4583-16.795 0-28.539-8.155-32.941-21.851" sketch:type="MSShapeGroup"/>
 </g>
</svg>
