<?xml version="1.0" encoding="UTF-8" standalone="no"?>
<svg xmlns:rdf="http://www.w3.org/1999/02/22-rdf-syntax-ns#" xmlns="http://www.w3.org/2000/svg" height="100" width="960" version="1.1" xmlns:cc="http://creativecommons.org/ns#" xmlns:dc="http://purl.org/dc/elements/1.1/" viewBox="0 0 960 99.999997">
 <g transform="translate(0 -952.36)">
  <g stroke-linejoin="round" fill-rule="evenodd" transform="matrix(.75596 0 0 .75596 117.14 964.81)" clip-rule="evenodd" stroke-miterlimit="1.4142">
   <rect height="84.66" width="480" clip-rule="evenodd" y="7.3396" x="240" fill="none"/>
   <g transform="matrix(.28337 0 0 .28337 443.84 11.484)">
    <g fill-rule="nonzero">
     <path d="m0.1 45.522 125.81-44.825 129.19 44.028-20.91 166.46-108.28 59.96-106.58-59.16-19.23-166.46v-0.003z" fill="#e23237"/>
     <path d="m255.1 44.725-129.19-44.028v270.44l108.28-59.866 20.918-166.55-0.008 0.004z" fill="#b52e31"/>
     <path d="m125.34 63.71c-0.28 0.048-0.557 0.11-0.83 0.185-0.186 0.024-0.371 0.055-0.554 0.092-0.093 0.029-0.185 0.06-0.277 0.092-0.062 0.03-0.123 0.061-0.184 0.092-0.782 0.235-1.527 0.577-2.215 1.015-0.062 0.061-0.124 0.123-0.184 0.185-1.721 1.194-2.964 2.96-3.507 4.983l-20.671 49.546c4.966 3.079 10.465 5.44 16.332 6.828l12.733-30.449 13.933 35.617c-4.42 1.021-9.012 1.568-13.748 1.568-20.764 0-38.957-10.387-49.919-26.205-1.804-2.702-4.986-4.168-8.213-3.782-4.335 0.505-7.642 4.219-7.642 8.584 0 1.821 0.576 3.597 1.644 5.071 14.075 20.311 37.603 33.586 64.128 33.586 6.941 0 13.692-0.97 20.114-2.676l21.222 54.164c1.193 3.625 4.6 6.091 8.416 6.091 4.859 0 8.859-3.999 8.859-8.859 0-1.308-0.29-2.6-0.849-3.783l-21.13-53.97c11.056-5.862 20.511-14.335 27.588-24.544 1.016-1.453 1.561-3.184 1.561-4.957 0-4.746-3.905-8.651-8.651-8.651-2.84 0-5.506 1.398-7.12 3.735-5.144 7.421-11.881 13.659-19.746 18.177l-21.68-55.47c-0.175-0.479-0.391-0.942-0.646-1.384-0.03-0.062-0.06-0.123-0.092-0.184-0.239-0.454-0.517-0.886-0.831-1.292-0.03-0.062-0.06-0.123-0.092-0.185-0.148-0.159-0.302-0.313-0.461-0.461-0.061-0.062-0.122-0.124-0.185-0.184-0.148-0.16-0.302-0.314-0.461-0.462-0.061-0.062-0.122-0.124-0.184-0.184-0.18-0.13-0.365-0.253-0.555-0.369-0.296-0.204-0.604-0.388-0.923-0.554-0.211-0.101-0.426-0.193-0.644-0.277-0.062-0.031-0.123-0.062-0.185-0.092-0.213-0.07-0.429-0.131-0.647-0.185-0.272-0.106-0.548-0.198-0.829-0.277-0.577-0.119-1.165-0.181-1.754-0.184-0.307-0.016-0.615-0.016-0.922 0v0.004zm-39.124 81.94-6.92 16.6c-0.552 1.177-0.838 2.461-0.838 3.761 0 4.859 3.999 8.859 8.859 8.859 3.701 0 7.03-2.32 8.311-5.792l6.92-16.701c-5.729-1.69-11.188-3.91-16.333-6.73l0.001 0.003z" fill="#fff"/>
    </g>
   </g>
   <g transform="matrix(.28337 0 0 .28337 447.66 11.861)">
    <g fill="#267bbd">
     <path d="m316.22 149.92v-7.011c0-0.652-0.326-0.978-0.977-0.978h-13.045c-12.07 0-16.962 3.423-16.962 10.6 0 6.524 4.73 9.782 13.699 9.782 10.6 0 17.285-4.076 17.285-12.393m22.831 17.777c0 4.89-3.915 8.479-9.133 8.479-3.261 0-5.869-1.142-7.665-3.751l-2.609-3.917h-0.162c-4.566 5.382-12.557 8.645-23.155 8.645-18.593 0-28.539-8.804-28.539-23.809 0-16.959 11.903-25.112 31.31-25.112h16.144c0.652 0 0.978-0.326 0.978-0.98v-1.957c0-9.13-5.216-14.51-17.609-14.51-5.546 0-10.928 1.629-14.353 3.261-1.632 0.649-3.263 0.975-4.731 0.975-4.399 0-7.503-2.933-7.503-7.497 0-2.613 1.308-5.546 4.571-7.177 5.054-2.935 13.209-5.382 23.968-5.382 22.346 0 32.944 11.092 32.944 30.494v24.789c0 4.079 0.49 5.708 1.629 7.827l2.445 4.238c0.98 1.795 1.47 3.591 1.47 5.384"/>
     <path d="m402.06 150.41c1.139-3.425 1.632-8.153 1.632-14.35 0-6.198-0.493-10.926-1.632-14.348-2.445-7.503-7.665-10.438-14.515-10.438-7.011 0-12.229 2.935-14.674 10.438-1.142 3.422-1.631 8.15-1.631 14.348s0.489 10.926 1.631 14.35c2.445 7.501 7.663 10.436 14.674 10.436 6.849 0 12.07-2.935 14.515-10.436m-49.087 45.498v-90.343c0-6.036 3.751-9.62 9.135-9.62 5.38 0 8.314 3.261 9.132 8.314h0.162c3.751-5.379 10.11-9.294 21.2-9.294 13.047 0 22.829 7.501 26.908 19.894 1.957 6.034 2.773 12.393 2.773 21.2s-0.816 15.164-2.773 21.2c-4.079 12.391-13.86 19.894-26.908 19.894-11.09 0-17.773-4.238-21.2-9.294h-0.162v28.049c0 6.034-3.752 9.622-9.132 9.622-5.384 0-9.135-3.588-9.135-9.622"/>
     <path d="m459.54 176.34c-15.984 0-21.53-7.991-21.53-22.995v-80.069c0-6.034 3.753-9.622 9.133-9.622 5.22 0 9.134 3.588 9.134 9.622v78.601c0 5.546 1.796 7.501 6.362 8.155 5.377 0.649 7.663 3.912 7.663 7.991 0 4.728-2.935 8.317-9.458 8.317h-1.304z"/>
     <path d="m528.37 149.92v-7.011c0-0.652-0.326-0.978-0.975-0.978h-13.047c-12.07 0-16.959 3.423-16.959 10.6 0 6.524 4.728 9.782 13.696 9.782 10.598 0 17.285-4.076 17.285-12.393m22.834 17.777c0 4.89-3.917 8.479-9.135 8.479-3.261 0-5.869-1.142-7.665-3.751l-2.609-3.917h-0.162c-4.566 5.382-12.557 8.645-23.157 8.645-18.591 0-28.537-8.804-28.537-23.809 0-16.959 11.906-25.112 31.31-25.112h16.146c0.649 0 0.975-0.326 0.975-0.98v-1.957c0-9.13-5.218-14.51-17.611-14.51-5.543 0-10.926 1.629-14.353 3.261-1.626 0.649-3.258 0.975-4.725 0.975-4.405 0-7.504-2.933-7.504-7.497 0-2.613 1.308-5.546 4.569-7.177 5.054-2.935 13.209-5.382 23.97-5.382 22.344 0 32.941 11.092 32.941 30.494v24.789c0 4.079 0.49 5.708 1.629 7.827l2.445 4.238c0.982 1.795 1.472 3.591 1.472 5.384"/>
     <path d="m570 175.36c-5.056 0-8.317-3.099-8.317-7.991 0-3.586 1.958-6.847 5.706-11.254l36.204-43.049v-0.326h-31.307c-5.218 0-8.317-3.424-8.317-7.988 0-4.567 3.099-7.994 8.317-7.994h46.312c5.053 0 8.319 3.099 8.319 7.994 0 3.584-1.798 6.844-5.71 11.411l-35.712 42.892v0.323h33.103c5.22 0 8.319 3.425 8.319 7.991s-3.099 7.991-8.319 7.991h-48.597-0.001z"/>
     <path d="m686.19 149.92v-7.011c0-0.652-0.326-0.978-0.977-0.978h-13.045c-12.072 0-16.959 3.423-16.959 10.6 0 6.524 4.725 9.782 13.696 9.782 10.6 0 17.285-4.076 17.285-12.393m22.831 17.777c0 4.89-3.913 8.479-9.133 8.479-3.261 0-5.869-1.142-7.665-3.751l-2.609-3.917h-0.162c-4.566 5.382-12.557 8.645-23.155 8.645-18.596 0-28.539-8.804-28.539-23.809 0-16.959 11.903-25.112 31.31-25.112h16.144c0.652 0 0.978-0.326 0.978-0.98v-1.957c0-9.13-5.218-14.51-17.611-14.51-5.546 0-10.926 1.629-14.35 3.261-1.634 0.649-3.263 0.975-4.731 0.975-4.402 0-7.501-2.933-7.501-7.497 0-2.613 1.306-5.546 4.564-7.177 5.059-2.935 13.214-5.382 23.975-5.382 22.344 0 32.941 11.092 32.941 30.494v24.789c0 4.079 0.488 5.708 1.632 7.827l2.442 4.238c0.98 1.795 1.47 3.591 1.47 5.384"/>
     <path d="m722.62 105.56c0-6.034 3.751-9.62 9.13-9.62 5.385 0 8.319 3.425 9.133 8.153h0.164c3.424-4.893 10.274-9.133 20.71-9.133 9.294 0 16.798 3.751 21.526 10.441h0.164c6.031-6.526 13.86-10.441 25.114-10.441 18.26 0 28.534 12.393 28.534 29.191v42.402c0 6.031-3.748 9.618-9.128 9.618-5.384 0-9.135-3.587-9.135-9.618v-38.162c0-10.108-5.056-17.123-14.838-17.123-9.461 0-15.007 7.016-15.007 17.123v38.162c0 6.031-3.748 9.618-9.13 9.618-5.38 0-9.13-3.587-9.13-9.618v-38.162c0-10.108-5.059-17.123-14.84-17.123-9.458 0-15.004 7.016-15.004 17.123v38.162c0 6.031-3.748 9.618-9.133 9.618-5.379 0-9.13-3.587-9.13-9.618v-60.993z"/>
     <path d="m902.52 120.57c-2.121-6.359-7.991-10.112-15.328-10.112-7.506 0-13.373 3.753-15.492 10.112-0.652 1.955-0.98 3.915-0.98 6.685 0 0.654 0.328 0.98 0.98 0.98h30.82c0.649 0 0.977-0.326 0.977-0.98 0-2.77-0.328-4.73-0.977-6.685m-47.456 34.734c-1.631-5.056-2.771-11.09-2.771-19.242 0-8.153 0.978-14.35 2.609-19.407 4.405-13.696 16.469-21.69 32.126-21.69 16.141 0 27.885 8.317 32.29 21.69 1.629 5.22 2.607 11.416 2.607 18.919 0 3.748-2.281 6.357-6.357 6.357h-43.867c-0.652 0-0.98 0.328-0.98 0.98 0 2.283 0.49 4.24 1.139 6.034 2.611 7.66 8.809 11.903 17.777 11.903 6.688 0 11.09-1.955 16.144-5.38 2.124-1.467 4.24-2.609 6.69-2.609 4.728 0 7.663 3.258 7.663 7.665 0 3.099-1.308 5.216-3.753 7.173-7.014 5.708-15.654 9.458-28.375 9.458-16.795 0-28.539-8.155-32.941-21.851"/>
    </g>
   </g>
   <g transform="matrix(1.1064 0 0 1.1064 378.11 61.795)">
    <g fill-rule="nonzero" fill="#333a3e">
     <path d="m5.357-3.121v-14.191h-0.42c-1.004 0-1.694-0.118-2.07-0.354s-0.565-0.65-0.565-1.24c0-0.546 0.155-0.941 0.465-1.184 0.31-0.244 0.812-0.366 1.506-0.366h3.165c0.399 0 0.709 0.081 0.93 0.244 0.222 0.162 0.332 0.384 0.332 0.664v1.505c1.078-1.003 2.144-1.745 3.199-2.225 1.056-0.479 2.151-0.719 3.288-0.719 2.228 0 3.981 0.694 5.258 2.081 1.276 1.387 1.915 3.306 1.915 5.756v10.029h1.04c0.738 0 1.269 0.121 1.594 0.365 0.325 0.243 0.487 0.631 0.487 1.162 0 0.576-0.173 0.985-0.52 1.229-0.347 0.243-0.963 0.365-1.849 0.365h-4.892c-0.945 0-1.55-0.111-1.816-0.332-0.265-0.221-0.398-0.642-0.398-1.262 0-0.576 0.155-0.974 0.465-1.195 0.31-0.222 0.893-0.332 1.749-0.332h0.775v-9.21c0-1.727-0.392-3.044-1.174-3.952-0.782-0.907-1.918-1.361-3.409-1.361-1.505 0-2.834 0.509-3.985 1.527-1.151 1.019-1.727 2.281-1.727 3.786v9.21h0.775c0.886 0 1.483 0.11 1.793 0.332 0.31 0.221 0.465 0.619 0.465 1.195 0 0.62-0.133 1.041-0.398 1.262-0.266 0.221-0.915 0.332-1.948 0.332h-4.03-1.195c-0.605 0-1.059-0.129-1.362-0.387-0.302-0.259-0.453-0.661-0.453-1.207 0-0.59 0.173-0.992 0.52-1.206s1.022-0.321 2.026-0.321h0.464z"/>
     <path d="m40.181-17.179c-1.934 0-3.513 0.598-4.738 1.793s-1.837 2.745-1.837 4.649c0 1.874 0.612 3.413 1.837 4.616s2.804 1.804 4.738 1.804c1.918 0 3.494-0.601 4.726-1.804 1.233-1.203 1.849-2.742 1.849-4.616s-0.616-3.417-1.849-4.627c-1.232-1.21-2.808-1.815-4.726-1.815zm9.608 16.006c0 2.066-0.104 3.531-0.31 4.394-0.207 0.863-0.561 1.62-1.063 2.269-0.826 1.092-1.985 1.923-3.475 2.491-1.491 0.568-3.247 0.852-5.269 0.852-1.683 0-2.912-0.162-3.686-0.487-0.775-0.325-1.163-0.841-1.163-1.55 0-0.457 0.189-0.859 0.565-1.206s0.823-0.52 1.339-0.52c0.399 0 1.011 0.055 1.838 0.166 0.826 0.11 1.453 0.166 1.881 0.166 2.185 0 3.734-0.502 4.649-1.506 0.916-1.003 1.373-2.723 1.373-5.158v-2.679c-0.9 1.048-1.896 1.816-2.989 2.303-1.092 0.487-2.346 0.73-3.763 0.73-2.76 0-5.044-0.918-6.852-2.756-1.808-1.837-2.712-4.166-2.712-6.984 0-2.834 0.93-5.184 2.79-7.051 1.859-1.867 4.162-2.801 6.907-2.801 1.136 0 2.247 0.21 3.332 0.631 1.084 0.421 2.18 1.059 3.287 1.915v-1.594c0-0.31 0.1-0.539 0.299-0.686 0.199-0.148 0.513-0.222 0.941-0.222h3.343c0.59 0 1.033 0.129 1.328 0.388 0.295 0.258 0.443 0.645 0.443 1.162 0 0.59-0.185 1.004-0.554 1.24s-1.062 0.354-2.081 0.354h-0.398v16.139z"/>
    </g>
   </g>
  </g>
 </g>
</svg>
