<?xml version="1.0" encoding="UTF-8" standalone="no"?>
<!-- Created with Inkscape (http://www.inkscape.org/) -->
<svg xmlns:rdf="http://www.w3.org/1999/02/22-rdf-syntax-ns#" xmlns="http://www.w3.org/2000/svg" height="96" width="184.6" version="1.1" xmlns:cc="http://creativecommons.org/ns#" xmlns:xlink="http://www.w3.org/1999/xlink" xmlns:dc="http://purl.org/dc/elements/1.1/">
	<defs>
		<linearGradient id="linearGradient7344" y2="236.05" gradientUnits="userSpaceOnUse" x2="399.55" y1="192.79" x1="399.55">
			<stop stop-color="#B7CDBC" offset="0"/>
			<stop stop-color="#ABDAED" offset="1"/>
		</linearGradient>
		<linearGradient id="linearGradient7346" y2="195.38" gradientUnits="userSpaceOnUse" x2="399.55" y1="178.6" x1="399.55">
			<stop stop-color="#B7CDBC" offset="0"/>
			<stop stop-color="#ABDAED" offset="1"/>
		</linearGradient>
		<linearGradient id="linearGradient7348" y2="226.35" gradientUnits="userSpaceOnUse" x2="454.03" y1="187.33" x1="454.03">
			<stop stop-color="#B7CDBC" offset="0"/>
			<stop stop-color="#ABDAED" stop-opacity="0.5" offset="1"/>
		</linearGradient>
	</defs>
	<metadata>
		<rdf:RDF>
			<cc:Work rdf:about="">
				<dc:format>image/svg+xml</dc:format>
				<dc:type rdf:resource="http://purl.org/dc/dcmitype/StillImage"/>
				<dc:title/>
			</cc:Work>
		</rdf:RDF>
	</metadata>
	<g transform="translate(0,-956.36218)">
		<g transform="translate(-337.70006,813.36218)">
			<rect height="55.5" width="115.7" y="168.5" x="375.5" fill="#cca291"/>
			<g opacity="0.5">
				<rect height="2.5" width="6" y="220.8" x="386.8" fill="#f3ce9d"/>
				<rect height="2.5" width="6" y="220.8" x="394" fill="#f3ce9d"/>
				<rect height="2.5" width="6" y="220.8" x="401.3" fill="#f3ce9d"/>
				<rect height="2.5" width="6" y="220.8" x="408.6" fill="#f3ce9d"/>
				<rect height="2.5" width="6" y="220.8" x="415.8" fill="#f3ce9d"/>
				<rect height="2.5" width="6" y="220.8" x="423.1" fill="#f3ce9d"/>
				<rect height="2.5" width="6" y="220.8" x="430.3" fill="#f3ce9d"/>
				<rect height="2.5" width="6" y="220.8" x="437.6" fill="#f3ce9d"/>
				<rect height="2.5" width="6" y="220.8" x="444.8" fill="#f3ce9d"/>
				<rect height="2.5" width="6" y="220.8" x="452.1" fill="#f3ce9d"/>
				<rect height="2.5" width="6" y="220.8" x="459.3" fill="#f3ce9d"/>
				<rect height="2.5" width="6" y="220.8" x="466.6" fill="#f3ce9d"/>
				<rect height="2.5" width="6" y="220.8" x="473.9" fill="#f3ce9d"/>
				<rect height="2.5" width="6" y="220.8" x="481.1" fill="#f3ce9d"/>
				<rect height="2.5" width="3" y="220.8" x="488.4" fill="#f3ce9d"/>
				<rect height="2.5" width="3" y="220.8" x="375.3" fill="#f3ce9d"/>
				<rect height="2.5" width="6" y="220.8" x="379.5" fill="#f3ce9d"/>
				<rect height="2.5" width="6" y="191.3" x="386.8" fill="#f3ce9d"/>
				<rect height="2.5" width="6" y="191.3" x="394" fill="#f3ce9d"/>
				<rect height="2.5" width="6" y="191.3" x="401.3" fill="#f3ce9d"/>
				<rect height="2.5" width="6" y="191.3" x="408.6" fill="#f3ce9d"/>
				<rect height="2.5" width="6" y="191.3" x="415.8" fill="#f3ce9d"/>
				<rect height="2.5" width="6" y="191.3" x="423.1" fill="#f3ce9d"/>
				<rect height="2.5" width="6" y="191.3" x="430.3" fill="#f3ce9d"/>
				<rect height="2.5" width="6" y="191.3" x="437.6" fill="#f3ce9d"/>
				<rect height="2.5" width="6" y="191.3" x="444.8" fill="#f3ce9d"/>
				<rect height="2.5" width="6" y="191.3" x="452.1" fill="#f3ce9d"/>
				<rect height="2.5" width="6" y="191.3" x="459.3" fill="#f3ce9d"/>
				<rect height="2.5" width="6" y="191.3" x="466.6" fill="#f3ce9d"/>
				<rect height="2.5" width="6" y="191.3" x="473.9" fill="#f3ce9d"/>
				<rect height="2.5" width="6" y="191.3" x="481.1" fill="#f3ce9d"/>
				<rect height="2.5" width="3" y="191.3" x="488.4" fill="#f3ce9d"/>
				<rect height="2.5" width="6" y="195" x="390.4" fill="#f3ce9d"/>
				<rect height="2.5" width="6" y="195" x="397.7" fill="#f3ce9d"/>
				<rect height="2.5" width="6" y="195" x="404.9" fill="#f3ce9d"/>
				<rect height="2.5" width="6" y="195" x="412.2" fill="#f3ce9d"/>
				<rect height="2.5" width="6" y="195" x="426.7" fill="#f3ce9d"/>
				<rect height="2.5" width="6" y="195" x="433.9" fill="#f3ce9d"/>
				<rect height="2.5" width="6" y="195" x="441.2" fill="#f3ce9d"/>
				<rect height="2.5" width="6" y="195" x="448.5" fill="#f3ce9d"/>
				<rect height="2.5" width="6" y="195" x="455.7" fill="#f3ce9d"/>
				<rect height="2.5" width="6" y="195" x="463" fill="#f3ce9d"/>
				<rect height="2.5" width="6" y="195" x="470.2" fill="#f3ce9d"/>
				<rect height="2.5" width="6" y="195" x="484.7" fill="#f3ce9d"/>
				<rect height="2.5" width="6" y="198.7" x="386.8" fill="#f3ce9d"/>
				<rect height="2.5" width="6" y="198.7" x="394" fill="#f3ce9d"/>
				<rect height="2.5" width="6" y="198.7" x="408.6" fill="#f3ce9d"/>
				<rect height="2.5" width="6" y="198.7" x="415.8" fill="#f3ce9d"/>
				<rect height="2.5" width="6" y="198.7" x="423.1" fill="#f3ce9d"/>
				<rect height="2.5" width="6" y="198.7" x="430.3" fill="#f3ce9d"/>
				<rect height="2.5" width="6" y="198.7" x="444.8" fill="#f3ce9d"/>
				<rect height="2.5" width="6" y="198.7" x="452.1" fill="#f3ce9d"/>
				<rect height="2.5" width="6" y="198.7" x="459.3" fill="#f3ce9d"/>
				<rect height="2.5" width="6" y="198.7" x="473.9" fill="#f3ce9d"/>
				<rect height="2.5" width="6" y="198.7" x="481.1" fill="#f3ce9d"/>
				<rect height="2.5" width="3" y="198.7" x="488.4" fill="#f3ce9d"/>
				<rect height="2.5" width="6" y="202.4" x="390.4" fill="#f3ce9d"/>
				<rect height="2.5" width="6" y="202.4" x="397.7" fill="#f3ce9d"/>
				<rect height="2.5" width="6" y="202.4" x="404.9" fill="#f3ce9d"/>
				<rect height="2.5" width="6" y="202.4" x="412.2" fill="#f3ce9d"/>
				<rect height="2.5" width="6" y="202.4" x="419.4" fill="#f3ce9d"/>
				<rect height="2.5" width="6" y="202.4" x="426.7" fill="#f3ce9d"/>
				<rect height="2.5" width="6" y="202.4" x="433.9" fill="#f3ce9d"/>
				<rect height="2.5" width="6" y="202.4" x="441.2" fill="#f3ce9d"/>
				<rect height="2.5" width="6" y="202.4" x="448.5" fill="#f3ce9d"/>
				<rect height="2.5" width="6" y="202.4" x="463" fill="#f3ce9d"/>
				<rect height="2.5" width="6" y="202.4" x="470.2" fill="#f3ce9d"/>
				<rect height="2.5" width="6" y="202.4" x="477.5" fill="#f3ce9d"/>
				<rect height="2.5" width="6" y="202.4" x="484.7" fill="#f3ce9d"/>
				<rect height="2.5" width="6" y="206.1" x="386.8" fill="#f3ce9d"/>
				<rect height="2.5" width="6" y="206.1" x="394" fill="#f3ce9d"/>
				<rect height="2.5" width="6" y="206.1" x="401.3" fill="#f3ce9d"/>
				<rect height="2.5" width="6" y="206.1" x="408.6" fill="#f3ce9d"/>
				<rect height="2.5" width="6" y="206.1" x="423.1" fill="#f3ce9d"/>
				<rect height="2.5" width="6" y="206.1" x="430.3" fill="#f3ce9d"/>
				<rect height="2.5" width="6" y="206.1" x="437.6" fill="#f3ce9d"/>
				<rect height="2.5" width="6" y="206.1" x="452.1" fill="#f3ce9d"/>
				<rect height="2.5" width="6" y="206.1" x="459.3" fill="#f3ce9d"/>
				<rect height="2.5" width="6" y="206.1" x="466.6" fill="#f3ce9d"/>
				<rect height="2.5" width="6" y="206.1" x="473.9" fill="#f3ce9d"/>
				<rect height="2.5" width="6" y="206.1" x="481.1" fill="#f3ce9d"/>
				<rect height="2.5" width="3" y="206.1" x="488.4" fill="#f3ce9d"/>
				<rect height="2.5" width="6" y="209.8" x="390.4" fill="#f3ce9d"/>
				<rect height="2.5" width="6" y="209.8" x="397.7" fill="#f3ce9d"/>
				<rect height="2.5" width="6" y="209.8" x="404.9" fill="#f3ce9d"/>
				<rect height="2.5" width="6" y="209.8" x="412.2" fill="#f3ce9d"/>
				<rect height="2.5" width="6" y="209.8" x="419.4" fill="#f3ce9d"/>
				<rect height="2.5" width="6" y="209.8" x="426.7" fill="#f3ce9d"/>
				<rect height="2.5" width="6" y="209.8" x="433.9" fill="#f3ce9d"/>
				<rect height="2.5" width="6" y="209.8" x="441.2" fill="#f3ce9d"/>
				<rect height="2.5" width="6" y="209.8" x="448.5" fill="#f3ce9d"/>
				<rect height="2.5" width="6" y="209.8" x="455.7" fill="#f3ce9d"/>
				<rect height="2.5" width="6" y="209.8" x="463" fill="#f3ce9d"/>
				<rect height="2.5" width="6" y="209.8" x="470.2" fill="#f3ce9d"/>
				<rect height="2.5" width="6" y="209.8" x="477.5" fill="#f3ce9d"/>
				<rect height="2.5" width="6" y="213.4" x="386.8" fill="#f3ce9d"/>
				<rect height="2.5" width="6" y="213.4" x="394" fill="#f3ce9d"/>
				<rect height="2.5" width="6" y="213.4" x="401.3" fill="#f3ce9d"/>
				<rect height="2.5" width="6" y="213.4" x="408.6" fill="#f3ce9d"/>
				<rect height="2.5" width="6" y="213.4" x="415.8" fill="#f3ce9d"/>
				<rect height="2.5" width="6" y="213.4" x="430.3" fill="#f3ce9d"/>
				<rect height="2.5" width="6" y="213.4" x="444.8" fill="#f3ce9d"/>
				<rect height="2.5" width="6" y="213.4" x="452.1" fill="#f3ce9d"/>
				<rect height="2.5" width="6" y="213.4" x="459.3" fill="#f3ce9d"/>
				<rect height="2.5" width="6" y="213.4" x="473.9" fill="#f3ce9d"/>
				<rect height="2.5" width="6" y="213.4" x="481.1" fill="#f3ce9d"/>
				<rect height="2.5" width="3" y="213.4" x="488.4" fill="#f3ce9d"/>
				<rect height="2.5" width="6" y="217.1" x="390.4" fill="#f3ce9d"/>
				<rect height="2.5" width="6" y="217.1" x="397.7" fill="#f3ce9d"/>
				<rect height="2.5" width="6" y="217.1" x="404.9" fill="#f3ce9d"/>
				<rect height="2.5" width="6" y="217.1" x="412.2" fill="#f3ce9d"/>
				<rect height="2.5" width="6" y="217.1" x="419.4" fill="#f3ce9d"/>
				<rect height="2.5" width="6" y="217.1" x="426.7" fill="#f3ce9d"/>
				<rect height="2.5" width="6" y="217.1" x="433.9" fill="#f3ce9d"/>
				<rect height="2.5" width="6" y="217.1" x="441.2" fill="#f3ce9d"/>
				<rect height="2.5" width="6" y="217.1" x="448.5" fill="#f3ce9d"/>
				<rect height="2.5" width="6" y="217.1" x="455.7" fill="#f3ce9d"/>
				<rect height="2.5" width="6" y="217.1" x="463" fill="#f3ce9d"/>
				<rect height="2.5" width="6" y="217.1" x="470.2" fill="#f3ce9d"/>
				<rect height="2.5" width="6" y="217.1" x="484.7" fill="#f3ce9d"/>
				<rect height="2.5" width="3" y="191.3" x="375.3" fill="#f3ce9d"/>
				<rect height="2.5" width="6" y="191.3" x="379.5" fill="#f3ce9d"/>
				<rect height="2.5" width="6" y="195" x="375.9" fill="#f3ce9d"/>
				<rect height="2.5" width="6" y="195" x="383.2" fill="#f3ce9d"/>
				<rect height="2.5" width="3" y="198.7" x="375.3" fill="#f3ce9d"/>
				<rect height="2.5" width="6" y="198.7" x="379.5" fill="#f3ce9d"/>
				<rect height="2.5" width="6" y="202.4" x="375.9" fill="#f3ce9d"/>
				<rect height="2.5" width="6" y="202.4" x="383.2" fill="#f3ce9d"/>
				<rect height="2.5" width="3" y="206.1" x="375.3" fill="#f3ce9d"/>
				<rect height="2.5" width="6" y="209.8" x="375.9" fill="#f3ce9d"/>
				<rect height="2.5" width="6" y="209.8" x="383.2" fill="#f3ce9d"/>
				<rect height="2.5" width="3" y="213.4" x="375.3" fill="#f3ce9d"/>
				<rect height="2.5" width="6" y="213.4" x="379.5" fill="#f3ce9d"/>
				<rect height="2.5" width="6" y="169.3" x="401.3" fill="#f3ce9d"/>
				<rect height="2.5" width="6" y="169.3" x="415.8" fill="#f3ce9d"/>
				<rect height="2.5" width="6" y="169.3" x="423.1" fill="#f3ce9d"/>
				<rect height="2.5" width="6" y="169.3" x="437.6" fill="#f3ce9d"/>
				<rect height="2.5" width="6" y="169.3" x="444.8" fill="#f3ce9d"/>
				<rect height="2.5" width="6" y="169.3" x="452.1" fill="#f3ce9d"/>
				<rect height="2.5" width="6" y="169.3" x="459.3" fill="#f3ce9d"/>
				<rect height="2.5" width="6" y="169.3" x="466.6" fill="#f3ce9d"/>
				<rect height="2.5" width="6" y="169.3" x="481.1" fill="#f3ce9d"/>
				<rect height="2.5" width="3" y="169.3" x="488.4" fill="#f3ce9d"/>
				<rect height="2.5" width="6" y="172.9" x="390.4" fill="#f3ce9d"/>
				<rect height="2.5" width="6" y="172.9" x="397.7" fill="#f3ce9d"/>
				<rect height="2.5" width="6" y="172.9" x="404.9" fill="#f3ce9d"/>
				<rect height="2.5" width="6" y="172.9" x="412.2" fill="#f3ce9d"/>
				<rect height="2.5" width="6" y="172.9" x="419.4" fill="#f3ce9d"/>
				<rect height="2.5" width="6" y="172.9" x="426.7" fill="#f3ce9d"/>
				<rect height="2.5" width="6" y="172.9" x="433.9" fill="#f3ce9d"/>
				<rect height="2.5" width="6" y="172.9" x="441.2" fill="#f3ce9d"/>
				<rect height="2.5" width="6" y="172.9" x="448.5" fill="#f3ce9d"/>
				<rect height="2.5" width="6" y="172.9" x="455.7" fill="#f3ce9d"/>
				<rect height="2.5" width="6" y="172.9" x="463" fill="#f3ce9d"/>
				<rect height="2.5" width="6" y="172.9" x="470.2" fill="#f3ce9d"/>
				<rect height="2.5" width="6" y="172.9" x="477.5" fill="#f3ce9d"/>
				<rect height="2.5" width="6" y="172.9" x="484.7" fill="#f3ce9d"/>
				<rect height="2.5" width="6" y="176.6" x="386.8" fill="#f3ce9d"/>
				<rect height="2.5" width="6" y="176.6" x="394" fill="#f3ce9d"/>
				<rect height="2.5" width="6" y="176.6" x="401.3" fill="#f3ce9d"/>
				<rect height="2.5" width="6" y="176.6" x="408.6" fill="#f3ce9d"/>
				<rect height="2.5" width="6" y="176.6" x="415.8" fill="#f3ce9d"/>
				<rect height="2.5" width="6" y="176.6" x="430.3" fill="#f3ce9d"/>
				<rect height="2.5" width="6" y="176.6" x="437.6" fill="#f3ce9d"/>
				<rect height="2.5" width="6" y="176.6" x="452.1" fill="#f3ce9d"/>
				<rect height="2.5" width="6" y="176.6" x="466.6" fill="#f3ce9d"/>
				<rect height="2.5" width="6" y="176.6" x="473.9" fill="#f3ce9d"/>
				<rect height="2.5" width="6" y="176.6" x="481.1" fill="#f3ce9d"/>
				<rect height="2.5" width="3" y="176.6" x="488.4" fill="#f3ce9d"/>
				<rect height="2.5" width="6" y="180.3" x="390.4" fill="#f3ce9d"/>
				<rect height="2.5" width="6" y="180.3" x="397.7" fill="#f3ce9d"/>
				<rect height="2.5" width="6" y="180.3" x="404.9" fill="#f3ce9d"/>
				<rect height="2.5" width="6" y="180.3" x="419.4" fill="#f3ce9d"/>
				<rect height="2.5" width="6" y="180.3" x="426.7" fill="#f3ce9d"/>
				<rect height="2.5" width="6" y="180.3" x="433.9" fill="#f3ce9d"/>
				<rect height="2.5" width="6" y="180.3" x="441.2" fill="#f3ce9d"/>
				<rect height="2.5" width="6" y="180.3" x="448.5" fill="#f3ce9d"/>
				<rect height="2.5" width="6" y="180.3" x="455.7" fill="#f3ce9d"/>
				<rect height="2.5" width="6" y="180.3" x="463" fill="#f3ce9d"/>
				<rect height="2.5" width="6" y="180.3" x="470.2" fill="#f3ce9d"/>
				<rect height="2.5" width="6" y="180.3" x="477.5" fill="#f3ce9d"/>
				<rect height="2.5" width="6" y="180.3" x="484.7" fill="#f3ce9d"/>
				<rect height="2.5" width="6" y="184" x="386.8" fill="#f3ce9d"/>
				<rect height="2.5" width="6" y="184" x="394" fill="#f3ce9d"/>
				<rect height="2.5" width="6" y="184" x="401.3" fill="#f3ce9d"/>
				<rect height="2.5" width="6" y="184" x="408.6" fill="#f3ce9d"/>
				<rect height="2.5" width="6" y="184" x="415.8" fill="#f3ce9d"/>
				<rect height="2.5" width="6" y="184" x="423.1" fill="#f3ce9d"/>
				<rect height="2.5" width="6" y="184" x="430.3" fill="#f3ce9d"/>
				<rect height="2.5" width="6" y="184" x="437.6" fill="#f3ce9d"/>
				<rect height="2.5" width="6" y="184" x="444.8" fill="#f3ce9d"/>
				<rect height="2.5" width="6" y="184" x="452.1" fill="#f3ce9d"/>
				<rect height="2.5" width="6" y="184" x="459.3" fill="#f3ce9d"/>
				<rect height="2.5" width="6" y="184" x="466.6" fill="#f3ce9d"/>
				<rect height="2.5" width="6" y="184" x="473.9" fill="#f3ce9d"/>
				<rect height="2.5" width="6" y="184" x="481.1" fill="#f3ce9d"/>
				<rect height="2.5" width="3" y="184" x="488.4" fill="#f3ce9d"/>
				<rect height="2.5" width="6" y="187.7" x="390.4" fill="#f3ce9d"/>
				<rect height="2.5" width="6" y="187.7" x="404.9" fill="#f3ce9d"/>
				<rect height="2.5" width="6" y="187.7" x="412.2" fill="#f3ce9d"/>
				<rect height="2.5" width="6" y="187.7" x="419.4" fill="#f3ce9d"/>
				<rect height="2.5" width="6" y="187.7" x="433.9" fill="#f3ce9d"/>
				<rect height="2.5" width="6" y="187.7" x="448.5" fill="#f3ce9d"/>
				<rect height="2.5" width="6" y="187.7" x="455.7" fill="#f3ce9d"/>
				<rect height="2.5" width="6" y="187.7" x="463" fill="#f3ce9d"/>
				<rect height="2.5" width="6" y="187.7" x="477.5" fill="#f3ce9d"/>
				<rect height="2.5" width="6" y="187.7" x="484.7" fill="#f3ce9d"/>
				<g fill="#f3ce9d">
					<rect height="2.5" width="6" y="206.1" x="415.8"/>
					<rect height="2.5" width="6" y="213.4" x="437.6"/>
					<rect height="2.5" width="6" y="217.1" x="477.5"/>
					<rect height="2.5" width="6" y="169.3" x="386.8"/>
					<rect height="2.5" width="6" y="176.6" x="423.1"/>
					<rect height="2.5" width="6" y="187.7" x="441.2"/>
					<rect height="2.5" width="6" y="187.7" x="470.2"/>
				</g>
				<rect height="2.5" width="3" y="169.3" x="375.3" fill="#f3ce9d"/>
				<rect height="2.5" width="6" y="169.3" x="379.5" fill="#f3ce9d"/>
				<rect height="2.5" width="6" y="172.9" x="383.2" fill="#f3ce9d"/>
				<g fill="#f3ce9d">
					<rect height="2.5" width="6" y="195" x="419.4"/>
					<rect height="2.5" width="6" y="198.7" x="466.6"/>
					<rect height="2.5" width="6" y="217.1" x="375.9"/>
					<rect height="2.5" width="6" y="169.3" x="408.6"/>
					<rect height="2.5" width="6" y="169.3" x="473.9"/>
					<rect height="2.5" width="6" y="176.6" x="444.8"/>
					<rect height="2.5" width="6" y="187.7" x="397.7"/>
					<rect height="2.5" width="3" y="176.6" x="375.3"/>
				</g>
				<rect height="2.5" width="6" y="176.6" x="379.5" fill="#f3ce9d"/>
				<rect height="2.5" width="6" y="180.3" x="375.9" fill="#f3ce9d"/>
				<g>
					<g>
						<g>
							<rect height="2.5" width="6" y="206.1" x="444.8" fill="#f3ce9d"/>
						</g>
						<g>
							<rect height="2.5" width="6" y="209.8" x="484.7" fill="#f3ce9d"/>
						</g>
						<g>
							<rect height="2.5" width="6" y="169.3" x="430.3" fill="#f3ce9d"/>
						</g>
						<g>
							<rect height="2.5" width="6" y="187.7" x="426.7" fill="#f3ce9d"/>
						</g>
						<g>
							<rect height="2.5" width="6" y="180.3" x="383.2" fill="#f3ce9d"/>
						</g>
					</g>
				</g>
				<g opacity="0.5">
					<g>
						<g>
							<rect height="2.5" width="6" y="195" x="477.5" fill="#ab887a"/>
						</g>
						<g>
							<rect height="2.5" width="6" y="198.7" x="401.3" fill="#ab887a"/>
						</g>
						<g>
							<rect height="2.5" width="6" y="198.7" x="437.6" fill="#ab887a"/>
						</g>
						<g>
							<rect height="2.5" width="6" y="202.4" x="455.7" fill="#ab887a"/>
						</g>
						<g>
							<rect height="2.5" width="6" y="213.4" x="423.1" fill="#ab887a"/>
						</g>
						<g>
							<rect height="2.5" width="6" y="213.4" x="466.6" fill="#ab887a"/>
						</g>
						<g>
							<rect height="2.5" width="6" y="206.1" x="379.5" fill="#ab887a"/>
						</g>
						<g>
							<rect height="2.5" width="6" y="217.1" x="383.2" fill="#ab887a"/>
						</g>
						<g>
							<rect height="2.5" width="6" y="169.3" x="394" fill="#ab887a"/>
						</g>
						<g>
							<rect height="2.5" width="6" y="176.6" x="459.3" fill="#ab887a"/>
						</g>
						<g>
							<rect height="2.5" width="6" y="180.3" x="412.2" fill="#ab887a"/>
						</g>
						<g>
							<rect height="2.5" width="6" y="172.9" x="375.9" fill="#ab887a"/>
						</g>
					</g>
				</g>
				<rect height="2.5" width="3" y="184" x="375.3" fill="#f3ce9d"/>
				<rect height="2.5" width="6" y="184" x="379.5" fill="#f3ce9d"/>
				<rect height="2.5" width="6" y="187.7" x="375.9" fill="#f3ce9d"/>
				<rect height="2.5" width="6" y="187.7" x="383.2" fill="#f3ce9d"/>
			</g>
			<circle stroke-linejoin="round" d="m 508.70001,173.3 c 0,0.60752 -0.49249,1.1 -1.1,1.1 -0.60752,0 -1.1,-0.49248 -1.1,-1.1 0,-0.60751 0.49248,-1.1 1.1,-1.1 0.60751,0 1.1,0.49249 1.1,1.1 z" cx="507.6" stroke-linecap="round" stroke="#5e506c" cy="173.3" r="1.1" stroke-miterlimit="10" stroke-width="4" fill="none"/>
			<polygon points="512.8,162.5,511.7,173.5,503.6,173.5,502.5,162.5" fill="#FFF"/>
			<path stroke-linejoin="round" d="M414.3,224" stroke="#5e506c" stroke-linecap="round" stroke-miterlimit="10" stroke-width="2" fill="none"/>
			<path fill="#FFF" d="m384.8,186.1v50h29.5v-50c-10.8-10.3-22.4-7.5-29.5,0z"/>
			<path stroke-linejoin="round" d="m414.3,236h-29.5v-47.8c0-4.9,3.9-8.8,8.8-8.8h11.9c4.9,0,8.8,3.9,8.8,8.8v47.8z" stroke="#ab887a" stroke-linecap="round" stroke-miterlimit="10" stroke-width="1.5" fill="#ab887a"/>
			<path stroke-linejoin="round" d="M414.3,224" stroke="#5e506c" stroke-linecap="round" stroke-miterlimit="10" stroke-width="2" fill="none"/>
			<path opacity="0.85" fill="url(#linearGradient7344)" d="M384.8,194.8v41.2h29.5v-43.1c-9.8-0.6-19.8,1.4-29.5,1.9z"/>
			<path opacity="0.85" fill="url(#linearGradient7346)" d="m399.5,178.6c-11,0-14.8,7.5-14.8,7.5v8.7c9.7-0.4,19.7,0,29.5,0.6v-9.3c0.1,0-3.7-7.5-14.7-7.5z"/>
			<polyline stroke-linejoin="round" stroke-linecap="round" stroke="#FFF" points="414.3,236,414.3,192.6,384.8,192.6,384.8,236" stroke-miterlimit="10" stroke-width="6" fill="none"/>
			<line stroke-linejoin="round" y2="234.8" x2="399.5" stroke="#8498a6" stroke-linecap="round" stroke-miterlimit="10" y1="195.4" x1="399.5" fill="none"/>
			<path stroke-linejoin="round" d="m414.3,188.1s-3.8-7.5-14.8-7.5-14.8,7.5-14.8,7.5v4.5h29.5v-4.5z" stroke="#FFF" stroke-linecap="round" stroke-miterlimit="10" stroke-width="6" fill="none"/>
			<path stroke-linejoin="round" d="m414.3,188.1s-3.8-7.5-14.8-7.5-14.8,7.5-14.8,7.5v48h29.5v-48z" stroke="#5e506c" stroke-linecap="round" stroke-miterlimit="10" stroke-width="2" fill="none"/>
			<line stroke-linejoin="round" y2="192.9" fill="none" x2="414.3" stroke="#5e506c" stroke-linecap="round" stroke-miterlimit="10" y1="192.9" x1="384.8" stroke-width="2"/>
			<path opacity="0.5" stroke-linejoin="round" d="m396.2,207.1-2.6-5.1c-0.2-0.3-0.6-0.3-0.8,0l-2.6,5.1" stroke="#FFF" stroke-linecap="round" stroke-miterlimit="10" stroke-width="0.25" fill="none"/>
			<path fill="#f8e9b8" d="m396.2,208.4h-6c-0.4,0-0.7-0.3-0.7-0.7v-1.9c0-0.4,0.3-0.7,0.7-0.7h6c0.4,0,0.7,0.3,0.7,0.7v1.9c0,0.4-0.3,0.7-0.7,0.7z"/>
			<path stroke-linejoin="round" d="m479.9,225v-38.9s-9.8-7.5-25.8-7.5-25.8,7.5-25.8,7.5v38.9" stroke="#FFF" stroke-linecap="round" stroke-miterlimit="10" stroke-width="6" fill="#ab887a"/>
			<rect stroke-linejoin="round" height="15" width="11.3" stroke="#5e506c" stroke-linecap="round" stroke-miterlimit="10" y="221" x="373.4" stroke-width="2" fill="#FFF"/>
			<line stroke-linejoin="round" y2="174.2" fill="none" x2="507.6" stroke="#5e506c" stroke-linecap="round" stroke-miterlimit="10" y1="236" x1="507.6" stroke-width="2"/>
			<polygon stroke-linejoin="round" stroke-linecap="round" stroke="#5e506c" points="512.8,162.5,511.7,173.5,503.6,173.5,502.5,162.5" stroke-miterlimit="10" stroke-width="1.5" fill="none"/>
			<line stroke-linejoin="round" y2="162.5" fill="none" x2="501.3" stroke="#5e506c" stroke-linecap="round" stroke-miterlimit="10" y1="162.5" x1="514" stroke-width="1.5"/>
			<path stroke-linejoin="round" d="m502.5,162.5s1.3-2.6,5.1-2.6,5.1,2.6,5.1,2.6" stroke="#5e506c" stroke-linecap="round" stroke-miterlimit="10" stroke-width="1.5" fill="none"/>
			<line stroke-linejoin="round" y2="157.8" fill="none" x2="507.6" stroke="#5e506c" stroke-linecap="round" stroke-miterlimit="10" y1="159.9" x1="507.6" stroke-width="1.5"/>
			<circle stroke-linejoin="round" d="m 508.70001,234.3 c 0,0.60752 -0.49249,1.1 -1.1,1.1 -0.60752,0 -1.1,-0.49248 -1.1,-1.1 0,-0.60751 0.49248,-1.1 1.1,-1.1 0.60751,0 1.1,0.49249 1.1,1.1 z" cx="507.6" stroke-linecap="round" stroke="#5e506c" cy="234.3" r="1.1" stroke-miterlimit="10" stroke-width="4" fill="none"/>
			<line stroke-linejoin="round" y2="217.2" fill="none" x2="507.6" stroke="#5e506c" stroke-linecap="round" stroke-miterlimit="10" y1="233.2" x1="507.6" stroke-width="4"/>
			<rect height="16.6" width="10.6" y="175" x="361.1" fill="#aae0e1"/>
			<rect height="16.6" width="10.6" stroke="#9581a8" stroke-miterlimit="10" y="175" x="361.1" fill="none"/>
			<line stroke-linejoin="round" y2="175" fill="none" x2="359.2" stroke="#5e506c" stroke-linecap="round" stroke-miterlimit="10" y1="175" x1="375" stroke-width="2"/>
			<circle stroke-linejoin="round" d="m 358.6,175 c 0,0.60751 -0.49249,1.1 -1.1,1.1 -0.60751,0 -1.1,-0.49249 -1.1,-1.1 0,-0.60751 0.49249,-1.1 1.1,-1.1 0.60751,0 1.1,0.49249 1.1,1.1 z" cx="357.5" stroke-linecap="round" stroke="#5e506c" cy="175" r="1.1" stroke-miterlimit="10" stroke-width="2" fill="none"/>
			<g fill="#FFF">
				<path opacity="0.75" d="m370.7,183.5c0,0.4-0.2,0.7-0.6,0.8l-7.3,0.8c-0.4,0-0.7-0.2-0.8-0.6,0-0.4,0.2-0.7,0.6-0.8l7.3-0.8c0.4,0,0.8,0.2,0.8,0.6z"/>
				<path opacity="0.75" d="m367.6,182.3c0,0.2-0.1,0.3-0.2,0.3l-2.3,0.3c-0.2,0-0.3-0.1-0.3-0.2,0-0.2,0.1-0.3,0.2-0.3l2.3-0.3c0.2-0.1,0.3,0,0.3,0.2z"/>
				<g opacity="0.75">
					<circle d="m 366.40001,185.7 c 0,0.11045 -0.0895,0.2 -0.2,0.2 -0.11045,0 -0.2,-0.0896 -0.2,-0.2 0,-0.11046 0.0896,-0.2 0.2,-0.2 0.11046,0 0.2,0.0895 0.2,0.2 z" cx="366.2" cy="185.7" r="0.2"/>
					<circle d="m 367.2,185.60001 c 0,0.11045 -0.0895,0.2 -0.2,0.2 -0.11046,0 -0.2,-0.0895 -0.2,-0.2 0,-0.11046 0.0895,-0.2 0.2,-0.2 0.11046,0 0.2,0.0895 0.2,0.2 z" cx="367" cy="185.6" r="0.2"/>
				</g>
				<g>
					<path opacity="0.75" d="m363.8,183.3c0.3-1.2,1.4-2,2.6-2,1,0,1.9,0.6,2.4,1.4h0.4c-0.5-1.1-1.6-1.8-2.8-1.8-1.5,0-2.8,1.1-3.1,2.5l0.5-0.1z"/>
					<path opacity="0.75" d="m369.1,184.7c-0.3,1.2-1.4,2.1-2.7,2.1-1.1,0-2-0.6-2.4-1.5h-0.4c0.5,1.1,1.6,1.9,2.9,1.9,1.5,0,2.8-1.1,3.1-2.5h-0.5z"/>
				</g>
			</g>
			<polygon stroke-linejoin="round" stroke-linecap="round" stroke="#5e506c" points="414.3,236,414.3,221,428.2,221,428.2,225,479.9,225,479.9,221,491.2,221,491.2,236" stroke-miterlimit="10" stroke-width="2" fill="#FFF"/>
			<rect stroke-linejoin="round" height="15.3" width="115.7" stroke="#5e506c" stroke-linecap="round" stroke-miterlimit="10" y="146" x="375.5" stroke-width="2" fill="#f8ecc4"/>
			<rect height="17.3" width="4.6" y="144" x="375.5" fill="#f3ce9d"/>
			<rect stroke-linejoin="round" height="17.3" width="4.6" stroke="#5e506c" stroke-linecap="round" stroke-miterlimit="10" y="144" x="486.7" stroke-width="2" fill="#FFF"/>
			<rect stroke-linejoin="round" height="17.3" width="4.6" stroke="#5e506c" stroke-linecap="round" stroke-miterlimit="10" y="144" x="375.5" stroke-width="2" fill="none"/>
			<rect stroke-linejoin="round" height="17.3" width="4.6" stroke="#5e506c" stroke-linecap="round" stroke-miterlimit="10" y="144" x="486.7" stroke-width="2" fill="none"/>
			<path opacity="0.85" fill="url(#linearGradient7348)" d="m479.9,186.1s-9.8-7.5-25.8-7.5-25.8,7.5-25.8,7.5v38.9h51.7v-38.9z"/>
			<path stroke-linejoin="round" d="m479.9,186.1s-9.8-7.5-25.8-7.5-25.8,7.5-25.8,7.5v38.9h51.7v-38.9z" stroke="#5e506c" stroke-linecap="round" stroke-miterlimit="10" stroke-width="2" fill="none"/>
			<g>
				<path opacity="0.3" d="m483,186.7h-58c-0.3,0-0.5,0.2-0.5,0.5v17.3c0,2.3,1.9,4.2,4.2,4.2,1.2,0,2.4-0.6,3.2-1.5,0.8,0.9,1.9,1.5,3.2,1.5,1.2,0,2.4-0.6,3.2-1.5,0.8,0.9,1.9,1.5,3.2,1.5,1.2,0,2.4-0.6,3.2-1.5,0.8,0.9,1.9,1.5,3.2,1.5,1.2,0,2.4-0.6,3.2-1.5,0.8,0.9,1.9,1.5,3.2,1.5,1.2,0,2.4-0.6,3.2-1.5,0.8,0.9,1.9,1.5,3.2,1.5,1.2,0,2.4-0.6,3.2-1.5,0.8,0.9,1.9,1.5,3.2,1.5,1.2,0,2.4-0.6,3.2-1.5,0.8,0.9,1.9,1.5,3.2,1.5,1.2,0,2.4-0.6,3.2-1.5,0.8,0.9,1.9,1.5,3.2,1.5,2.3,0,4.2-1.9,4.2-4.2v-17.3c-0.6-0.3-0.8-0.5-1.1-0.5z"/>
				<g>
					<path fill="#fc7c7b" d="m479.3,193.8c-1.4,0-2.5-1.3-3.2-0.2-0.6-1.1-1.8,0.2-3.2,0.2s-2.5-1.3-3.2-0.2c-0.6-1.1-1.8,0.2-3.2,0.2s-2.5-1.3-3.2-0.2c-0.6-1.1-1.8,0.2-3.2,0.2s-2.5-1.3-3.2-0.2c-0.6-1.1-1.8,0.2-3.2,0.2s-2.5-1.3-3.2-0.2c-0.6-1.1-1.8,0.2-3.2,0.2s-2.5-1.3-3.2-0.2c-0.6-1.1-1.8,0.2-3.2,0.2s-2.5-1.3-3.2-0.2c-0.6-1.1-1.8,0.2-3.2,0.2s-2.5-1.3-3.2-0.2c-0.6-1.1-1.8,0.2-3.2,0.2-2,0-3.7-0.4-3.7,1.7,0,2,1.6,3.7,3.7,3.7,1.4,0,2.5-0.8,3.2-1.8,0.6,1.1,1.8,1.8,3.2,1.8s2.5-0.8,3.2-1.8c0.6,1.1,1.8,1.8,3.2,1.8s2.5-0.8,3.2-1.8c0.6,1.1,1.8,1.8,3.2,1.8s2.5-0.8,3.2-1.8c0.6,1.1,1.8,1.8,3.2,1.8s2.5-0.8,3.2-1.8c0.6,1.1,1.8,1.8,3.2,1.8s2.5-0.8,3.2-1.8c0.6,1.1,1.8,1.8,3.2,1.8s2.5-0.8,3.2-1.8c0.6,1.1,1.8,1.8,3.2,1.8s2.5-0.8,3.2-1.8c0.6,1.1,1.8,1.8,3.2,1.8,2,0,3.7-1.6,3.7-3.7s-1.6-1.7-3.7-1.7z"/>
					<rect height="17.7" width="58" y="176.3" x="424.6" fill="#ff9d9b"/>
				</g>
				<path stroke-linejoin="round" d="m425,176.2v19.3c0,2,1.6,3.7,3.7,3.7,1.4,0,2.5-0.8,3.2-1.8,0.6,1.1,1.8,1.8,3.2,1.8s2.5-0.8,3.2-1.8c0.6,1.1,1.8,1.8,3.2,1.8s2.5-0.8,3.2-1.8c0.6,1.1,1.8,1.8,3.2,1.8s2.5-0.8,3.2-1.8c0.6,1.1,1.8,1.8,3.2,1.8s2.5-0.8,3.2-1.8c0.6,1.1,1.8,1.8,3.2,1.8s2.5-0.8,3.2-1.8c0.6,1.1,1.8,1.8,3.2,1.8s2.5-0.8,3.2-1.8c0.6,1.1,1.8,1.8,3.2,1.8s2.5-0.8,3.2-1.8c0.6,1.1,1.8,1.8,3.2,1.8,2,0,3.7-1.6,3.7-3.7v-19.3h-58.6z" stroke="#5e506c" stroke-linecap="round" stroke-miterlimit="10" stroke-width="1.5" fill="none"/>
				<g fill="#FFF">
					<path opacity="0.5" d="m462.9,184.7c0.1,0.7-0.5,1.3-1.3,1.4l-15.7,1.5c-0.8,0.1-1.6-0.4-1.6-1.1-0.1-0.7,0.5-1.3,1.3-1.4l15.7-1.5c0.8,0,1.5,0.5,1.6,1.1z"/>
					<path opacity="0.5" d="m456.2,182.5c0,0.3-0.2,0.5-0.5,0.5l-4.9,0.5c-0.3,0-0.6-0.2-0.7-0.4,0-0.3,0.2-0.5,0.5-0.6l4.9-0.5c0.4,0,0.7,0.2,0.7,0.5z"/>
					<g opacity="0.5">
						<path d="m453.5,188.6c0,0.2-0.1,0.4-0.4,0.4-0.2,0-0.5-0.1-0.5-0.3s0.1-0.4,0.4-0.4,0.5,0.1,0.5,0.3z"/>
						<path d="m455.3,188.5c0,0.2-0.1,0.4-0.4,0.4-0.2,0-0.5-0.1-0.5-0.3s0.1-0.4,0.4-0.4c0.2-0.1,0.5,0.1,0.5,0.3z"/>
					</g>
					<g>
						<path opacity="0.5" d="m447.9,184.4c0.7-2.1,3-3.6,5.7-3.6,2.2,0,4.2,1,5.2,2.6l0.9-0.1c-1.1-1.9-3.4-3.2-6.1-3.2-3.2,0-6,1.9-6.6,4.4l0.9-0.1z"/>
						<path opacity="0.5" d="m459.3,186.9c-0.6,2.2-3,3.8-5.7,3.8-2.3,0-4.3-1.1-5.3-2.7l-0.9,0.1c1.1,2,3.4,3.4,6.2,3.4,3.3,0,6.1-2,6.7-4.6h-1z"/>
					</g>
				</g>
			</g>
			<rect opacity="0.3" height="5.4" width="115.7" y="168.5" x="375.5"/>
			<rect stroke-linejoin="round" height="6.2" width="119.8" stroke="#5e506c" stroke-linecap="round" stroke-miterlimit="10" y="161.3" x="373.4" stroke-width="2" fill="#abdaed"/>
			<g>
				<polygon stroke-linejoin="round" stroke-linecap="round" stroke="#5e506c" points="348.9,229.5,351.4,211.4,363.7,211.4,361.3,229.5" stroke-miterlimit="10" stroke-width="2" fill="#ab887a"/>
				<line stroke-linejoin="round" y2="235.4" fill="none" x2="348.1" stroke="#5e506c" stroke-linecap="round" stroke-miterlimit="10" y1="229.5" x1="348.9" stroke-width="2"/>
				<line stroke-linejoin="round" y2="236" fill="none" x2="360.4" stroke="#5e506c" stroke-linecap="round" stroke-miterlimit="10" y1="229.5" x1="361.3" stroke-width="2"/>
				<polygon points="366.2,229.5,363.8,211.4,351.4,211.4,353.9,229.5" fill="#f8e9b8"/>
				<line stroke-linejoin="round" y2="235.4" fill="none" x2="367" stroke="#5e506c" stroke-linecap="round" stroke-miterlimit="10" y1="229.5" x1="366.2" stroke-width="2"/>
				<line stroke-linejoin="round" y2="236" fill="none" x2="354.7" stroke="#5e506c" stroke-linecap="round" stroke-miterlimit="10" y1="229.5" x1="353.9" stroke-width="2"/>
				<polygon stroke-linejoin="round" stroke-linecap="round" stroke="#5e506c" points="366.2,229.5,363.8,211.4,351.4,211.4,353.9,229.5" stroke-miterlimit="10" stroke-width="2" fill="none"/>
			</g>
			<polyline stroke-linejoin="round" stroke-linecap="round" stroke="#5e506c" points="491.2,221,491.2,167.5,375.5,167.5,375.5,220.8" stroke-miterlimit="10" stroke-width="2" fill="none"/>
			<line stroke-linejoin="round" y2="236" fill="none" x2="339.2" stroke="#5e506c" stroke-linecap="round" stroke-miterlimit="10" y1="236" x1="520.8" stroke-width="3"/>
		</g>
	</g>
</svg>
