<?xml version="1.0" encoding="UTF-8" standalone="no"?>
<svg width="146px" height="36px" viewBox="0 0 146 36" version="1.1" xmlns="http://www.w3.org/2000/svg" xmlns:xlink="http://www.w3.org/1999/xlink" xmlns:sketch="http://www.bohemiancoding.com/sketch/ns">
    <!-- Generator: Sketch 3.3.2 (12043) - http://www.bohemiancoding.com/sketch -->
    <title>logo-color</title>
    <desc>Created with Sketch.</desc>
    <defs></defs>
    <g id="Page-1" stroke="none" stroke-width="1" fill="none" fill-rule="evenodd" sketch:type="MSPage">
        <g id="Desktop-HD" sketch:type="MSArtboardGroup" transform="translate(-177.000000, -214.000000)">
            <g id="logo-color" sketch:type="MSLayerGroup" transform="translate(163.000000, 206.000000)">
                <g id="Page-1" sketch:type="MSShapeGroup">
                    <g id="Button-1">
                        <g id="Imported-Layers-3-+-Aplaza-tu-compra-+-Fill-1-path-2" transform="translate(14.383562, 8.431818)">
                            <g id="Imported-Layers-3-+-Aplaza-tu-compra" transform="translate(27.568493, 4.818182)">
                                <path d="M15.3039477,1.64644011 C15.3039477,1.48970987 15.4287198,1.34873625 15.6003129,1.34873625 L19.3604793,1.34873625 C21.2796137,1.34873625 22.8553851,2.91540532 22.8553851,4.81121546 C22.8553851,6.75394083 21.2796137,8.3363918 19.3760948,8.3363918 L17.7378868,8.3363918 L17.7378868,12.0181971 C17.7378868,12.1749274 17.5974236,12.315901 17.4414205,12.315901 L15.6003129,12.315901 C15.4287198,12.315901 15.3039477,12.1749274 15.3039477,12.0181971 L15.3039477,1.64644011 L15.3039477,1.64644011 Z M19.2200918,6.04894608 C19.8909753,6.04894608 20.4526768,5.51623554 20.4526768,4.81121546 C20.4526768,4.15321193 19.8909753,3.65186264 19.2200918,3.65186264 L17.7378868,3.65186264 L17.7378868,6.04894608 L19.2200918,6.04894608 L19.2200918,6.04894608 Z M27.4613582,1.64644011 C27.4613582,1.48970987 27.5861303,1.34873625 27.7577234,1.34873625 L29.6144466,1.34873625 C29.7704496,1.34873625 29.9109127,1.48970987 29.9109127,1.64644011 L29.9109127,10.0127746 L33.6242329,10.0127746 C33.7958261,10.0127746 33.9206991,10.1538242 33.9206991,10.3104532 L33.9206991,12.0181971 C33.9206991,12.1749274 33.7958261,12.315901 33.6242329,12.315901 L27.7577234,12.315901 C27.5861303,12.315901 27.4613582,12.1749274 27.4613582,12.0181971 L27.4613582,1.64644011 L27.4613582,1.64644011 Z M51.2257793,11.7361739 L55.3759279,3.68312256 L55.3759279,3.65186264 L51.9746896,3.65186264 C51.8186109,3.65186264 51.6782233,3.51081302 51.6782233,3.35415878 L51.6782233,1.64644011 C51.6782233,1.48970987 51.8186109,1.34873625 51.9746896,1.34873625 L58.6055984,1.34873625 C58.7616014,1.34873625 58.9020647,1.48970987 58.9020647,1.64644011 L58.9020647,1.85008555 L54.8922783,9.98141339 L54.8922783,10.0127746 L58.293542,10.0127746 C58.4652109,10.0127746 58.589983,10.1538242 58.589983,10.3104532 L58.589983,12.0181971 C58.589983,12.1749274 58.4652109,12.315901 58.293542,12.315901 L51.5221446,12.315901 C51.3661417,12.315901 51.2257793,12.1749274 51.2257793,12.0181971 L51.2257793,11.7361739 L51.2257793,11.7361739 Z M92.4156122,1.64644011 C92.4156122,1.48970987 92.5403848,1.34873625 92.7119783,1.34873625 L99.17142,1.34873625 C99.3429872,1.34873625 99.4677849,1.48970987 99.4677849,1.64644011 L99.4677849,3.35415878 C99.4677849,3.51081302 99.3429872,3.65186264 99.17142,3.65186264 L94.8495517,3.65186264 L94.8495517,5.594588 L98.4068942,5.594588 C98.5628719,5.594588 98.7032591,5.73556161 98.7032591,5.89229185 L98.7032591,7.60003582 C98.7032591,7.77234533 98.5628719,7.89771442 98.4068942,7.89771442 L94.8495517,7.89771442 L94.8495517,10.0127746 L99.17142,10.0127746 C99.3429872,10.0127746 99.4677849,10.1538242 99.4677849,10.3104532 L99.4677849,12.0181971 C99.4677849,12.1749274 99.3429872,12.315901 99.17142,12.315901 L92.7119783,12.315901 C92.5403848,12.315901 92.4156122,12.1749274 92.4156122,12.0181971 L92.4156122,1.64644011 L92.4156122,1.64644011 Z M11.0930274,11.9085847 L6.34207563,1.51481407 C6.34197471,1.51463675 6.34177286,1.51448476 6.34167193,1.51430742 C6.26566344,1.32543065 6.08163332,1.19200603 5.86629678,1.19200603 C5.6436444,1.19200603 5.45466981,1.33475289 5.38378235,1.53386387 C5.38209216,1.53578912 5.38020012,1.53771437 5.37921628,1.53971561 L0.639515565,11.9085847 C0.545974349,12.1122302 0.670746473,12.315901 0.90477625,12.315901 L2.62101084,12.315901 C2.93309253,12.315901 3.10468567,12.1279109 3.18271241,11.9398193 L5.85860253,5.9876422 L5.85068139,5.9705683 L5.86627149,5.9705683 L7.05211116,8.55571785 L6.34083949,7.02524854 L7.98823003,10.6865348 L8.54993161,11.9242401 C8.69031913,12.2218425 8.81519217,12.315901 9.09594204,12.315901 L10.8277921,12.315901 C11.0618218,12.315901 11.1866696,12.1122302 11.0930274,11.9085847 L11.0930274,11.9085847 L11.0930274,11.9085847 Z M5.85860253,5.9876422 L6.34083949,7.02524854 L5.86627149,5.9705683 L5.85860253,5.9876422 L5.85860253,5.9876422 Z M47.9220931,11.9085847 L43.1711414,1.51481407 C43.1710656,1.51463675 43.1708386,1.51448476 43.1707377,1.51430742 C43.0947292,1.32543065 42.910699,1.19200603 42.6953625,1.19200603 C42.4727101,1.19200603 42.2837357,1.33475289 42.2128734,1.53386387 C42.2111327,1.53578912 42.2092658,1.53771437 42.208282,1.53971561 L37.4685814,11.9085847 C37.3750401,12.1122302 37.4998122,12.315901 37.733842,12.315901 L39.4500766,12.315901 C39.7621583,12.315901 39.9337514,12.1279109 40.0117781,11.9398193 L42.6876683,5.9876422 L42.6797218,5.9705683 L42.6953373,5.9705683 L43.8811769,8.55571785 L43.1699052,7.02524854 L44.8172958,10.6865348 L45.3789973,11.9242401 C45.5193848,12.2218425 45.6442579,12.315901 45.9250078,12.315901 L47.6568579,12.315901 C47.8908623,12.315901 48.0157354,12.1122302 47.9220931,11.9085847 L47.9220931,11.9085847 L47.9220931,11.9085847 Z M42.6876683,5.9876422 L43.1699052,7.02524854 L42.6953373,5.9705683 L42.6876683,5.9876422 L42.6876683,5.9876422 Z M62.3095089,11.9085847 L67.0604859,1.51481407 C67.0605617,1.51463675 67.0607887,1.51448476 67.0608643,1.51433276 C67.1368729,1.32543065 67.3209029,1.19200603 67.5362648,1.19200603 C67.7589172,1.19200603 67.9478665,1.33475289 68.0187539,1.53386387 C68.0204694,1.53578912 68.0223361,1.53771437 68.02332,1.53971561 L72.7630207,11.9085847 C72.8565619,12.1122302 72.7318151,12.315901 72.4977853,12.315901 L70.7815254,12.315901 C70.469469,12.315901 70.2978759,12.1279109 70.2198239,11.9398193 L67.5439337,5.9876422 L67.5518802,5.9705683 L67.5362648,5.9705683 L66.3504251,8.55571785 L67.0617221,7.02524854 L65.4143064,10.6865348 L64.8526299,11.9242401 C64.7122424,12.2218425 64.5873694,12.315901 64.3066195,12.315901 L62.5747694,12.315901 C62.3407398,12.315901 62.2158667,12.1122302 62.3095089,11.9085847 L62.3095089,11.9085847 L62.3095089,11.9085847 Z M67.5439337,5.9876422 L67.0617221,7.02524854 L67.5362648,5.9705683 L67.5439337,5.9876422 L67.5439337,5.9876422 Z M88.5583229,11.9711553 L86.8330318,1.65718096 C86.8319219,1.64712407 86.8289451,1.63868846 86.8250098,1.6310888 C86.7826286,1.37941353 86.5651224,1.18754756 86.3024351,1.18754756 C86.0845758,1.18754756 85.897569,1.31950291 85.8158591,1.50807571 C85.8157582,1.5083037 85.8155816,1.50840503 85.8154807,1.50863301 L82.379858,8.11706576 L82.3486524,8.11706576 L78.9177472,1.50863301 C78.9169146,1.50698643 78.9153758,1.50599847 78.914392,1.50450387 C78.8318497,1.31788165 78.6460033,1.18754756 78.4295567,1.18754756 C78.1825352,1.18754756 77.9755486,1.35729854 77.916442,1.58678282 C77.9074866,1.60654191 77.9011799,1.62665568 77.8989599,1.6468201 L76.1700613,11.9711553 C76.1388557,12.1749274 76.279319,12.315901 76.4665275,12.315901 L78.3076352,12.315901 C78.463613,12.315901 78.588486,12.1906079 78.6040763,12.0652137 L79.2905751,7.22395422 L79.3217807,7.22395422 L81.9585188,12.3002204 C82.0053399,12.3942534 82.1301121,12.4725299 82.2237542,12.4725299 L82.5046302,12.4725299 C82.5826569,12.4725299 82.7230444,12.3942534 82.7698655,12.3002204 L85.3909881,7.22395422 L85.422219,7.22395422 L86.1242829,12.0652137 C86.1398983,12.1906079 86.2803868,12.315901 86.4207491,12.315901 L88.2618567,12.315901 C88.4490654,12.315901 88.5895287,12.1749274 88.5583229,11.9711553 L88.5583229,11.9711553 L88.5583229,11.9711553 Z" id="Fill-1" fill="#3F474D"></path>
                                <path d="M6.77705479,24.0210455 L5.18167808,20.3110455 L3.5994863,24.0210455 L6.77705479,24.0210455 Z M4.45650685,18.3632955 L5.95958904,18.3632955 L10.0205479,27.7045455 L8.30650685,27.7045455 L7.37037671,25.4652955 L3.00616438,25.4652955 L2.05684932,27.7045455 L0.395547945,27.7045455 L4.45650685,18.3632955 Z M15.0044521,26.4590455 C15.276942,26.4590455 15.5340456,26.406046 15.7757705,26.3000455 C16.0174955,26.1940449 16.2284523,26.0460881 16.4086473,25.8561705 C16.5888422,25.6662528 16.7316776,25.4321718 16.8371575,25.1539205 C16.9426375,24.8756691 16.9953767,24.5642972 16.9953767,24.2197955 L16.9953767,24.1932955 C16.9953767,23.8576271 16.9426375,23.5506718 16.8371575,23.2724205 C16.7316776,22.9941691 16.5888422,22.7578798 16.4086473,22.5635455 C16.2284523,22.3692111 16.0174955,22.219046 15.7757705,22.1130455 C15.5340456,22.0070449 15.276942,21.9540455 15.0044521,21.9540455 C14.7319621,21.9540455 14.472661,22.0070449 14.2265411,22.1130455 C13.9804211,22.219046 13.7650694,22.3714195 13.5804795,22.5701705 C13.3958895,22.7689214 13.2486592,23.0052108 13.1387842,23.2790455 C13.0289093,23.5528802 12.9739726,23.8576271 12.9739726,24.1932955 L12.9739726,24.2197955 C12.9739726,24.5554638 13.0289093,24.8624191 13.1387842,25.1406705 C13.2486592,25.4189218 13.3958895,25.6552111 13.5804795,25.8495455 C13.7650694,26.0438798 13.9804211,26.1940449 14.2265411,26.3000455 C14.472661,26.406046 14.7319621,26.4590455 15.0044521,26.4590455 L15.0044521,26.4590455 Z M11.4181507,20.7085455 L13.0135274,20.7085455 L13.0135274,21.8745455 C13.2684373,21.5035436 13.5848725,21.1921717 13.9628425,20.9404205 C14.3408124,20.6886692 14.8110702,20.5627955 15.3736301,20.5627955 C15.7867601,20.5627955 16.186699,20.6422947 16.5734589,20.8012955 C16.9602188,20.9602962 17.3052211,21.1943772 17.608476,21.5035455 C17.911731,21.8127137 18.1556498,22.1925432 18.3402397,22.6430455 C18.5248297,23.0935477 18.6171233,23.6102925 18.6171233,24.1932955 L18.6171233,24.2197955 C18.6171233,24.8027984 18.5270272,25.3195432 18.3468322,25.7700455 C18.1666372,26.2205477 17.9249159,26.6003772 17.621661,26.9095455 C17.318406,27.2187137 16.9712063,27.4527947 16.5800514,27.6117955 C16.1888964,27.7707962 15.7867601,27.8502955 15.3736301,27.8502955 C14.8022802,27.8502955 14.3276275,27.72663 13.9496575,27.4792955 C13.5716876,27.2319609 13.2596473,26.9448804 13.0135274,26.6180455 L13.0135274,29.8245455 L11.4181507,29.8245455 L11.4181507,20.7085455 Z M20.3443493,18.0320455 L21.939726,18.0320455 L21.939726,27.7045455 L20.3443493,27.7045455 L20.3443493,18.0320455 Z M28.3212329,24.7762955 C28.1190629,24.6967951 27.8795391,24.6305457 27.6026541,24.5775455 C27.3257692,24.5245452 27.0335061,24.4980455 26.7258562,24.4980455 C26.2248263,24.4980455 25.8336772,24.5952111 25.5523973,24.7895455 C25.2711173,24.9838798 25.1304795,25.2488771 25.1304795,25.5845455 L25.1304795,25.6110455 C25.1304795,25.9467138 25.26013,26.2028779 25.5194349,26.3795455 C25.7787399,26.556213 26.0973725,26.6445455 26.4753425,26.6445455 C26.7390424,26.6445455 26.9829612,26.6092125 27.2071062,26.5385455 C27.4312511,26.4678784 27.6268256,26.3685044 27.7938356,26.2404205 C27.9608456,26.1123365 28.0904961,25.9577547 28.1827911,25.7766705 C28.2750861,25.5955862 28.3212329,25.3946299 28.3212329,25.1737955 L28.3212329,24.7762955 Z M28.2816781,27.7045455 L28.2816781,26.8432955 C28.0443481,27.1259635 27.7410977,27.3644611 27.3719178,27.5587955 C27.0027379,27.7531298 26.5544547,27.8502955 26.0270548,27.8502955 C25.6930349,27.8502955 25.3765997,27.8039209 25.0777397,27.7111705 C24.7788798,27.61842 24.5173813,27.4815047 24.2932363,27.3004205 C24.0690913,27.1193362 23.8888991,26.8940885 23.7526541,26.6246705 C23.6164091,26.3552524 23.5482877,26.0438806 23.5482877,25.6905455 L23.5482877,25.6640455 C23.5482877,25.2753768 23.6186066,24.9375052 23.7592466,24.6504205 C23.8998865,24.3633357 24.0954611,24.1248381 24.345976,23.9349205 C24.596491,23.7450028 24.8953464,23.6036709 25.2425514,23.5109205 C25.5897563,23.41817 25.9655231,23.3717955 26.369863,23.3717955 C26.7917829,23.3717955 27.14997,23.3982952 27.4444349,23.4512955 C27.7388999,23.5042957 28.0223731,23.5749617 28.294863,23.6632955 L28.294863,23.5307955 C28.294863,23.0449597 28.1476328,22.6739634 27.8531678,22.4177955 C27.5587029,22.1616275 27.1345918,22.0335455 26.5808219,22.0335455 C26.185272,22.0335455 25.8336773,22.0732951 25.5260274,22.1527955 C25.2183775,22.2322959 24.9063372,22.3382948 24.5898973,22.4707955 L24.1547945,21.1855455 C24.5415544,21.0088779 24.9370984,20.867546 25.3414384,20.7615455 C25.7457783,20.6555449 26.2336159,20.6025455 26.8049658,20.6025455 C27.8421856,20.6025455 28.6112989,20.8609179 29.1123288,21.3776705 C29.6133587,21.894423 29.8638699,22.6209574 29.8638699,23.5572955 L29.8638699,27.7045455 L28.2816781,27.7045455 Z M31.4460616,26.6047955 L35.4674658,22.0202955 L31.5910959,22.0202955 L31.5910959,20.7085455 L37.4979452,20.7085455 L37.4979452,21.8082955 L33.4765411,26.3927955 L37.4979452,26.3927955 L37.4979452,27.7045455 L31.4460616,27.7045455 L31.4460616,26.6047955 Z M43.4443493,24.7762955 C43.2421794,24.6967951 43.0026555,24.6305457 42.7257705,24.5775455 C42.4488856,24.5245452 42.1566225,24.4980455 41.8489726,24.4980455 C41.3479427,24.4980455 40.9567936,24.5952111 40.6755137,24.7895455 C40.3942338,24.9838798 40.2535959,25.2488771 40.2535959,25.5845455 L40.2535959,25.6110455 C40.2535959,25.9467138 40.3832464,26.2028779 40.6425514,26.3795455 C40.9018563,26.556213 41.220489,26.6445455 41.5984589,26.6445455 C41.8621589,26.6445455 42.1060776,26.6092125 42.3302226,26.5385455 C42.5543676,26.4678784 42.7499421,26.3685044 42.9169521,26.2404205 C43.083962,26.1123365 43.2136126,25.9577547 43.3059075,25.7766705 C43.3982025,25.5955862 43.4443493,25.3946299 43.4443493,25.1737955 L43.4443493,24.7762955 Z M43.4047945,27.7045455 L43.4047945,26.8432955 C43.1674646,27.1259635 42.8642142,27.3644611 42.4950342,27.5587955 C42.1258543,27.7531298 41.6775711,27.8502955 41.1501712,27.8502955 C40.8161513,27.8502955 40.4997161,27.8039209 40.2008562,27.7111705 C39.9019962,27.61842 39.6404977,27.4815047 39.4163527,27.3004205 C39.1922078,27.1193362 39.0120155,26.8940885 38.8757705,26.6246705 C38.7395256,26.3552524 38.6714041,26.0438806 38.6714041,25.6905455 L38.6714041,25.6640455 C38.6714041,25.2753768 38.741723,24.9375052 38.882363,24.6504205 C39.023003,24.3633357 39.2185775,24.1248381 39.4690925,23.9349205 C39.7196074,23.7450028 40.0184629,23.6036709 40.3656678,23.5109205 C40.7128727,23.41817 41.0886395,23.3717955 41.4929795,23.3717955 C41.9148994,23.3717955 42.2730864,23.3982952 42.5675514,23.4512955 C42.8620163,23.5042957 43.1454895,23.5749617 43.4179795,23.6632955 L43.4179795,23.5307955 C43.4179795,23.0449597 43.2707492,22.6739634 42.9762842,22.4177955 C42.6818193,22.1616275 42.2577082,22.0335455 41.7039384,22.0335455 C41.3083884,22.0335455 40.9567938,22.0732951 40.6491438,22.1527955 C40.3414939,22.2322959 40.0294536,22.3382948 39.7130137,22.4707955 L39.277911,21.1855455 C39.6646709,21.0088779 40.0602149,20.867546 40.4645548,20.7615455 C40.8688947,20.6555449 41.3567323,20.6025455 41.9280822,20.6025455 C42.965302,20.6025455 43.7344153,20.8609179 44.2354452,21.3776705 C44.7364751,21.894423 44.9869863,22.6209574 44.9869863,23.5572955 L44.9869863,27.7045455 L43.4047945,27.7045455 Z M53.1748288,27.8237955 C52.8847588,27.8237955 52.6166679,27.7884625 52.3705479,27.7177955 C52.124428,27.6471284 51.9112737,27.5322962 51.7310788,27.3732955 C51.5508838,27.2142947 51.4124434,27.0045051 51.3157534,26.7439205 C51.2190634,26.4833358 51.1707192,26.1587141 51.1707192,25.7700455 L51.1707192,22.0865455 L50.2873288,22.0865455 L50.2873288,20.7085455 L51.1707192,20.7085455 L51.1707192,18.7872955 L52.7660959,18.7872955 L52.7660959,20.7085455 L54.6383562,20.7085455 L54.6383562,22.0865455 L52.7660959,22.0865455 L52.7660959,25.5182955 C52.7660959,25.8274637 52.8408098,26.0505031 52.9902397,26.1874205 C53.1396697,26.3243378 53.3506265,26.3927955 53.6231164,26.3927955 C53.9659264,26.3927955 54.2955464,26.3132962 54.6119863,26.1542955 L54.6119863,27.4660455 C54.4098163,27.5808794 54.1944646,27.6692118 53.9659247,27.7310455 C53.7373847,27.7928791 53.4736887,27.8237955 53.1748288,27.8237955 L53.1748288,27.8237955 Z M58.6465753,27.8502955 C57.8554755,27.8502955 57.2445798,27.6073812 56.8138699,27.1215455 C56.3831599,26.6357097 56.1678082,25.9820496 56.1678082,25.1605455 L56.1678082,20.7085455 L57.7631849,20.7085455 L57.7631849,24.6835455 C57.7631849,25.2312149 57.8928355,25.6530023 58.1521404,25.9489205 C58.4114454,26.2448386 58.7784223,26.3927955 59.2530822,26.3927955 C59.7189521,26.3927955 60.0969164,26.240422 60.3869863,25.9356705 C60.6770562,25.6309189 60.822089,25.2047149 60.822089,24.6570455 L60.822089,20.7085455 L62.4174658,20.7085455 L62.4174658,27.7045455 L60.822089,27.7045455 L60.822089,26.6180455 C60.5935491,26.9537138 60.3078784,27.2430026 59.9650685,27.4859205 C59.6222586,27.7288383 59.1827652,27.8502955 58.6465753,27.8502955 L58.6465753,27.8502955 Z M71.5941781,27.8635455 C71.0755682,27.8635455 70.5965205,27.7685881 70.1570205,27.5786705 C69.7175206,27.3887528 69.3373589,27.1303804 69.016524,26.8035455 C68.695689,26.4767105 68.4451778,26.0924643 68.2649829,25.6507955 C68.0847879,25.2091266 67.9946918,24.7409646 67.9946918,24.2462955 L67.9946918,24.2197955 C67.9946918,23.7251263 68.0847879,23.254756 68.2649829,22.8086705 C68.4451778,22.3625849 68.695689,21.9739221 69.016524,21.6426705 C69.3373589,21.3114188 69.7197181,21.0486298 70.163613,20.8542955 C70.6075079,20.6599611 71.0887531,20.5627955 71.607363,20.5627955 C72.2666129,20.5627955 72.8137821,20.673211 73.248887,20.8940455 C73.6839919,21.1148799 74.0641536,21.406377 74.3893836,21.7685455 L73.4005137,22.8417955 C73.1543937,22.5856275 72.8928952,22.3758379 72.6160103,22.2124205 C72.3391253,22.049003 71.998518,21.9672955 71.5941781,21.9672955 C71.3041081,21.9672955 71.0360172,22.0269199 70.7898973,22.1461705 C70.5437773,22.2654211 70.3328205,22.4244195 70.1570205,22.6231705 C69.9812206,22.8219214 69.8427802,23.0582108 69.7416952,23.3320455 C69.6406102,23.6058802 69.5900685,23.8929606 69.5900685,24.1932955 L69.5900685,24.2197955 C69.5900685,24.5289637 69.6406102,24.8204608 69.7416952,25.0942955 C69.8427802,25.3681302 69.9856155,25.6066278 70.1702055,25.8097955 C70.3547954,26.0129631 70.5745421,26.1741699 70.8294521,26.2934205 C71.084362,26.4126711 71.3656377,26.4722955 71.6732877,26.4722955 C72.0512576,26.4722955 72.3830751,26.3905879 72.66875,26.2271705 C72.9544249,26.063753 73.2247133,25.8539634 73.4796233,25.5977955 L74.4421233,26.5517955 C74.0993134,26.9404641 73.7081643,27.2562526 73.2686644,27.4991705 C72.8291645,27.7420883 72.271008,27.8635455 71.5941781,27.8635455 L71.5941781,27.8635455 Z M79.2414384,26.4722955 C79.5666683,26.4722955 79.8589314,26.4126711 80.1182363,26.2934205 C80.3775413,26.1741699 80.5994854,26.0129631 80.7840753,25.8097955 C80.9686653,25.6066278 81.1093032,25.3703385 81.2059932,25.1009205 C81.3026831,24.8315024 81.3510274,24.5466303 81.3510274,24.2462955 L81.3510274,24.2197955 C81.3510274,23.9106272 81.2982882,23.6191302 81.1928082,23.3452955 C81.0873282,23.0714608 80.940098,22.8329631 80.751113,22.6297955 C80.5621281,22.4266278 80.3379865,22.2654211 80.0786815,22.1461705 C79.8193766,22.0269199 79.5315084,21.9672955 79.2150685,21.9672955 C78.8986286,21.9672955 78.6107604,22.0269199 78.3514555,22.1461705 C78.0921505,22.2654211 77.8702064,22.4244195 77.6856164,22.6231705 C77.5010265,22.8219214 77.3603886,23.0582108 77.2636986,23.3320455 C77.1670086,23.6058802 77.1186644,23.8929606 77.1186644,24.1932955 L77.1186644,24.2197955 C77.1186644,24.5289637 77.1714036,24.8182524 77.2768836,25.0876705 C77.3823635,25.3570885 77.5295938,25.5955861 77.7185788,25.8031705 C77.9075637,26.0107548 78.1317053,26.1741699 78.3910103,26.2934205 C78.6503152,26.4126711 78.9337884,26.4722955 79.2414384,26.4722955 L79.2414384,26.4722955 Z M79.2150685,27.8635455 C78.6876686,27.8635455 78.1976335,27.7685881 77.7449486,27.5786705 C77.2922637,27.3887528 76.9011147,27.1303804 76.5714897,26.8035455 C76.2418648,26.4767105 75.9847612,26.0924643 75.8001712,25.6507955 C75.6155813,25.2091266 75.5232877,24.7409646 75.5232877,24.2462955 L75.5232877,24.2197955 C75.5232877,23.7162929 75.6177787,23.2437143 75.8067637,22.8020455 C75.9957487,22.3603766 76.2550497,21.9739221 76.5846747,21.6426705 C76.9142996,21.3114188 77.3054486,21.0486298 77.7581336,20.8542955 C78.2108185,20.6599611 78.7052485,20.5627955 79.2414384,20.5627955 C79.7776283,20.5627955 80.2720582,20.6577528 80.7247432,20.8476705 C81.1774281,21.0375881 81.5685771,21.2981688 81.8982021,21.6294205 C82.227827,21.9606721 82.4849306,22.3449183 82.6695205,22.7821705 C82.8541105,23.2194226 82.9464041,23.6897929 82.9464041,24.1932955 L82.9464041,24.2197955 C82.9464041,24.7144646 82.851913,25.1826266 82.6629281,25.6242955 C82.4739431,26.0659643 82.2146421,26.4524188 81.8850171,26.7836705 C81.5553922,27.1149221 81.1620457,27.3777111 80.7049658,27.5720455 C80.2478858,27.7663798 79.7512584,27.8635455 79.2150685,27.8635455 L79.2150685,27.8635455 Z M84.5681507,20.7085455 L86.1635274,20.7085455 L86.1635274,21.7685455 C86.2777974,21.6095447 86.4008555,21.4593795 86.5327055,21.3180455 C86.6645555,21.1767114 86.8161806,21.0486294 86.9875856,20.9337955 C87.1589906,20.8189615 87.3523676,20.7284208 87.5677226,20.6621705 C87.7830776,20.5959201 88.0226014,20.5627955 88.2863014,20.5627955 C88.7873313,20.5627955 89.2114423,20.6754193 89.5586473,20.9006705 C89.9058522,21.1259216 90.1717457,21.4240436 90.3563356,21.7950455 C90.6376156,21.4240436 90.969433,21.1259216 91.3517979,20.9006705 C91.7341629,20.6754193 92.1890385,20.5627955 92.7164384,20.5627955 C93.4811682,20.5627955 94.0788791,20.7946681 94.509589,21.2584205 C94.940299,21.7221728 95.1556507,22.3824578 95.1556507,23.2392955 L95.1556507,27.7045455 L93.560274,27.7045455 L93.560274,23.7295455 C93.560274,23.1730427 93.4372158,22.7490469 93.1910959,22.4575455 C92.9449759,22.166044 92.5977762,22.0202955 92.1494863,22.0202955 C91.7099864,22.0202955 91.3517993,22.1682523 91.0749144,22.4641705 C90.7980294,22.7600886 90.659589,23.1907093 90.659589,23.7560455 L90.659589,27.7045455 L89.0642123,27.7045455 L89.0642123,23.7162955 C89.0642123,23.168626 88.9411542,22.7490469 88.6950342,22.4575455 C88.4489143,22.166044 88.1017146,22.0202955 87.6534247,22.0202955 C87.2051347,22.0202955 86.8447502,22.1748772 86.5722603,22.4840455 C86.2997703,22.7932137 86.1635274,23.221626 86.1635274,23.7692955 L86.1635274,27.7045455 L84.5681507,27.7045455 L84.5681507,20.7085455 Z M100.680137,26.4590455 C100.952627,26.4590455 101.209731,26.406046 101.451455,26.3000455 C101.69318,26.1940449 101.904137,26.0460881 102.084332,25.8561705 C102.264527,25.6662528 102.407362,25.4321718 102.512842,25.1539205 C102.618322,24.8756691 102.671062,24.5642972 102.671062,24.2197955 L102.671062,24.1932955 C102.671062,23.8576271 102.618322,23.5506718 102.512842,23.2724205 C102.407362,22.9941691 102.264527,22.7578798 102.084332,22.5635455 C101.904137,22.3692111 101.69318,22.219046 101.451455,22.1130455 C101.209731,22.0070449 100.952627,21.9540455 100.680137,21.9540455 C100.407647,21.9540455 100.148346,22.0070449 99.902226,22.1130455 C99.6561061,22.219046 99.4407543,22.3714195 99.2561644,22.5701705 C99.0715744,22.7689214 98.9243442,23.0052108 98.8144692,23.2790455 C98.7045942,23.5528802 98.6496575,23.8576271 98.6496575,24.1932955 L98.6496575,24.2197955 C98.6496575,24.5554638 98.7045942,24.8624191 98.8144692,25.1406705 C98.9243442,25.4189218 99.0715744,25.6552111 99.2561644,25.8495455 C99.4407543,26.0438798 99.6561061,26.1940449 99.902226,26.3000455 C100.148346,26.406046 100.407647,26.4590455 100.680137,26.4590455 L100.680137,26.4590455 Z M97.0938356,20.7085455 L98.6892123,20.7085455 L98.6892123,21.8745455 C98.9441223,21.5035436 99.2605575,21.1921717 99.6385274,20.9404205 C100.016497,20.6886692 100.486755,20.5627955 101.049315,20.5627955 C101.462445,20.5627955 101.862384,20.6422947 102.249144,20.8012955 C102.635904,20.9602962 102.980906,21.1943772 103.284161,21.5035455 C103.587416,21.8127137 103.831335,22.1925432 104.015925,22.6430455 C104.200515,23.0935477 104.292808,23.6102925 104.292808,24.1932955 L104.292808,24.2197955 C104.292808,24.8027984 104.202712,25.3195432 104.022517,25.7700455 C103.842322,26.2205477 103.600601,26.6003772 103.297346,26.9095455 C102.994091,27.2187137 102.646891,27.4527947 102.255736,27.6117955 C101.864581,27.7707962 101.462445,27.8502955 101.049315,27.8502955 C100.477965,27.8502955 100.003312,27.72663 99.6253425,27.4792955 C99.2473725,27.2319609 98.9353323,26.9448804 98.6892123,26.6180455 L98.6892123,29.8245455 L97.0938356,29.8245455 L97.0938356,20.7085455 Z M105.92774,20.7085455 L107.523116,20.7085455 L107.523116,22.2852955 C107.742866,21.7552928 108.054907,21.331297 108.459247,21.0132955 C108.863586,20.6952939 109.373399,20.5495453 109.988699,20.5760455 L109.988699,22.2720455 L109.896404,22.2720455 C109.544804,22.2720455 109.223974,22.3294615 108.933904,22.4442955 C108.643834,22.5591294 108.393323,22.7313776 108.182363,22.9610455 C107.971403,23.1907133 107.808791,23.480002 107.694521,23.8289205 C107.580251,24.1778389 107.523116,24.5819598 107.523116,25.0412955 L107.523116,27.7045455 L105.92774,27.7045455 L105.92774,20.7085455 Z M115.671404,24.7762955 C115.469234,24.6967951 115.22971,24.6305457 114.952825,24.5775455 C114.67594,24.5245452 114.383677,24.4980455 114.076027,24.4980455 C113.574997,24.4980455 113.183848,24.5952111 112.902568,24.7895455 C112.621289,24.9838798 112.480651,25.2488771 112.480651,25.5845455 L112.480651,25.6110455 C112.480651,25.9467138 112.610301,26.2028779 112.869606,26.3795455 C113.128911,26.556213 113.447544,26.6445455 113.825514,26.6445455 C114.089214,26.6445455 114.333132,26.6092125 114.557277,26.5385455 C114.781422,26.4678784 114.976997,26.3685044 115.144007,26.2404205 C115.311017,26.1123365 115.440667,25.9577547 115.532962,25.7766705 C115.625257,25.5955862 115.671404,25.3946299 115.671404,25.1737955 L115.671404,24.7762955 Z M115.631849,27.7045455 L115.631849,26.8432955 C115.394519,27.1259635 115.091269,27.3644611 114.722089,27.5587955 C114.352909,27.7531298 113.904626,27.8502955 113.377226,27.8502955 C113.043206,27.8502955 112.726771,27.8039209 112.427911,27.7111705 C112.129051,27.61842 111.867552,27.4815047 111.643408,27.3004205 C111.419263,27.1193362 111.23907,26.8940885 111.102825,26.6246705 C110.96658,26.3552524 110.898459,26.0438806 110.898459,25.6905455 L110.898459,25.6640455 C110.898459,25.2753768 110.968778,24.9375052 111.109418,24.6504205 C111.250058,24.3633357 111.445632,24.1248381 111.696147,23.9349205 C111.946662,23.7450028 112.245518,23.6036709 112.592723,23.5109205 C112.939928,23.41817 113.315694,23.3717955 113.720034,23.3717955 C114.141954,23.3717955 114.500141,23.3982952 114.794606,23.4512955 C115.089071,23.5042957 115.372544,23.5749617 115.645034,23.6632955 L115.645034,23.5307955 C115.645034,23.0449597 115.497804,22.6739634 115.203339,22.4177955 C114.908874,22.1616275 114.484763,22.0335455 113.930993,22.0335455 C113.535443,22.0335455 113.183849,22.0732951 112.876199,22.1527955 C112.568549,22.2322959 112.256508,22.3382948 111.940068,22.4707955 L111.504966,21.1855455 C111.891726,21.0088779 112.28727,20.867546 112.69161,20.7615455 C113.09595,20.6555449 113.583787,20.6025455 114.155137,20.6025455 C115.192357,20.6025455 115.96147,20.8609179 116.4625,21.3776705 C116.96353,21.894423 117.214041,22.6209574 117.214041,23.5572955 L117.214041,27.7045455 L115.631849,27.7045455 Z" id="Aplaza-tu-compra" opacity="0.4" fill="#000000"></path>
                            </g>
                            <path d="M4.66586161,21.5507494 C1.8277879,19.3513077 0,15.9032678 0,12.0269114 C0,5.38463483 5.36681552,0 11.9871543,0 C18.6074931,0 23.9743339,5.38463483 23.9743339,12.0269114 C23.9743339,18.669188 18.6074931,24.0538228 11.9871543,24.0538228 C10.0325005,24.0538228 8.18710429,23.5844174 6.55684281,22.7518498 L12.151129,10.8929667 L12.2255735,10.8929667 L14.7570398,16.5836904 C14.8303491,16.7928582 14.9487641,16.8825088 15.2037573,16.8825088 L16.8417634,16.8825088 C17.0803088,16.8825088 17.1987237,16.6882869 17.1395666,16.4342812 L12.523402,6.42431843 C12.4323582,6.34961381 12.3287766,6.27490919 12.2255735,6.27490919 L12.0766593,6.27490919 C11.9735066,6.27490919 11.8698746,6.34961381 11.7788561,6.42431843 L4.66586161,21.5507494 L4.66586161,21.5507494 Z" id="Fill-1-path-2" fill="#3187C4"></path>
                        </g>
                    </g>
                </g>
            </g>
        </g>
    </g>
</svg>