<?xml version="1.0" encoding="UTF-8" standalone="no"?>
<svg width="39px" height="39px" viewBox="0 0 39 39" version="1.1" xmlns="http://www.w3.org/2000/svg" xmlns:xlink="http://www.w3.org/1999/xlink" xmlns:sketch="http://www.bohemiancoding.com/sketch/ns">
    <!-- Generator: Sketch 3.3.3 (12072) - http://www.bohemiancoding.com/sketch -->
    <title>cart-large</title>
    <desc>Created with Sketch.</desc>
    <defs></defs>
    <g id="Page-1" stroke="none" stroke-width="1" fill="none" fill-rule="evenodd" sketch:type="MSPage">
        <g id="colored-icons" sketch:type="MSLayerGroup" transform="translate(0.000000, -249.000000)">
            <g id="cart-large" transform="translate(0.000000, 249.000000)" sketch:type="MSShapeGroup">
                <rect id="Rectangle-10483-Copy-3" fill-opacity="0.16" fill="#3E8BC2" x="3.49090909" y="3.49090909" width="35.2" height="35.2" rx="26.1818182"></rect>
                <path d="M1,17.6 L1,17.6 C1,26.7693071 8.43131618,34.2 17.6,34.2 C26.7693071,34.2 34.2,26.7686838 34.2,17.6 C34.2,8.43069286 26.7686838,1 17.6,1 C8.43069286,1 1,8.43131618 1,17.6 L1,17.6 Z M0,17.6 C0,7.8797884 7.8776512,0 17.6,0 C27.3202116,0 35.2,7.8776512 35.2,17.6 C35.2,27.3202116 27.3223488,35.2 17.6,35.2 C7.8797884,35.2 0,27.3223488 0,17.6 L0,17.6 Z" id="Shape" fill="#3E8BC2"></path>
                <g id="Rectangle-2675-+-Rectangle-2675-Copy-2-+-Rectangle-2675-Copy-3" transform="translate(10.000000, 13.000000)" fill="#448CC0">
                    <path d="M0,0 L1,0 L1,1 L0,1 L0,0 Z M3,0 L15,0 L15,1 L3,1 L3,0 Z" id="Rectangle-2675"></path>
                    <path d="M0,4 L1,4 L1,5 L0,5 L0,4 Z M3,4 L15,4 L15,5 L3,5 L3,4 Z" id="Rectangle-2675-Copy-4"></path>
                    <path d="M0,8 L1,8 L1,9 L0,9 L0,8 Z M3,8 L15,8 L15,9 L3,9 L3,8 Z" id="Rectangle-2675-Copy-5"></path>
                </g>
            </g>
        </g>
    </g>
</svg>