<?xml version="1.0" encoding="UTF-8" standalone="no"?>
<svg width="32px" height="32px" viewBox="0 0 32 32" version="1.1" xmlns="http://www.w3.org/2000/svg" xmlns:xlink="http://www.w3.org/1999/xlink" xmlns:sketch="http://www.bohemiancoding.com/sketch/ns">
    <!-- Generator: Sketch 3.3.3 (12072) - http://www.bohemiancoding.com/sketch -->
    <title>commission</title>
    <desc>Created with Sketch.</desc>
    <defs></defs>
    <g id="Page-1" stroke="none" stroke-width="1" fill="none" fill-rule="evenodd" sketch:type="MSPage">
        <g id="colored-icons" sketch:type="MSLayerGroup" transform="translate(-3.000000, -319.000000)">
            <g id="commission" transform="translate(3.000000, 319.000000)" sketch:type="MSShapeGroup">
                <rect id="Rectangle-10483-Copy" fill-opacity="0.16" fill="#448CC0" x="2.90909091" y="2.90909091" width="29.0909091" height="29.0909091" rx="21.8181818"></rect>
                <path d="M1,14.5454545 L1,14.5454545 C1,22.02754 7.06387772,28.0909091 14.5454545,28.0909091 C22.02754,28.0909091 28.0909091,22.0270314 28.0909091,14.5454545 C28.0909091,7.06336909 22.0270314,1 14.5454545,1 C7.06336909,1 1,7.06387772 1,14.5454545 L1,14.5454545 Z M0,14.5454545 C0,6.51222182 6.51045553,0 14.5454545,0 C22.5786873,0 29.0909091,6.51045553 29.0909091,14.5454545 C29.0909091,22.5786873 22.5804536,29.0909091 14.5454545,29.0909091 C6.51222182,29.0909091 0,22.5804536 0,14.5454545 L0,14.5454545 Z" id="Shape" fill="#448CC0"></path>
                <g id="aplazame-logotipo__1_" transform="translate(9.000000, 9.000000)" fill="#267BBD">
                    <g id="Group-8">
                        <path d="M5.48932202,1.3255559 L3.95852057,4.973555 L3.95852057,4.973555 C3.72651959,4.89634205 3.50139341,4.80191485 3.2848509,4.69133524 L5.15913446,0.224795982 C5.19568644,0.135605359 5.2689152,0.0609476839 5.36830606,0.0238101069 C5.41365403,0.00686575389 5.46032887,-0.000728755046 5.50608664,5.48718788e-05 C5.54689225,0.000154274457 5.59339318,0.00869940517 5.63836601,0.0265652583 C5.73693847,0.0657240273 5.80854387,0.141863735 5.84316409,0.23178506 L7.98374507,5.65521275 C8.91734387,5.22198184 9.72915176,4.54667666 10.3299359,3.68561079 C10.443676,3.5225944 10.671701,3.48015682 10.8392442,3.59082379 C11.0067873,3.70149077 11.0504033,3.92335497 10.9366633,4.08637136 C10.2511762,5.06883651 9.31950482,5.83685068 8.2473783,6.32316028 L10.2966514,11.5152482 C10.369249,11.6991832 10.2748517,11.9055538 10.0858091,11.9761899 C9.89676657,12.046826 9.68466534,11.9549791 9.61206778,11.7710442 L7.56627056,6.58776292 C6.91070706,6.80157319 6.21490656,6.9151212 5.49975558,6.9151212 C3.30319313,6.9151212 1.28931391,5.84394162 0.0633120125,4.08633586 C-0.0504078731,3.92330615 -0.00676442513,3.70144705 0.160792382,3.59079969 C0.328349189,3.48015232 0.556369001,3.5226166 0.670088886,3.6856463 C1.76156406,5.25039352 3.54989823,6.201606 5.49975558,6.201606 C6.12319118,6.201606 6.73012967,6.10436116 7.30307143,5.92091525 L5.48932202,1.3255559 Z M2.91931311,7.45005374 L2.35041759,8.80576865 C2.27387191,8.98818197 2.05983788,9.0756812 1.8723592,9.00120366 C1.68488052,8.92672612 1.59495156,8.71847492 1.67149724,8.53606161 L2.24375224,7.17234083 C2.46386121,7.27540537 2.6892827,7.36812667 2.91931311,7.45005374 L2.91931311,7.45005374 Z" id="Shape"></path>
                    </g>
                </g>
            </g>
        </g>
    </g>
</svg>