<?xml version="1.0" encoding="UTF-8" standalone="no"?>
<svg width="32px" height="32px" viewBox="0 0 32 32" version="1.1" xmlns="http://www.w3.org/2000/svg" xmlns:xlink="http://www.w3.org/1999/xlink" xmlns:sketch="http://www.bohemiancoding.com/sketch/ns">
    <!-- Generator: Sketch 3.3.3 (12072) - http://www.bohemiancoding.com/sketch -->
    <title>discount-green</title>
    <desc>Created with Sketch.</desc>
    <defs></defs>
    <g id="Page-1" stroke="none" stroke-width="1" fill="none" fill-rule="evenodd" sketch:type="MSPage">
        <g id="colored-icons" sketch:type="MSLayerGroup" transform="translate(-164.000000, -319.000000)" fill="#3FC593">
            <g id="discount-green" transform="translate(164.000000, 319.000000)" sketch:type="MSShapeGroup">
                <rect id="Rectangle-10483" fill-opacity="0.16" x="2.90909091" y="2.90909091" width="29.0909091" height="29.0909091" rx="21.8181818"></rect>
                <path d="M1,14.5454545 L1,14.5454545 C1,22.02754 7.06387772,28.0909091 14.5454545,28.0909091 C22.02754,28.0909091 28.0909091,22.0270314 28.0909091,14.5454545 C28.0909091,7.06336909 22.0270314,1 14.5454545,1 C7.06336909,1 1,7.06387772 1,14.5454545 L1,14.5454545 Z M0,14.5454545 C0,6.51222182 6.51045553,0 14.5454545,0 C22.5786873,0 29.0909091,6.51045553 29.0909091,14.5454545 C29.0909091,22.5786873 22.5804536,29.0909091 14.5454545,29.0909091 C6.51222182,29.0909091 0,22.5804536 0,14.5454545 L0,14.5454545 Z" id="Shape"></path>
                <path d="M17.5301818,18.9941818 C16.736,18.9941818 16.1098182,18.1694545 16.1098182,17.1156364 L16.1098182,17.0850909 C16.1098182,16.0618182 16.6749091,15.2370909 17.4996364,15.2370909 C18.2938182,15.2370909 18.92,16.0618182 18.92,17.1156364 L18.92,17.1461818 C18.92,18.1694545 18.3701818,18.9941818 17.5301818,18.9941818 L17.5301818,18.9941818 Z M11.2378182,13.5265455 C10.4436364,13.5265455 9.81745455,12.7018182 9.81745455,11.648 L9.81745455,11.6174545 C9.81745455,10.5941818 10.3672727,9.76945455 11.2072727,9.76945455 C11.9861818,9.76945455 12.6276364,10.5941818 12.6276364,11.648 L12.6276364,11.6785455 C12.6276364,12.7018182 12.0625455,13.5265455 11.2378182,13.5265455 L11.2378182,13.5265455 Z M17.4996364,19.8494545 C18.9658182,19.8494545 19.928,18.5665455 19.928,17.1156364 L19.928,17.0850909 C19.928,15.6647273 18.9963636,14.3818182 17.5301818,14.3818182 C16.0792727,14.3818182 15.1018182,15.6647273 15.1018182,17.1156364 L15.1018182,17.1461818 C15.1018182,18.5665455 16.0792727,19.8494545 17.4996364,19.8494545 L17.4996364,19.8494545 Z M9.89381818,19.7272727 L10.9934545,19.7272727 L18.8283636,9.03636364 L17.744,9.03636364 L9.89381818,19.7272727 Z M11.2072727,14.3818182 C12.6581818,14.3818182 13.6356364,13.0989091 13.6356364,11.648 L13.6356364,11.6174545 C13.6356364,10.1970909 12.6581818,8.91418182 11.2378182,8.91418182 C9.77163636,8.91418182 8.79418182,10.1970909 8.79418182,11.648 L8.79418182,11.6785455 C8.79418182,13.0989091 9.75636364,14.3818182 11.2072727,14.3818182 L11.2072727,14.3818182 Z" id="%"></path>
            </g>
        </g>
    </g>
</svg>