<?xml version="1.0" encoding="UTF-8" standalone="no"?>
<svg width="25px" height="25px" viewBox="0 0 25 25" version="1.1" xmlns="http://www.w3.org/2000/svg" xmlns:xlink="http://www.w3.org/1999/xlink" xmlns:sketch="http://www.bohemiancoding.com/sketch/ns">
    <!-- Generator: Sketch 3.3.3 (12072) - http://www.bohemiancoding.com/sketch -->
    <title>menu-campaigns-active</title>
    <desc>Created with Sketch.</desc>
    <defs></defs>
    <g id="Page-1" stroke="none" stroke-width="1" fill="none" fill-rule="evenodd" sketch:type="MSPage">
        <g id="colored-icons" sketch:type="MSLayerGroup" transform="translate(-83.000000, -40.000000)" fill="#448CC0">
            <g id="menu-campaigns-active" transform="translate(83.000000, 40.000000)" sketch:type="MSShapeGroup">
                <rect id="Rectangle-10483-Copy-3" fill-opacity="0.16" x="2.18181818" y="2.18181818" width="22" height="22" rx="16.3636364"></rect>
                <path d="M1,11 L1,11 C1,16.5237031 5.47667235,21 11,21 C16.5237031,21 21,16.5233276 21,11 C21,5.47629686 16.5233276,1 11,1 C5.47629686,1 1,5.47667235 1,11 L1,11 Z M0,11 C0,4.92486775 4.923532,0 11,0 C17.0751322,0 22,4.923532 22,11 C22,17.0751322 17.076468,22 11,22 C4.92486775,22 0,17.076468 0,11 L0,11 Z" id="Shape"></path>
                <path d="M11,13.2361065 C10.4692435,13.7111464 9.76835444,14 9,14 C7.34314575,14 6,12.6568542 6,11 C6,9.34314575 7.34314575,8 9,8 C9.76835444,8 10.4692435,8.28885357 11,8.76389349 C10.750316,8.98736676 10.5382831,9.25204396 10.3745899,9.54723657 C10.0162147,9.20802902 9.53240126,9 9,9 C7.8954305,9 7,9.8954305 7,11 C7,12.1045695 7.8954305,13 9,13 C9.53240126,13 10.0162147,12.791971 10.3745899,12.4527634 C10.5382831,12.747956 10.750316,13.0126332 11,13.2361065 Z" id="Oval-161"></path>
                <path d="M13,15 C15.209139,15 17,13.209139 17,11 C17,8.790861 15.209139,7 13,7 C10.790861,7 9,8.790861 9,11 C9,13.209139 10.790861,15 13,15 Z M13,14 C14.6568542,14 16,12.6568542 16,11 C16,9.34314575 14.6568542,8 13,8 C11.3431458,8 10,9.34314575 10,11 C10,12.6568542 11.3431458,14 13,14 Z" id="Oval-161-Copy-2"></path>
            </g>
        </g>
    </g>
</svg>