<?xml version="1.0" encoding="UTF-8" standalone="no"?>
<svg width="25px" height="25px" viewBox="0 0 25 25" version="1.1" xmlns="http://www.w3.org/2000/svg" xmlns:xlink="http://www.w3.org/1999/xlink" xmlns:sketch="http://www.bohemiancoding.com/sketch/ns">
    <!-- Generator: Sketch 3.3.3 (12072) - http://www.bohemiancoding.com/sketch -->
    <title>menu-user</title>
    <desc>Created with Sketch.</desc>
    <defs></defs>
    <g id="Page-1" stroke="none" stroke-width="1" fill="none" fill-rule="evenodd" sketch:type="MSPage">
        <g id="colored-icons" sketch:type="MSLayerGroup" transform="translate(-123.000000, 0.000000)">
            <g id="menu-user" transform="translate(123.000000, 0.000000)" sketch:type="MSShapeGroup">
                <rect id="Rectangle-10483-Copy-3" fill-opacity="0.16" fill="#A0ABB5" x="2.18181818" y="2.18181818" width="22" height="22" rx="16.3636364"></rect>
                <path d="M1,11 L1,11 C1,16.5237031 5.47667235,21 11,21 C16.5237031,21 21,16.5233276 21,11 C21,5.47629686 16.5233276,1 11,1 C5.47629686,1 1,5.47667235 1,11 L1,11 Z M0,11 C0,4.92486775 4.923532,0 11,0 C17.0751322,0 22,4.923532 22,11 C22,17.0751322 17.076468,22 11,22 C4.92486775,22 0,17.076468 0,11 L0,11 Z" id="Shape" fill="#6D757A"></path>
                <path d="M11,12 C12.6568542,12 14,10.6568542 14,9 C14,7.34314575 12.6568542,6 11,6 C9.34314575,6 8,7.34314575 8,9 C8,10.6568542 9.34314575,12 11,12 Z M11,11 C12.1045695,11 13,10.1045695 13,9 C13,7.8954305 12.1045695,7 11,7 C9.8954305,7 9,7.8954305 9,9 C9,10.1045695 9.8954305,11 11,11 Z" id="Oval-166" fill="#6D757A"></path>
                <path d="M16,16 C16,13.2385763 13.7614237,11 11,11 C8.23857625,11 6,13.2385763 6,16 L7,16 C7,13.790861 8.790861,12 11,12 C13.209139,12 15,13.790861 15,16 L16,16 Z" id="Oval-166-Copy-2" fill="#6D757A"></path>
            </g>
        </g>
    </g>
</svg>