<?xml version="1.0" encoding="UTF-8" standalone="no"?>
<svg width="25px" height="25px" viewBox="0 0 25 25" version="1.1" xmlns="http://www.w3.org/2000/svg" xmlns:xlink="http://www.w3.org/1999/xlink" xmlns:sketch="http://www.bohemiancoding.com/sketch/ns">
    <!-- Generator: Sketch 3.3.3 (12072) - http://www.bohemiancoding.com/sketch -->
    <title>menu-payments</title>
    <desc>Created with Sketch.</desc>
    <defs></defs>
    <g id="Page-1" stroke="none" stroke-width="1" fill="none" fill-rule="evenodd" sketch:type="MSPage">
        <g id="colored-icons" sketch:type="MSLayerGroup" transform="translate(-4.000000, 0.000000)" fill="#6D757A">
            <g id="menu-payments" transform="translate(4.000000, 0.000000)" sketch:type="MSShapeGroup">
                <rect id="Rectangle-10483-Copy-3" fill-opacity="0.16" x="2.18181818" y="2.18181818" width="22" height="22" rx="16.3636364"></rect>
                <path d="M1,11 L1,11 C1,16.5237031 5.47667235,21 11,21 C16.5237031,21 21,16.5233276 21,11 C21,5.47629686 16.5233276,1 11,1 C5.47629686,1 1,5.47667235 1,11 L1,11 Z M0,11 C0,4.92486775 4.923532,0 11,0 C17.0751322,0 22,4.923532 22,11 C22,17.0751322 17.076468,22 11,22 C4.92486775,22 0,17.076468 0,11 L0,11 Z" id="Shape"></path>
                <g id="€-copy" transform="translate(6.000000, 6.000000)">
                    <path d="M2.08721357,4.82601732 L7.48904762,4.82601732 L7.78,4.12649351 L2.21904811,4.12649351 C2.37852173,3.59273268 2.66804457,3.11606798 3.08761905,2.69649351 C3.76444783,2.01966473 4.5898364,1.68125541 5.56380952,1.68125541 C6.59968772,1.68125541 7.50555168,2.09807664 8.28142857,2.9317316 L8.5847619,2.22601732 C7.75523395,1.39648936 6.74825989,0.981731602 5.56380952,0.981731602 C4.37935916,0.981731602 3.38579766,1.38410853 2.58309524,2.18887446 C2.0290767,2.74431721 1.66625053,3.39018695 1.49461275,4.12649351 L0.54952381,4.12649351 L0.246190476,4.82601732 L1.39088078,4.82601732 C1.382992,4.93970699 1.37904762,5.05526254 1.37904762,5.17268398 C1.37904762,5.29223729 1.38313653,5.40985632 1.39131436,5.52554113 L0.54952381,5.52554113 L0.246190476,6.21887446 L1.49461275,6.21887446 C1.66625053,6.95518101 2.0290767,7.60105076 2.58309524,8.15649351 C3.38579766,8.96125944 4.37935916,9.36363636 5.56380952,9.36363636 C6.64508477,9.36363636 7.55094873,9.04792524 8.28142857,8.41649351 L8.28142857,7.38887446 C7.5303137,8.23903744 6.62444975,8.66411255 5.56380952,8.66411255 C4.5898364,8.66411255 3.76444783,8.32570324 3.08761905,7.64887446 C2.66804457,7.22929998 2.37852173,6.75263528 2.21904811,6.21887446 L6.8947619,6.21887446 L7.19809524,5.52554113 L2.08775855,5.52554113 C2.07750681,5.41017265 2.07238095,5.29255361 2.07238095,5.17268398 C2.07238095,5.0549576 2.07732515,4.93940206 2.08721357,4.82601732 Z"></path>
                </g>
            </g>
        </g>
    </g>
</svg>