<?xml version="1.0" encoding="UTF-8" standalone="no"?>
<svg width="32px" height="32px" viewBox="0 0 32 32" version="1.1" xmlns="http://www.w3.org/2000/svg" xmlns:xlink="http://www.w3.org/1999/xlink" xmlns:sketch="http://www.bohemiancoding.com/sketch/ns">
    <!-- Generator: Sketch 3.3.3 (12072) - http://www.bohemiancoding.com/sketch -->
    <title>total</title>
    <desc>Created with Sketch.</desc>
    <defs></defs>
    <g id="Page-1" stroke="none" stroke-width="1" fill="none" fill-rule="evenodd" sketch:type="MSPage">
        <g id="colored-icons" sketch:type="MSLayerGroup" transform="translate(-83.000000, -319.000000)" fill="#3E8BC2">
            <g id="total" transform="translate(83.000000, 319.000000)" sketch:type="MSShapeGroup">
                <rect id="Rectangle-10483-Copy-3" fill-opacity="0.16" x="2.90909091" y="2.90909091" width="29.0909091" height="29.0909091" rx="21.8181818"></rect>
                <path d="M1,14.5454545 L1,14.5454545 C1,22.02754 7.06387772,28.0909091 14.5454545,28.0909091 C22.02754,28.0909091 28.0909091,22.0270314 28.0909091,14.5454545 C28.0909091,7.06336909 22.0270314,1 14.5454545,1 C7.06336909,1 1,7.06387772 1,14.5454545 L1,14.5454545 Z M0,14.5454545 C0,6.51222182 6.51045553,0 14.5454545,0 C22.5786873,0 29.0909091,6.51045553 29.0909091,14.5454545 C29.0909091,22.5786873 22.5804536,29.0909091 14.5454545,29.0909091 C6.51222182,29.0909091 0,22.5804536 0,14.5454545 L0,14.5454545 Z" id="Shape"></path>
                <path d="M9.77441128,14.8545455 C9.76480375,14.718636 9.76,14.5804542 9.76,14.44 C9.76,14.3020503 9.76463396,14.1662928 9.7739019,14.0327273 L9.7739019,14.0327273 L8.42909091,14.0327273 L8.78545455,13.2109091 L9.89576883,13.2109091 C10.0974132,12.3458776 10.5236705,11.5870936 11.1745455,10.9345455 C12.1175805,9.98908618 13.2848415,9.51636364 14.6763636,9.51636364 C16.0678857,9.51636364 17.2509042,10.0036315 18.2254545,10.9781818 L17.8690909,11.8072727 C16.9575712,10.8278739 15.8933394,10.3381818 14.6763636,10.3381818 C13.5321155,10.3381818 12.5624282,10.7357536 11.7672727,11.5309091 C11.2743461,12.0238357 10.9342074,12.5838334 10.7468537,13.2109091 L17.28,13.2109091 L16.9381818,14.0327273 L10.5919712,14.0327273 C10.580354,14.1659345 10.5745455,14.3016921 10.5745455,14.44 C10.5745455,14.5808259 10.5805674,14.7190077 10.5926114,14.8545455 L16.5963636,14.8545455 L16.24,15.6690909 L10.7468537,15.6690909 C10.9342074,16.2961666 11.2743461,16.8561643 11.7672727,17.3490909 C12.5624282,18.1442464 13.5321155,18.5418182 14.6763636,18.5418182 C15.9224305,18.5418182 16.9866623,18.0424292 17.8690909,17.0436364 L17.8690909,18.2509091 C17.0109048,18.992731 15.946673,19.3636364 14.6763636,19.3636364 C13.2848415,19.3636364 12.1175805,18.8909138 11.1745455,17.9454545 C10.5236705,17.2929064 10.0974132,16.5341224 9.89576883,15.6690909 L8.42909091,15.6690909 L8.78545455,14.8545455 L9.77441128,14.8545455 Z" id="€"></path>
            </g>
        </g>
    </g>
</svg>