<?xml version="1.0" encoding="UTF-8" standalone="no"?>
<svg width="32px" height="32px" viewBox="0 0 32 32" version="1.1" xmlns="http://www.w3.org/2000/svg" xmlns:xlink="http://www.w3.org/1999/xlink" xmlns:sketch="http://www.bohemiancoding.com/sketch/ns">
    <!-- Generator: Sketch 3.3.3 (12072) - http://www.bohemiancoding.com/sketch -->
    <title>total</title>
    <desc>Created with Sketch.</desc>
    <defs></defs>
    <g id="Page-1" stroke="none" stroke-width="1" fill="none" fill-rule="evenodd" sketch:type="MSPage">
        <g id="colored-icons" sketch:type="MSLayerGroup" transform="translate(-84.000000, -319.000000)" fill="#3E8BC2">
            <g id="total" transform="translate(84.000000, 319.000000)" sketch:type="MSShapeGroup">
                <rect id="Rectangle-10483-Copy-3" fill-opacity="0.16" x="2.90909091" y="2.90909091" width="29.0909091" height="29.0909091" rx="21.8181818"></rect>
                <path d="M1,14.5454545 L1,14.5454545 C1,22.02754 7.06387772,28.0909091 14.5454545,28.0909091 C22.02754,28.0909091 28.0909091,22.0270314 28.0909091,14.5454545 C28.0909091,7.06336909 22.0270314,1 14.5454545,1 C7.06336909,1 1,7.06387772 1,14.5454545 L1,14.5454545 Z M0,14.5454545 C0,6.51222182 6.51045553,0 14.5454545,0 C22.5786873,0 29.0909091,6.51045553 29.0909091,14.5454545 C29.0909091,22.5786873 22.5804536,29.0909091 14.5454545,29.0909091 C6.51222182,29.0909091 0,22.5804536 0,14.5454545 L0,14.5454545 Z" id="Shape"></path>
                <path d="M11.1628803,14.5163636 L17.5090909,14.5163636 L17.8509091,13.6945455 L11.3177628,13.6945455 C11.5051164,13.0674698 11.8452552,12.5074721 12.3381818,12.0145455 C13.1333373,11.21939 14.1030246,10.8218182 15.2472727,10.8218182 C16.4642485,10.8218182 17.5284803,11.3115103 18.44,12.2909091 L18.7963636,11.4618182 C17.8218133,10.4872679 16.6387948,10 15.2472727,10 C13.8557506,10 12.6884896,10.4727225 11.7454545,11.4181818 C11.0945796,12.0707299 10.6683223,12.829514 10.4666779,13.6945455 L9.35636364,13.6945455 L9,14.5163636 L10.344811,14.5163636 C10.3355431,14.6499291 10.3309091,14.7856867 10.3309091,14.9236364 C10.3309091,15.0640906 10.3357128,15.2022724 10.3453204,15.3381818 L9.35636364,15.3381818 L9,16.1527273 L10.4666779,16.1527273 C10.6683223,17.0177587 11.0945796,17.7765428 11.7454545,18.4290909 C12.6884896,19.3745502 13.8557506,19.8472727 15.2472727,19.8472727 C16.5175821,19.8472727 17.5818139,19.4763673 18.44,18.7345455 L18.44,17.5272727 C17.5575713,18.5260656 16.4933396,19.0254545 15.2472727,19.0254545 C14.1030246,19.0254545 13.1333373,18.6278828 12.3381818,17.8327273 C11.8452552,17.3398006 11.5051164,16.7798029 11.3177628,16.1527273 L16.8109091,16.1527273 L17.1672727,15.3381818 L11.1635205,15.3381818 C11.1514765,15.202644 11.1454545,15.0644622 11.1454545,14.9236364 C11.1454545,14.7853285 11.1512631,14.6495709 11.1628803,14.5163636 Z" id="€"></path>
            </g>
        </g>
    </g>
</svg>