<?xml version="1.0" standalone="no"?>
<!DOCTYPE svg PUBLIC "-//W3C//DTD SVG 20010904//EN"
 "http://www.w3.org/TR/2001/REC-SVG-20010904/DTD/svg10.dtd">
<svg version="1.0" xmlns="http://www.w3.org/2000/svg"
 width="700.000000pt" height="700.000000pt" viewBox="0 0 700.000000 700.000000"
 preserveAspectRatio="xMidYMid meet">
<metadata>
Created by potrace 1.11, written by Peter Selinger 2001-2013
</metadata>
<g transform="translate(0.000000,700.000000) scale(0.100000,-0.100000)"
fill="#000000" stroke="none">
<path d="M1900 6292 c-855 -305 -1556 -555 -1557 -556 -6 -5 475 -4118 483
-4126 12 -12 2604 -1452 2624 -1457 13 -3 2659 1452 2683 1477 8 7 530 4121
524 4126 -2 2 -2290 781 -2857 973 l-345 117 -1555 -554z m1667 -1017 c36 -11
62 -28 90 -58 44 -47 39 -35 403 -972 101 -258 186 -473 190 -477 3 -4 37 13
75 39 150 99 252 194 367 340 66 84 90 108 135 129 45 23 62 26 109 21 107
-11 184 -90 192 -196 3 -37 -1 -69 -12 -94 -26 -62 -124 -186 -246 -308 -124
-125 -227 -207 -367 -293 -51 -31 -87 -60 -85 -68 2 -7 121 -312 265 -678 261
-663 262 -665 262 -742 0 -69 -3 -81 -30 -120 -20 -28 -49 -52 -84 -71 -93
-47 -180 -32 -251 42 -43 45 -58 80 -309 723 -145 372 -267 681 -271 688 -6
10 -22 9 -76 -3 -137 -33 -192 -39 -369 -44 -133 -4 -212 -1 -302 11 -412 54
-785 232 -1091 521 -95 89 -242 268 -272 330 -40 83 -18 190 53 252 46 40 97
56 163 51 72 -6 119 -40 190 -135 133 -181 364 -369 564 -461 263 -122 561
-167 841 -127 68 9 127 19 130 21 4 2 -70 199 -164 439 -94 239 -172 434 -173
432 -2 -1 -72 -169 -157 -372 -176 -422 -143 -383 -282 -336 -102 35 -281 126
-277 141 1 6 122 298 268 648 177 424 274 646 292 665 39 42 106 74 158 76 11
1 43 -6 71 -14z m-956 -2069 c52 -24 137 -59 189 -77 52 -17 99 -36 104 -40 5
-5 -30 -104 -83 -232 -75 -181 -100 -231 -129 -260 -143 -140 -371 -47 -372
152 0 45 15 89 93 277 50 123 95 224 98 224 3 0 49 -20 100 -44z"/>
</g>
</svg>
