<svg xmlns="http://www.w3.org/2000/svg" xmlns:xlink="http://www.w3.org/1999/xlink" width="840" height="480">
  <defs>
    <linearGradient id="a">
      <stop stop-color="#fff" offset="0"/>
      <stop stop-color="#f15770" offset="1"/>
    </linearGradient>
    <radialGradient id="b" xlink:href="#a" gradientUnits="userSpaceOnUse" cx="842" cy="104" r="26" gradientTransform="matrix(.18574 .04718 -.04532 .18635 234 199)"/>
    <radialGradient id="c" xlink:href="#a" gradientUnits="userSpaceOnUse" cx="652" cy="550" r="26" gradientTransform="matrix(-.17642 -.07067 .06515 -.16392 431 378)"/>
    <radialGradient id="d" xlink:href="#a" gradientUnits="userSpaceOnUse" cx="381" cy="740" r="26" gradientTransform="matrix(.0989 .0037 -.0045 .1943 442 123)"/>
  </defs>
  <path fill="#ce1126" d="M0 0h840v480H0z"/>
  <path fill="#fff" d="M0 0h560v480H0z"/>
  <path fill="#006847" d="M0 0h280v480H0z"/>
  <g fill="#fcca3e" stroke="none" transform="translate(0 1)">
    <path d="M467 304v5l2-1-1-5z"/>
    <circle cx="467" cy="302" r="2"/>
    <path d="M474 313l-4-4-2 1 6 4zM474 315v-3l3 1-1 2h-2zM507 251l4 5 1-3-4-2z"/>
    <circle cx="506" cy="250" r="2"/>
    <path d="M519 254l-7 2v-2l6-1z"/>
    <circle cx="520" cy="253" r="2"/>
    <path d="M496 287l-4-6 1-1 4 6z"/>
    <circle cx="492" cy="279" r="2"/>
    <path d="M496 287l6 1v-1l-5-1z"/>
    <circle cx="503" cy="288" r="2"/>
    <path d="M374 302l-2 1-1-1 1-2 2 2zM374 305l1 6h-2v-6z"/>
    <path d="M375 302c1 1-1 3-2 3-1 1-3 0-3-1 0-2 2-1 3-1 0 0 1-2 2-1z"/>
    <ellipse cx="364" cy="312" rx="2" ry="1"/>
    <path d="M367 312h6l-1-1h-5z"/>
    <path d="M368 311c0 2 0 4-2 4l-1-2c-1-2-2-3 0-4 1-1 2 1 3 2z"/>
    <ellipse cx="347" cy="277" rx="1" ry="2"/>
    <path d="M347 281v6l-1-1v-5zM349 279c1 2-1 2-3 2l-2-2 3-1c0 1 2-1 2 1z"/>
    <ellipse cx="336" cy="287" rx="2" ry="1"/>
    <path d="M340 287l5-1 2 2-7-1zM338 284c2 0 2 1 2 3 0 1-1 3-2 2l-1-1v-1-2l1-1zM334 247l-2 1 1-2 1-1v2zM329 256l3-6h-1l-3 4z"/>
    <path d="M331 250l-1-3h1l2 1h1v2h-3zM320 249l1 2h-2c-1 0-2-1-1-2h2zM323 252l5 3v2l-6-4z"/>
    <path d="M323 253h-3v-1l1-1 1-2 1 1v3z"/>
  </g>
  <g fill="#aa8c30">
    <path d="M468 305l-1 1v1-2h1zM468 304l-1 1-2-1v-2 2l1 1h2v-1zM474 314h-1l-5-2 5 3 1-1zM477 315l-1 2-2-1-1-1v1l1 1h2l1-1v-1zM509 253v1l-1-1v-1l1 1zM508 251l-2 2c-1 0-2-1-1-2 0-1 0 0 0 0v1l1 1h2v-2zM521 254l-1 2-2-2c0-1 0 0 0 0v1l1 1h1l1-1v-1zM517 255h-1l-1 1 3-1v-1l-1 1zM494 284v2l-2-4h1l1 2zM493 281l-2 1c-1-1-2-2-1-3v2l1 1h2v-1zM501 288l-1 1h-2 3v-1zM505 289l-2 2c-2 0-2-2-1-2h-1v2h3l1-1v-1zM375 304s0 2-2 2h-2l-1-1v1l1 1h2l1-1h1v-2z"/>
    <path d="M374 307l-1 1v1-3l1 1zM369 312v1h1-2l1-1zM368 314v1l-2 1-1-1v-1 2h3v-2zM362 314l1 1h2-3v-1zM349 280v1l-2 1-2-1-1-1v1l1 1 1 1h1l2-1v-2z"/>
    <path d="M347 283l-1 1v-2l1 1zM341 288l5 1h-6v-1h1zM340 288v1l-2 2-1-2v2h2l1-1v-2zM337 288h-3l1 1h2v-1zM335 250l-1 1h-2l-2-1 1 1v1h3l1-1v-1z"/>
    <path d="M331 252v2l1-2-1-1v1zM324 254v1l3 3-4-4v-1l1 1zM322 254l-1 1-1-1v-1l-1 1 1 1h2v-1zM320 252v1l-2-2 1 1 1 1v-1z"/>
  </g>
  <g fill="#9ca168">
    <path d="M525 240c-1 5-6 8-8 10l-4 4-1 3v11l3-3 3-1h1l-4 6c-1 3-3 9-7 11-4 3-6 2-8 3l-1 1-2 2-1 2-1 1-1 1v2l-1 3 2-1h1l-1 2c0 1 1 6-4 9s-18 3-18 3l-2 1-3 1-2 3-2 3-4 2h3l4 2-4 1c-2 1-11 6-15 6-5 0-11-7-11-7l-2-2-5-1h-6v-1h5l6 1h5l8-6 7-3h3l1 1h2l-2 1-2 2h8l1-1 5-4 1-1 2-5 1-2 5-5 3-4 2-4v-1l1 4-1 4 6-4h3l3-3 1-3v-12l3-7 5-5v3l3-3 1-1 1-2 1-4v-4l-1-3-2-6v-7l-2-3s2 0 3 3l3 7 4-14 2 4 1 5 2-4v1c1 2 3 3 3 8zm-89 86s0-2-5-5l-7-2v1l7 3 3 3h2z"/>
    <path fill="#717732" d="M466 313l6-5 4-1 9-3c6-3 7-7 8-8l3-1-4 5c-2 3-5 4-8 6s-10 3-10 3c-3 0-4 1-5 2l-3 3v-1zm16-17c-5 5-7 10-7 10l7-7 8-5 2-3 2-1s-2-2-12 6zm-11 12l3-3 1-4 8-8c3-4 2-7 2-7l-1 3c-2 2-9 7-10 10v4c-1 4-3 5-3 5zm-4 13s-2-1-6-1c-6 0-11 4-15 4-5 0-6-2-10-4-3-2-12-2-12-2l9 1c4 1 7 6 13 6 7 0 12-5 15-5l6 1zm-31-3s5 1 9-2l10-7 6 1-6-1-8 1-6 6c-2 2-5 2-5 2zm-1 7h-2l-4-3-5-1 5 2 4 3 2 1 1-1-1-1zm3-5l6 1c7 0 11-5 15-7h7l-5-2c-7 0-15 5-18 6l-5 2zm74-52c-3 2-6 10-8 12l-4 3-4 6-1 1c-1 0-1 0 0 0l2-2 3-3 7-6 6-12 6-3s-3-1-7 4zm-12 14l2-3 3-5 3-9 3-6-3 2c-2 3-5 7-6 12-2 4-2 9-2 9zm-2 3l1-4v-12l7-9-5 3c-4 3-5 6-5 9l2 8v5zm14-26l2-7c0-1 0-2 3-5 2-2 4-3 4-6l1-10-1 2-2 8-4 9v-8l2-7v-9l-3 5-1 10v12l-1 3-1 3h1zm-5-29s2 3 2 5c-1 3-2 6-1 9l3 4 1 5v-8l-2-2v-9l-3-4z"/>
    <path d="M403 325l4-3 9-4v2l-4 1-2 2-4 2h-3z"/>
    <path d="M412 316l-8 1h-2l-2-2h-1v3l-7-6v4l-1 2-7-7v5h-1l-5-3-1 1 1 2-6 1-1 1-1 1v1h2l1-1 1 2c1-1 4-3 6-2s-3 3-3 4c1 2 4 1 5 1 1-1 4-4 5-3 2 2-3 3-2 5s3 2 5 1c1-1 4-6 5-5 1 2-3 4-2 5 1 2 3 0 5-1l3-4 3-1 2-1 4-2h4l2 1v-2l-4-1zm-36 0l1-2-1-1-3-2c-1-2-2-2-3-2l-3-2-1-4v-1l-2 1-2-8-1-2h-1l-1 5-2-3-1-6-1 1-2 2-3-6-1 4a33 33 0 0 1-7-7l-2-4 2-2v-4l-3 2v-8l-1-2-3 5-1-3v-4l-1-1-2 3-2-3v-6c-1-3-2-4-1-6l1-4h-1c0-2 5-5 4-6-1-2-6 2-5 0 1-3 6-3 6-7 0-2-4 2-5 1 0-2 3-4 3-5v-3c-1-1-4 3-4 3l-2-1-1 4-1 4-4-2 1 4 1 4-3-1 1 3 3 3 1 2h2l1 2 1 2v5l1 1-1 1v3h-2l2 3h-5c0 1 1 3 3 3 2 1 7 2 6 3s-6-3-6 0 2 4 4 4c1 1 6 0 6 2 0 1-4-1-5 1 0 2 3 2 4 2l3 1 6 5 6 4-3 1c-1 1 8 4 5 5-2 1-5-3-5-1-1 2 1 4 2 5 2 1 9 0 8 2-2 2-7-1-7 1s3 5 5 5 4-3 5-2v3c2 1 4-2 6-1 2 0 5 1 7 3l4 4z"/>
    <path fill="#717732" d="M405 324l1 1 5-3 5-2-5 3-4 2-3 1-1-1 2-1zm11-5l-2-1-3-1-5 2-2 2 2-1c2-2 4-2 5-2l3 1h2zm-66-28l-3-2-7-5 4 4 5 3h1zm46 34l2-3 3-3-1-2v-2l1 2 1 1h2v-1h-2l-3-3-1 2c-1 1-2-5-6-5h-3l2 5c-1 1-5-5-7-6-3 0-3 1-3 2s3 1 2 3c0 2-3-3-5-3l-3 1v2l-3 1-2 3s1-2 3-2h7l-1-1-1-2 2 2 2 1 3 1-1 2-3 2 3-2 2-2h2l-1-2-2-3 2 3 2 2 2 1-1 2-1 3 2-2 2-3h2l-1-2-1-3 2 3 1 2h3l-1 3-2 3zm-28-17l2 1-2-3-1-6c-1 0-2 3-3 2l-1-8-4-3c0 1 0 6-1 5-2-1 0-5-1-7 0-2-1-3-2-3l-1 4c-2 0-1-2-2-3h-1l-1-2v3l1 2 1 2h-4l3 1h2l2 3v-3-4l1 4-1 4 1 1-3 1-5-1 4 1 5 1 3 2 1-4v-4 9l-3 1-5 1h5l3-1 1 1 2 1-1 1-2 1 3-1h2v-2l-1-2 1 2v2l2 1zm-41-47l1-4-2-7-1-1 1-2-1 1h-2l-1-1 2 1h1l-1-3-2-1-4-3 4 2 2 1 2-1 2-1-2 1h-2v-3l-2-2-2-3 2 2 2 2 2-2 4-2-4 2h-2v-1l1-3h-1l1-4v2l1 1 4-4v-2l-3 2c-1 0-1-2-2-1 0 0-2 1-2 3v4c-1 1-2-2-3-2-2 0-2 3-2 3 0 1 3 5 2 6-1 0-3-4-5-1-1 2 5 5 5 6l2 2 3 2 2 8v3zm16 23s-2-2-1-5c0-2 2-7 1-8 0 0-2 3-3 2l1-7c-1-2-1-3-3-3s-2 6-3 5v-5l-2-2-2 3s-1-3-3-3c-1 1 3 6 3 6l1-1 1-2v4h-3l-3-1 3 2 3 1a76 76 0 0 0 3 3l1-3 2-4-1 5-1 4-4-1-4-1 4 2 4 1 2 2 1-1 2-3-1 3-1 2h-3a627 627 0 0 0 3 1l1 2 2 2z"/>
  </g>
  <path fill="#fff" d="M413 333l-2-2h-2l1-3 7-7 1-7h5v10l1 1 8 4v3h-1l-1 1h-3l-6-4-2-2-4 5-2 1z"/>
  <path fill="#016848" d="M418 314v9l-6 5-3 3-2 1-2 1s1-4 5-7l5-4v-7l1-1h2zM428 335l1-1 1-1-2-1-4-2-3-3-2 2 2 3 5 2 2 1z"/>
  <path fill="#cd202a" d="M422 314l2 1h1l-1 7-1 4-6 5-3 4-1-1-1-2 5-4 5-7v-7z"/>
  <path fill="#cd202a" d="M436 332l-2-1-2 1-3-3-4-2-3-3 2-2 3 3 6 3 3 4z"/>
  <g transform="translate(0 1)">
    <path fill="#30c2dc" stroke="#0872a7" d="M453 299s-5-1-5-3c1-2 11-4 11-4v-3l-4 1-11 2-5-1a2428 2428 0 0 0-40-2c-5-1-8-8-8-8h-3s1 4 0 4c-2 1-18-7-18-7l-1 3s10 5 9 7c0 2-3 2-3 2l1 2c1 0 16 1 17 6l-4 3 1 1v1s9 0 11 1l7 5c2 2 22 2 25 1 4-1 6-5 12-7l7-2z"/>
    <circle fill="#fff" stroke="#0872a7" cx="373" cy="292" r="3"/>
    <circle fill="#fff" stroke="#0872a7" cx="389" cy="279" r="3"/>
    <circle fill="#fff" stroke="#0872a7" cx="455" cy="300" r="3"/>
    <path fill="#f8c83c" d="M361 275c-1 2 3 6 5 7 3 0 4-1 4-2v-3c-2-2-8-4-9-2z"/>
    <path fill="#fff" d="M369 278l-4-2h-2l4 2-1 2h2l1-2z"/>
    <path fill="#f8c83c" d="M391 302c0 2-1 3-3 4-2 0-6 0-6-2-1-1 1-3 3-4s5 0 6 2z"/>
    <path fill="#fff" d="M387 303l1 1 1-2-2-1-4 3h2l2-1z"/>
    <path fill="#f8c83c" d="M458 293c2 2 5 0 6-1s3-2 2-4l-4-1-4 2v4z"/>
    <path fill="#fff" d="M459 291s0-2 2-2h4l-2 1h-2c-1-1-2 1-2 1z"/>
  </g>
  <g fill="#f9aa51" stroke="#953220" stroke-linecap="round" stroke-linejoin="round">
    <path d="M422 288l-1-1h-8l5 13 5 8h6l1-2-2-12-6-6z"/>
    <path d="M408 289v-2h5l4 6c1 3 2 7 4 9l4 6-3 1h-2l-3-1-7-12-2-7z"/>
    <path d="M405 287h3s4 3 5 7l2 8 5 7-8-1-5-1-2-2h-3l1-4-1-9v-4l3-1zM435 289l-5-2h-9a431 431 0 0 0 4 15l4 6c1 1 6-1 6-1l4-1-1-3v-14h-3z"/>
    <path d="M403 289c0 2 1 2 2 2l1-2c0-2-1-3-3-3s-3 2-3 4l1 3-1 4 2 4-2 4c0 2 2 3 3 3l4-2c0-2-1-3-2-3l-2 1M437 290l-2 1-1-1c0-2 2-3 3-3s3 2 3 4l-1 3 1 3c0 3-2 5-2 5s2 0 2 3-2 3-3 3-3 0-3-2 1-2 2-2l1 1"/>
    <path fill="#953220" d="M406 304l1 1 1 1 12 2 12-1 2-3h1l-1 1v1l1 1-1 1-3 1h-20l-4-1-1-1 1-1-1-2zM432 288l2 1-2 3-1 4h-8l-1-3 10-5z" stroke="none"/>
  </g>
  <g fill="#231f20">
    <path d="M455 287l-2-1-1-3 2 2c-1 1 1 2 1 2zM468 284l1 1 2 1h-2l-2-2h1zM472 285h-2l-1-1h1l2 1zM479 279l-1 1-2-1h3zM469 265l-2 1v2l1-1 1-2zM462 269l-1 1v2l1-1v-2z"/>
    <path fill="#8cbebf" stroke="#04534e" d="M450 277l-4 4s9 5 15 5c7 0 15-6 15-7 1-1 0-5-1-7 0-1-5-5-7-5s-5 3-7 6c-3 2-3 5-7 4h-4z"/>
    <path fill="#0c8489" d="M449 279s9 1 12-1l7-8 3-1 2 1 2 2 1 5v2l-3 2-5 3-5 1h-4l-9-2-2-2h-1l2-2z"/>
    <path fill="#04534e" d="M463 273h1l2 1-2 2-1-3zM467 276l1-1 2 1-2 2-1-2zM465 281l2-1 1 2-1 1-2-2zM461 280l1-2 2 2-2 2-1-2zM453 281a2 2 0 1 1 4 0 2 2 0 0 1-4 0z"/>
    <path fill="#8cbebf" d="M467 276l1-1 1 1-1 1-1-1zM466 281l1-1 1 1-1 1-1-1zM461 280l2-2v2l-1 1-1-1zM463 273h1l1 1-1 1-1-2zM453 280l2-2 2 2s-1 2-3 2l-1-2z"/>
    <path d="M456 279h-2v2l1-1 1-1zM463 277l-2 2 1 1v-1l1-2z"/>
    <path d="M464 278l-2 1v1h1l1-2zM465 271l-1 1v2l1-1v-2zM470 274l-2 1v1l1-1 1-1zM469 280l-1 1h-1v-1h2z"/>
    <path fill="#04534e" d="M476 276s1 3-2 4c-2 1-8 6-14 5-6 0-12-4-12-4l-1 1h1l5 2 5 2h6l5-2 5-2 2-2v-4z"/>
    <path d="M361 243l1 2-1 1v-1-2zM371 252l-1 2-1-1h1l1-1zM349 254l1 1 1-1h-1-1zM353 261l2 1c1 1 1 0 2-1l-2 1-2-1zM360 267l2-1v-1l-1 1-1 1z"/>
    <path fill="#8cbebf" stroke="#04534e" d="M371 263s1-8-5-14c-7-6-11-4-13-2s-4 9 2 14c7 6 16 5 16 5v-3z"/>
    <path fill="#0c8489" d="M351 254s0-4 2-6c2-1 9-2 12 4 4 7 4 10 3 13h-4l-5-2-5-3-3-6z"/>
    <path fill="#04534e" d="M370 264l-3 1c-3 0-14-3-16-13v3l1 2 2 3 3 3 3 2h3l3 1h2l2-2z"/>
    <path fill="#04534e" d="M364 261l2-1 1 1-1 2-2-2zM365 256l1-1 1 1-1 1-1-1zM360 261h3l-2 1-1-1zM360 255h1l1 1-1 2-1-3zM355 256l1-1 2 1-2 2-1-2zM356 251l1-1 2 1-2 2-1-2zM361 250h1l1 1-1 2-1-3z"/>
    <path fill="#8cbebf" d="M356 251l1-1 1 1-1 1-1-1zM355 256l1-1 1 1-1 1-1-1zM361 251l1-1 1 1-1 1-1-1zM360 256l1 1 1-1-1-2-1 2zM365 255l1 1 2-1-2-1-1 1zM360 261l1-1 1 1-2 1v-1zM364 260h2l1 1-2 1-1-2z"/>
    <path d="M366 252l1 2-1 2v-2-2zM362 248v3l-1-1 1-2zM357 249v2l-1-1 1-1z"/>
    <path d="M355 250h1l1 1h-1l-1-1zM359 255h1l1 1h-1l-1-1zM354 254l2 1v1h-1l-1-2zM365 258v0zM364 260h1v0h-1zM359 260h1l1 2-1-1-1-1z"/>
    <path fill="#04534e" d="M357 245s-4 1-5 4l-1 6v-4l1-2 1-2 2-2h2zM371 261l-1-4-4-8 2 2 2 3v2l1 3v2z"/>
    <path d="M375 256l2 1-1 1-1-1v-1zM369 273l1-2h2l-1 1-2 1zM379 277l2-1v-2l-1 1-1 2zM378 276l1-2h1v1l-2 1z"/>
    <path fill="#8cbebf" stroke="#04534e" d="M396 268s-7-10-17-10c-8-1-11 7-11 9 1 2 4 7 15 8 11 0 12-5 13-6v-1z"/>
    <path fill="#0c8489" d="M388 261l4 4 1 3c-1 0-7-5-12-6s-9 0-10 2-1 6 2 7c2 2 12 3 12 3h5l3-2 1-2 1-2v-1l-3-3-4-3z"/>
    <path fill="#04534e" d="M380 263l-2 1-1-1 1-1 2 1zM374 265l1-1 1 1-1 2-1-2zM380 268l2-1 1 1-2 2-1-2z"/>
    <path fill="#8cbebf" d="M375 270l1-1 2 1-2 1-1-1z"/>
    <path fill="#04534e" d="M384 272l1-1 1 1-1 1-1-1zM388 269h1l1 1-1 1-1-2z"/>
    <path fill="#8cbebf" d="M379 262l-1 1-1-1 1-1 1 1zM376 265l-1 1-1-1 1-1 1 1zM377 270v1l-2-1 1-1 1 1zM383 268l-2 1-1-1 1-1 2 1zM390 270h-1l-1-1 1-1 1 2zM386 272l-1 1-1-1 1-1 1 1z"/>
    <path d="M386 269h0zM382 273l2-1h1l-1 1h-2zM379 266l2 1 1 2-2-1-1-2z"/>
    <path d="M379 268h3l-1 1-2-1zM374 268l2 1v1h-1l-1-2zM374 271l1-1h1c1 0 0 0 0 0l-2 1zM373 264h1l1 1h-1l-1-1zM376 260l2 1v1h-1l-1-2z"/>
    <path fill="#04534e" d="M394 271s-3 3-10 3c-8-1-14-4-16-7l1 2 2 2 5 2 5 2h5l4-1 3-2h1v-1zM395 268l-3-3-8-6 5 2 3 3 3 3v1z"/>
    <path d="M395 261l2 2h1l-1 1-1-1-1-2zM400 259l3 1v2l-2-2-1-1zM402 258l2 2v1l-1-1-1-2zM411 260l1 2v2l-1-1v-1-2zM413 261l2 2-1 1-1-1v-2zM397 281h2l1-1-1-1-1 1-1 1zM406 283l2-1 1-1h-2l-1 2zM413 284l2-2 1-1h-1l-1 1-1 2zM416 283l1-1v-2l-1 1v2z"/>
    <path fill="#8cbebf" stroke="#04534e" d="M394 272c0-4 4-11 9-11 3 0 7 1 10 3l6 3h5l6-1-5 8-2 2s-1 3-6 5c-4 1-12 0-16-1-3-1-8-4-7-8z"/>
    <path fill="#04534e" d="M394 272l1-3c0-2 2-4 3-5 2-2 3-2 5-2h5l5 2 3 2 3 1 3 1h2l6-1-5 7-2 1c0 1-2 4-6 5l-6 1-10-1-5-3-2-5h-1c0 2 1 4 3 5l5 4 10 1 6-1c5-2 7-5 7-5h-1 1l2-2 5-8-7 1a21 21 0 0 1-5 0l-2-1-4-2a38 38 0 0 0-10-3l-4 1a15 15 0 0 0-6 10h1z"/>
    <path fill="#0c8489" d="M425 273h-2s-15-9-19-8c-5 0-9 2-9 7 0 4 1 4 2 6l9 3h6l4-1 4-2 2-2 2-1 1-2z"/>
    <path fill="#04534e" d="M402 270l-1 2-2-1 2-2 1 1zM404 266l1-1 2 1-2 2-1-2zM412 269l2-2 1 2-1 1-2-1zM414 274l2-2 1 2-1 1-2-1zM410 277l1-1 2 1-1 2-2-2zM402 276l1-1a1 1 0 1 1 0 2l-1-1z"/>
    <path fill="#8cbebf" d="M402 270l-1 1-2-1 2-1 1 1zM406 266l-1 1-1-1 1-1 1 1zM415 268l-1 1-2-1 2-1 1 1z"/>
    <path fill="#04534e" d="M410 272l-1 1-1-1 1-1 1 1z"/>
    <path fill="#8cbebf" d="M404 276l-1 1-1-1 1-1 1 1zM410 272l-1 1-2-1 2-2 1 2zM417 273l-1 2-2-2 1-1 2 1zM413 277l-2 1-1-1 1-1 2 1z"/>
    <path d="M413 273h3v1h-1l-2-1zM411 266l2 1 1 1h-1l-2-2zM406 269l2 2 1 1h-2l-1-3z"/>
    <path d="M405 271h3l1 1-1 1-1-1-2-1zM403 264l2 1v2l-1-1-1-2zM398 268l3 1v2l-2-2-1-1z"/>
    <path d="M397 270h4l-1 1-3-1zM409 278l2-1h1l-1 1h-2zM401 276l1-1 1 1h-1-1z"/>
    <path fill="#04534e" d="M423 275l-5 4c-3 1-5 2-9 1a20 20 0 0 1-15-7l1 2 2 3 3 2 5 1h11l3-1 1-1 2-1 1-3zM419 267l-3-1c-3-2-6-4-12-4s-8 4-8 5l3-4 2-1 2-1h2l3 1 2 1 3 1 2 1 3 2h1zM427 269h-4l-1 1h-1l-1-2 5-1 2 1v1z"/>
    <path fill="#0c8489" stroke="#04534e" d="M421 293l1 1h7l2-2 1-4 1-2 4-2 4-1h3l3-2 2-1 1-1 1-3-1-3-2-4-5-1h-3l-4 1-8 2s-3 2-5 5-2 4-2 8v9z"/>
    <path fill="#8cbebf" d="M423 291l2-5 4-6 1 1 1-1c0-1 0-2 2-3l3-3h2v1h2v-2h2l2 1v2l1 1 2-1v-1-1c1 1 2 3 3 2v-3l-3-3-4-2-5 1-5 3-5 2s0 4-1 3l-2-2-2 5-2 8 2 3z"/>
    <path fill="#8cbebf" d="M428 285l-1 1-1 1 1 1h2l1-1-1-1-1-1zM436 278l-1 1-1 1 1 1h2v-1l-1-1v-1zM442 280h-1l-1 1 2 1v-1-1zM423 281c0 1 1 2 2 1l2-1-2 1h-1l-1-1z"/>
    <path fill="#04534e" d="M430 287l-1 1h-2l-1-1 2 1 2-1zM447 276l-1 1h-1-1v-2l1 2 2-1zM431 279l-1 2h-1 1l1-2zM434 279l1 2h2v-1l-1 1-1-1-1-1zM440 273v2h-2 1l1-2z"/>
    <path fill="#04534e" d="M422 294l8-1c0-1-1-5 3-8s8-3 10-3 7-1 8-6c0-2-3-2-5-5-1-2-4-1-4-1-1 0-4-1-6 1l-2 3-5 1v3l-2-1 1-4 5-4 7-3h5l4 2 2 3 1 3v2c-1 4-5 7-9 7s-8 2-9 3c-2 2-3 7-3 8h-9z"/>
    <path d="M425 280h-1l1-2v2zM430 280l-1-2 3-2-1 2-1 2zM428 287l-1-2 2-2-1 2v2z"/>
    <path d="M431 285l-1 1-2 1v-2h3zM437 276l-1 2v2l1-2v-2z"/>
    <path d="M439 279l-1-1-2 1v1l1-1h2zM438 273h1l1-2-1 1-1 1zM447 273l-2 1v2l1-1 1-2zM444 279l-1 2h-2l1-1h1l1-1z"/>
  </g>
  <g transform="translate(0 1)">
    <ellipse fill="url(#b)" cx="386" cy="258" rx="4" ry="6" transform="rotate(9 386 258)"/>
    <g fill="#fcca3e" stroke="none">
      <path d="M388 248l-3 5h2l1-5z"/>
      <path d="M389 245l-2 2 1 1c1 1 2 0 2-1l-1-2zM485 259l-5 6h2l4-5z"/>
      <path d="M488 257l-3 1c-1 1 0 2 1 2h2v-3zM345 229l3 7 1-2-3-5zM344 227v2h2v-2h-2z"/>
    </g>
    <g fill="#aa8c30">
      <path d="M389 246l-2 1 2 1h-2v-2h1v-1h1v1zM388 249l-1 1-1 1 2-3v1zM488 258h-3l1 3c1 0 0 0 0 0l-1-1v-3h3v1z"/>
      <path d="M485 261h-1l-2 2 3-3h1l-1 1zM344 226v3h2c1-1 0 0 0 0l-1 1-1-1h-1v-2h1v-1z"/>
      <path d="M346 230v1l1 2-2-3 1-1v1z"/>
    </g>
    <ellipse fill="url(#c)" cx="351" cy="242" rx="6" ry="4" transform="rotate(63 351 242)"/>
    <g fill="#e92736">
      <path d="M345 240h2l1-1v-1l-1-2h-2v-1l-2 3h1v1l1 1z"/>
      <path d="M347 236l1 2h1l1-2v-1-1l-1-1-3 1c0 1 0 0 0 0v2zM353 235v-2h-1l1-1h-3v4h3v-1zM382 252l1 1 1 1 1-1 1-2-1-1s1 0 0 0h-2l-1 1v1z"/>
      <path d="M386 251l-1 2 1 1h2v-1l1-1v-1-1h-3 1l-1 1z"/>
      <path d="M390 255l1-1v-1h1l-2-2v1h-1l-1 1v1l2 1zM477 262v2h2l2-1-1-1 1-1-2-1v1h-2v1z"/>
      <path d="M480 263l-1 1 1 1 1 1 1-1h1v-1l-1-2v1h-2z"/>
      <path d="M481 268h2v-1h1l-1-2v1l-1-1h-1v1 2z"/>
    </g>
    <g fill="#f7e204">
      <path d="M347 237l-1 2h-1v-1l1-1h1zM347 236v1h2l1-2-1-1-2 2zM351 234v1h1l1-1h-1-1zM385 252l-1 1-1-2h2v1zM386 251v1l1 1 1-1v-1h-2zM390 252l-1 1v1h2v-1l-1-1zM480 263h-2v-1h2v1zM481 263l-1 1v1h2v-1l-1-1zM482 266l-1 1h1v-1z"/>
    </g>
    <ellipse fill="url(#d)" cx="477" cy="269" rx="3" ry="6" transform="rotate(48 477 269)"/>
  </g>
  <g>
    <g fill="#78732e" transform="translate(0 1)">
      <path fill="#a8ac71" d="M375 185h-8c-4-1-3-9-3-10l-2-4c0-2 7-7 8-8l2 1 2-2 1 1-3 3-1 3-2 3 1 2 4-1 3-2-3 4-4 1s-2 3 2 3l5-1-2 7zM355 206s3 1 3 4-3 6-3 11 1 5 8 11c0 0 2 1 2 3s2 11 8 11c7 0 8-4 8-4l-3-4h-4l-3-2-2-7c-2-4-7-5-7-10 0-4 3-4 2-10-1-5-7-7-7-7l-3-1-1 5h2z"/>
      <path fill="#f1a720" d="M374 170c2-1 1-6 1-6l-2 1 1 2v3z"/>
      <path fill="#a8ac71" d="M378 227h-1c-1-1-5-4-4-12 1-10 14-14 15-18s4-6-7-15l-2 3 4 4s1-1 1 0l-1 4-8 6-4 3-3 5c-2 4-1 9-1 9s0 10 11 11z"/>
      <path d="M371 233l1 3-2 1h-2l-2 2v-1l-1-2 2 1h2v-2l2-2zM365 233l-1-1-2-1 2-1h2l-1 2v1zM368 228l2 1v2l-2-1h-2l1-2h1zM367 243v-1l-1-2h2l2 1v1l-2 1h-1zM374 238l-2-1v-1l-1 2v2h2l1-1v-1zM368 244l2 1 1 1 1-1 1-2-4 1h-1zM374 243l3-2v-3h-2l-1 3v2zM371 246s3 1 7-1l2-1-2-1-1 2-6 1zM368 219l-1-1v-2l1 1 2 1-1 1h-1zM371 224l-1-1-1-2 1 1h2l-1 2z"/>
      <path fill="#c6c7a6" d="M363 169c0 1-1 3 1 3 0 0 3 0 6-3l1-4 1-1h-3l-6 5z"/>
      <ellipse fill="#1c242f" cx="371" cy="165" rx="1" ry="1"/>
      <path fill="#a8ac71" d="M367 165l-2 2s2 0 3-2h4v-1h-2l-3 1z"/>
      <path d="M373 218v-1-2l-1 1-1 2 1 1 1-1zM367 215v-3l1-4v2l2 3h1l-2 2h-2zM373 214v-1l1-2a34 34 0 0 0-3 2l1 1h1M368 206l1-2 2-2 1 3v3h1l-1 1-3-1-1-2zM374 210l1-1 2-1h-4v2h1zM372 201l1-1 2-1 1 5-3-1-1-2zM377 207l3-2-5-1 1 3zM379 201v-5l-2 2-1 1 2 1 1 1zM383 196v-3h-1l-1 1-1 1 1 1h2zM384 201l2-2 2-2h-5v2l1 2zM372 183l-1 2h5l-1-1-2-1-1-1zM380 204l2-1 2-2h-4v3zM389 196v-3-2l-4 2 1 1 1 2h2z"/>
      <path d="M383 192l1-1v-1h4l-1 2-1 1h-2l-1-1zM388 190l-1-3-2-1-1 3v1h4z"/>
      <path fill="#fff" d="M357 215l-1 1 3-1 3 2v-1l-3-2-2 1zm0-7h1l2-2h2l-1-1h-2l-2 3zm6 5l-2-2-3 1v1l3-1 2 3v-2zm-6-6l1-2 1-2h-1l-1 1v3zm-1-3l1-2-2 1v3h1v-2zm10-25l2-1-1 4-1 3h1l1-2 2 2h1l1-3 3 2-3-2v-1l3-2 1 1-1-1h-1l-2 2-1-2h-1l-2 2 1-3v-1l-3 1-2 2v1l2-2zm2 2l3-2 1 3-1 3-3-3v-1zm-10 28v1l3-1 3 1v-1l-3-1-3 1zm28-15v-1l3-2-1-1h-2-2l1-3 1-1-1-1-1 1-4-1 3 1h2l-1 2v2h4l-2 2h-1l-1-2v1l1 2-2-1-1 1v3l-2-1v1h-1v4l-3-1h-1v4c-2 0-3-2-3-2l-1 1 1 6h-1c-2 0-3-2-3-2v2s0 3 2 5h1l-4 2v1a59 59 0 0 0 3 2l-2 1v1l2-2 3 1v-1h-2l2-3v-1l-2-1 3-2v-1l-1-1 4-1v-1l-1-3 4 1v-1-3h4l-1-4h5l1-1-3-2zm-14 21l-1 2-1 1v-1l-2-1 3-2 1 1zm2-4l-3 2v-1c-2-1-3-2-3-4l3 1h1l2 2zm2-4l-3 1-1-6 3 2 1 3zm0-4v-3l3 1v3l-3-1zm7-3l-3 1v-5l3 1v3zm0-4v-3h2l1 2 1 1h-4zm-10 25v-1l-1 2h-1l-2-1 2 1v3l1-3 1 1v3h3l-1-1h-1-1v-1l1-1-1-1h-1l1-1zm-15-2l3 1v-1l-2-1-4 1v2l3-2zm18 26h-4l1-2c4-1 4-3 4-3v-1l-3 3 1-4h-1l-3 2 1-3v-1l-3 1 2-4v-1l-3 4v1l-3-2v1l3 1-2 2v1l4 1-3 2 1 1 5-1-2 3 5-1 3-2-1-1s0 2-2 3zm-9-6l1-2h3l-1 3-3-1zm2 4l1-2h1c2 0 3-2 3-2l-1 4h-4zm-3-13l5 1-1-1h-4l3-3h-1l-2 2v1a5 5 0 0 0-4 0l1 1 2-1v4l1-4zm-4-8v-1h-4l-2 3v1l3-2 3-1zm4 3h-1l-3 1-1 3 1 1 1-3 3-2zm-5 0l3-1-1-1-3 1-3 3 2 1 2-3zm7-59l2-1h1l-1 3-1 2-2 4 1 2 1-1h-1v-1l1-3 2-3v-3l-1-1-3 2-2 1 3-1z"/>
      <path d="M374 179h-3l1 2zM370 179v-1h-1l-1 1v2l2-2zM370 185l-2-3-2 3h1a41 41 0 0 0 3 0zM380 244c-1 1-3 2-7 2l-4-1-2-3-1-5-2-5-5-4a10 10 0 0 1-4-8l2-6 1-4v-1l-2-2-1-1-1-1-1 1h2l1 1 2 2v1l-1 4a15 15 0 0 0-2 7c0 4 2 6 4 8l5 4 2 6 1 4 2 2 4 1c4 0 7-2 7-2z"/>
      <path d="M377 238h-2l-2-1-2-3-1-4-4-5c-2-2-4-3-4-5l1-5a14 14 0 0 0 1-6c0-2-2-4-4-6l-4-2v1l4 2 4 5v1l-2 5-1 5v1l4 4 5 5 1 4 2 3a4 4 0 0 0 4 1z"/>
      <path fill="#a8ac71" d="M389 228s2 0 2 2l-1 4-3-2 2-2v-2z"/>
      <path fill="#f8c83c" d="M350 205h-3v-2s-2 0-2-2l2-1 2-2 2 2-1 5z"/>
      <path fill="#f8c83c" d="M352 206h-2l-1-2-1-2 2-1 2-2 1 1-1 6z"/>
      <path fill="#f8c83c" d="M355 206l-2 1-1-2-1-2 2-1c1-1 1-3 2-2l2 2s-2 0-3 2l1 2z"/>
      <path fill="#af7029" d="M386 227l-3-3-3-4-3-1-2-3v-6l1-2s-6 2-3 14c2 5 5 6 5 6l6-1h2z"/>
      <path fill="#816c2a" d="M383 188l1 1v1c-2 5-6 7-10 9-2 2-4 3-5 6a16 16 0 0 0-2 9c0 6 2 10 5 12s6 2 7 2h2a47 47 0 0 1 7 0h1v1l-1 1-1 1v1l2-1 1-2-1-1-1-1h-9l1 1v-1h-1c-1 0-4 0-7-2-2-1-5-5-5-11v-1l2-8 8-7c3-2 6-4 7-8v-1l-1-1z"/>
      <path fill="#fff" d="M391 229l-2 3 2 1h-1l-2-1v-1l1-1 1-2 1 1z"/>
      <path fill="#fcca3d" d="M396 231l-3 1-2-1-1-3-2-1h-3l-6-7h6l3-1 2 1h2l1 1 1 1 2 2v7z"/>
      <path fill="#af7029" d="M397 231h-6v1l-1 2v4h5l1-5 1-2z"/>
      <path fill="#fcca3d" d="M396 229v2-2zM392 189v-2l-1-2-1-2-2-2-1-1h-4l-2 2s5 4 7 8l4 2v-3z"/>
      <path fill="#af7029" d="M389 193l-1 5 2-3 2-3-4-2 1 3z"/>
      <path fill="#816c2a" d="M394 236l-2-2-1-1h-1 1l1 1a22 22 0 0 1 2 2z"/>
      <path fill="#6f5b24" d="M396 233l-1 2-3 2 3 1 3-2-2-3z"/>
      <path fill="#404118" d="M397 236l-1 1h-1l1-3 1 1z"/>
      <path fill="none" d="M375 185h-8c-4-1-3-9-3-10l-2-4c0-2 7-7 8-8l2 1 2-2 1 1-3 3-1 3-2 3 1 2 4-1 3-2-3 4-4 1s-2 3 2 3l5-1-2 7z"/>
    </g>
    <g fill="#d2a567">
      <path fill="#ab6d29" stroke="#4d2a15" d="M418 149s-9-2-9 6c0 2 1 3 3 4 2 0 6 0 9 3s3 5 3 7v4l2 10 2 7 6-3 4-11-5-20-15-7z"/>
      <path fill="#4d2a15" d="M427 187s4-1 4-3c1-1-3-4-3-4l3 1 1 1 2-4-3-3-3-1h3l2 1-1-5-3-2h-3l4-1 2 1-1-4-3-2h-3l2-1 2 1-1-1-5-3h-5l2-1h1l-3-1h-7l1-1 1-1c2 0 0-1 0-1l1-2h5l11 7 5 4 3 8-1 14-7 6h-3v-3z"/>
      <path d="M418 153v-3-1s-4 0-6 2c-3 2-1 5-1 5l2-2h4l-1-1-3-1h3l2 1z"/>
      <path fill="#8f4620" d="M429 189h-3l2 10 9 16 5-1 2-3 1 1c1 1 2 4 4 4l4 2 6 9v-4l-2-4-1-3-1-1h3l1 1 3 2 1 2 1 1v2l1 2 1 3 2 2v-1l-1-3-2-8-2-3 3 2 2 3 2 3v2l1 3 1 2 1-1v-2l-1-5-1-6 2 1 1 3 1 5 1 5 1 5 2 4 1 1v-2l-2-21v-1l1 1 2 2v4l1 2v4l1 5 2 5 1 2 1-3-1-22v-1l2 2 1 1 1 5v14l1 4 4-37 2-1 1-1-2-1-4-6-3-7-5-9-9-11-7-5-2-2v-1l2-2-1-1h-1l-3 1-2-1-6-4-6-3-4-1-9-2-8-2h-4l-4 1-2 2v3c0 2 1 3 3 4l8 5 3 2 1 2v1l2 14-4 8-2 2z"/>
      <path fill="#ab6d29" d="M438 211s2 3 4 1-1-8-1-8l1-1 2 3v4c0 3-3 5-3 5h-2l-1-4z"/>
      <path fill="#4d2a15" d="M493 246l-2-6-1-5-1-12v-4l-2-3-1-1 1-1 1 1-1-6-5-11 1 2 3 2 5 2h3l2 4 1 9-1 10c-2 3-2 13-2 15l-1 3v1z"/>
      <path fill="#8f4620" d="M493 228l1-3c1-2 1-16-1-18l-5-3 1 5 1 2 1 2 1 8 1 7z"/>
      <path fill="#4d2a15" d="M485 237v-11l-1-7-3-8-3-8c-1-1-2-3-3-2v1h-2l-1-2 1-2v-2l2 2 6 4 2 11 3 7v22l-1-5zM488 205l2 2 2 1-2-1-2-1v-1z"/>
      <path fill="#4d2a15" d="M477 235l1-6-2-11-4-6-3-7-3-3v-4l5 2 2 1 2 12 3 3 1 4 1 11v9l-3-5z"/>
      <path fill="#4d2a15" d="M472 230l-1-6-2-7-6-6-5-7v-4l3 2 3 1 1 5 2 4 2 3 2 1 1 6v3l1 4v2l-1-1zM468 230l-1-1v-3l-2-5-1-3-6-5-5-4-2-1-1-6 3 3 3 1 4 7 1 1 3 3 2 3 1 3 1 5v2zM461 228l-3-4v-3l-5-6-5-5 1-1 1 1 6 6 2 3 1 4 1 2 1 3zM482 198s4 5 5 0l-2-6-5-8-7-9-5-2 2 2 8 11c4 8 3 12 3 12h1z"/>
      <path fill="#4d2a15" d="M458 168s8 7 14 14c5 7 7 12 6 13-2 1-5 0-6-2l-7-12-8-6-3-6 4-1zM454 184l8 7 4 6 2 2v-3h1l-15-16v4zM453 185l4 5 6 5 1 4s-7-5-7-4l1 4-2-1-3-4-1-4-2-5h3z"/>
      <path fill="#4d2a15" d="M432 201s4 3 6 0 0-7 0-7 5 8 7 1l-3-6 1-1 3 4s2-1 2-4-3-7-3-7l3 3s5 0 5-3-4-6-4-6 3 0 3-2-5-3-5-4 2-3 4-2 4 2 5 0c2-2 0-3 0-3h-2l-5-3-3-1-4-1 1 3 1 8v3l1 8-2 6-1 1v1l-2 3-2 3-3 3-3 3z"/>
      <path fill="#ab6d29" d="M458 215l-3-4-5-1 5 5h3zM465 216l-4-5-3-5h-1v4l4 4 4 2zM471 216l-3-8-4-5 1 4 1 4 3 4 2 1zM476 214s2-8 0-11c-1-2-3-2-3-2l-1 1 1 6 2 4 1 2zM481 200l3 4 3 11h-1l-5-8-1-7h1z"/>
      <path d="M447 210l2-2-3-4h3c0-1-2-5-1-6l3 4 1 5c-2 4-5 3-5 3zM453 204h4l-4-4v-2h3l-3-5h1l3 5 2 6c0 3-7 1-6 0zM471 198l-1-3 2-1-3-1h-2l2 3 2 2z"/>
      <path d="M459 200l6 1-5-5v-1h3v2l2 2v-4l3 3c1 0 4 3 4 1l1-2c0-1 1 4-1 4h-3l-1-1-1-1s1 3 0 3h-5l-3-2zM473 196l7 3-2-11c1-1 6 10 3 12h-2l-4-1-2-3zM491 212l1 1h-1v-1zM484 191h2l-1 1-1-1zM483 187h1l1-1-2-1v-1h-2v1l2 2zM488 206l3 2h-2l-1-2zM478 177h1v2h-2l-2-2h3zM468 168h2l2 1 1 5-5-3-2-3h2zM464 167s3 0 3-2-2-3-2-3l-4 3 3 2zM456 163h1c1 0 4-4 6-4h2v3l-6 3-2-1h-1v-1zM455 157l-3-3c-1 1 2 2 2 5v5h1l1-1v-3l-1-1v-1-1zM447 154c-2-3-7-5-7-5l6 6c2 2 2 5 2 5h1l1-1-1-1-1-2v-1l-1-1zM440 151c-3-2-9-4-13-4-5 0-7 1-7 3 1 3 3 4 7 4h7l4 2-3-3-3-2s-1-1 2-1c3 1 6 2 7 5l1 4 1-1v-1-2l-2-2-1-2zM427 189c2 0 6-4 7-9s-2-16-3-17l2 1c1 1 3 8 3 14 0 5-1 7-4 9-3 3-5 3-5 3v-1zM434 204l2 1c2-1 5-2 5-5l-2-4v-2l2 1v3h2c1 0 3-2 3-4l-3-4v-2h2l1 3h1l3-3-2-3v-1h3l3-3-1-2v-1h1l1 2v3l-2 2-2 1 1 2-1 2-1 2-3 1v3l-1 2-3 2h-1v1l-2 3-3 2h-2l-1-1v-1z"/>
      <path d="M451 176s5 2 5-2l-6-6v-2l3 2s3 1 4-1v-3h2v3l-2 8s1 2-2 3l-4-2zM456 215l-1-3-4-2 3 5h2zM463 215l-3-4-3-4 1 4 4 4h1zM470 215l-3-5c0-1-1-5-3-6v2l2 4 2 4 2 1zM475 212v-6l-3-4v4l3 6zM486 215l-3-7-2-5v4l2 6 3 2zM495 204l-5-3-7-2 2 2 3 2 5 1h2z"/>
      <path fill="#202020" d="M457 206l2 5 6 6 2 7 2 7 1 2-2-2v-3l-4-10-8-9-2-3h3z"/>
      <path fill="#202020" d="M465 226l-1-6-6-5-3-1-5-5v1l6 6 3 8 1 3 2 2v-1l-2-4c-1-2-2-7-4-8l2-1c1 0 5 4 5 6l2 5 3 5-3-5zM459 200l4 2h1l3 9 4 5s0 6 2 10c2 5 2 10 2 11-1 1-2-3-3-6l-2-8-4-6h1l3 6 2 7 1-2-1-5-2-6-3-5-3-7-1-1-2-1-2-3zM467 199l3 2h2s0 6 2 9c2 4 5 6 5 6l1 9v24l-1-10c-1-2-2-2-3-9l-2-11c-1-3-3-3-3-3s2 0 3 3l2 10c1 7 4 10 4 10l-1-13-2-10-4-5-2-8-1-2-3-2z"/>
      <path fill="#202020" d="M473 196l4 3 4 1c0 1-1 5 2 10l3 5 1 18c0 5 1 20-1 20s0-11-1-14l-2-4-2-15-2-4 2 4 2 14 3 6-1-21-5-13v-4l-4-2-3-4z"/>
      <path fill="#202020" d="M482 198l5 4 8 1c0 1 3 6 3 14 0 7-2 6-3 13l-2 21-1 3-1 3-1-3 1-8-1-8-1-19-3-4 3 3 2 20v-2l1-13c0-4-1-13-3-14l2 3h1l1 1h-1l-1-1 2 11v21c1 1 1-8 2-14l2-13-3-12-8-3-4-4zM435 206l2-1c2 0 5-3 5-4v-2l1 1c1 0 4-2 4-4v-4h1c1 0 3-2 3-4l-1-3h2l3-3c0-2-1-4-3-4h3l2-3c0-2-3-6-4-6h5v-4l-1-1h4l5-3c1 0-3 2-3 4l3 2v1h4l-3 1c3 1 5 4 8 7h1l2 1h-2l4 6 1 1h2l-2 1 4 7-9-12c-4-6-6-6-6-6l6 9 4 8s-5-11-12-17l-8-7c-1 0-2 5-1 6l10 10 9 13-10-13c-7-7-9-8-10-8l-1 2-2 1 6 7h3l2 2-2-1h-2l5 6 2 1 3 1-3-1h-1l3 5-10-10c-4-4-6-5-6-4l-1 1-2 1 6 7 5 6-5-5-5-4v2l5 7-7-8-1 1-2 2 9 9-8-6 3 7-5-6-1 1-3 1 6 8-6-6-1 1 2 5s-2-5-3-4l-1 1-2 1 2 2 1 3-2-3-2-2-1 1-1-1z"/>
      <path fill="#202020" d="M495 203h2l-3-2c-1-2-6-16-11-23-9-12-17-17-17-17s10 6 17 16c7 11 9 20 11 22l4 3-1 2h-3l1-1zM432 200v1l3-4-2-1-1-3 1 3h3l4-4-3-1-1-3 2 2h2l3-5h-2c-2-1-2-3-2-3l2 2c2 0 3-1 3-2v-6h-3c-2 0-2-2-2-2l2 2c2 0 3-1 3-2v-4l-2-2h-2c-2 0-3-2-3-2l3 1 2-2-1-3-1-2-3 1-2-2 2 1 2-1c0-1 0-2-3-5l-4-3 5 3 3 4h3v-3l-3-4 3 4v3l6 2v-3l-2-3 2 3 1 2-1 2 3 1 3 1 1-2-1-4 1 4v3h-1l-11-4 6 5 3 3-3-2-6-2 1 1-1 2 6 5-2 2-3-2 2 2-1 2 3 4-1 2 2 3-3-2-2-2-1 4s2 1 2 3v3l-3-3-1 1-2 3c1 0 3 1 3 3l-2 3-2-4-3 4 1 2h-2l-3 1v-1z"/>
      <path fill="#202020" d="M466 161l1-1s2-2 1-3l-4 1-6-3s-12-9-31-10c-6 0-9 2-9 3 0 0 2-3 8-2 2 0 21 1 31 9 1 0 4 3 7 3h3l-1 2v1zM433 164l-3-5-11-5 10 6 4 4z"/>
      <path d="M433 177l-2-2-3-1 3 1 2 2zM432 170l-3-1-3-1h4l2 2zM431 164l-3-1-3-1h4l2 2zM428 161l-4-2-6-1h7l3 3zM421 157l-4-1h-6l8-1 2 2z"/>
    </g>
    <g fill="#f8c83c" stroke="none" stroke-width="0">
      <path d="M400 238s1 2 3 2 4 3 4 3l-2 3h-6l-2-3 3-5zM400 236l-3-5c-2-1 0 1 0 2l-1 2 1 2 3-1z"/>
      <path d="M399 242h2l1-1M398 240s3-2 3-4l-2-1-2 3 1 2z"/>
      <path d="M395 242l2 2 3-2-2-2h-3v2z"/>
      <path d="M398 240l-3 1s-2-1-1-2h2l1-1h1v2z"/>
      <path d="M396 241s-3 5-5 4l1-6 2 1 2 1z"/>
      <path d="M390 238l5 1-4 2-1-3z"/>
      <path fill="#202220" d="M379 244s1 3 3 3 3-2 3-2l-4-2-2 1z"/>
      <path fill="#4b4139" d="M379 244v1l1 1 2 1 4-2-5-2-2 1v1-1 1l2-2 4 2-3 2-2-2h-1v-1 1-1z"/>
      <path fill="#202220" d="M381 244s0 1 3 2l4-2-4-3-3 3z"/>
      <path fill="#4b4139" d="M381 244s0 2 3 2l4-2-4-4-4 4h1l3-3 4 3v-1 1l-4 1h-3a3 3 0 0 1 0-1z"/>
      <path fill="#4b4139" d="M381 244l2 1h3-1l-1 1-1-1h-2v-1z"/>
      <path fill="#202220" d="M384 242s1 3 3 2l2-1-2-4-3 3z"/>
      <path fill="#4b4139" d="M384 242v1l3 2 2-1 1-1-3-4-3 3 3-3 2 4-2 1-2-1-1-1z"/>
      <path fill="#4b4139" d="M384 243l3 1h2-1l-1 1-1-1h-1l-1-1zM380 245l2 1h2-1l-1 1h-1l-1-1v-1z"/>
      <path d="M390 238c1 0 3 2 3 4 0 1-1 4-2 3l-4-3v-2l3-2zM379 238l-2-1v4l2-1v-2zM379 240l-2 1 1 2 2-1-1-2z"/>
      <path d="M380 241l-2 2 1 2 2-1-1-3zM381 235h-1l-2 2 1 3 3-1-1-4z"/>
      <path d="M381 237l-3 3 2 2 3-2-2-3z"/>
      <path d="M384 242l-3 2-2-2 3-2c1-1 2 2 2 2zM387 232l-3-1c-2 0-3 2-4 4l1 3c1 1 5-2 5-2l1-4z"/>
      <path d="M383 240l-2-3c0-1 2-3 4-2l1 3s-2 3-3 2z"/>
      <path d="M387 240l-2 2c-1 1-2 0-3-1l1-2 2-1 2 2z"/>
      <path d="M385 236s-2 1-1 3l3 2 2-2 2-2-1-3c-1 0-3 0-5 2z"/>
      <path fill="#202220" d="M389 231h-3l-2 3 1 3 2-1 1-2v-1l1-2z"/>
      <path fill="#4b4139" d="M389 231h-3l-2 2v2l1-2 2-2h2z"/>
      <path d="M432 262l2-1 2-1 1 3-2 1h-4l1-2z"/>
      <path d="M428 263h2l2-1v3l-2 1-2-1v-2zM444 262l-1-2-3-2v6h3l2-2h-1z"/>
      <path d="M428 263l-1-1c-2 0-3 1-3 2l1 4h3l8-4h-4l-2 1-1-1-1-1z"/>
      <path d="M433 265h-1l-2 1v2l3 1 2-1v-3h-2zM447 263l-1-1h-2l-1 1v2l1 1h1l2-1v-2z"/>
      <path d="M437 262l-2 1-2 2 2 2h1l3-3v-2h-2zM449 265l-1-1-1-1-2 2v1l1 1 2 1 2-2-1-1z"/>
      <path d="M444 267l1 1h1c0 1 0 0 0 0l2 3h3c1 0 0 0 0 0l3-3-1-1s1-2-1-2h-3l-2 2-1-1-1-1h-1l-1-2h-2v-1l-3 2-1 2-2 1s-1 2-2 1c-2 0-3-2-3-2l-2 1-1 2 1 3c1 1 2 2 4 1s1-3 1-3h1l4-3"/>
      <path d="M441 254v4l-1 5h-4v-4l5-5zM437 267s0 1 2 1h1v-1l2 1c2 0 2-2 2-2"/>
      <path fill="#202220" d="M422 270s-2-1 0-2h2l1-2-1-2s-5 0-5 3 3 3 3 3zM428 277v-3h1v-3l-2-2s-3 2-2 5c0 3 3 3 3 3zM452 275s5 2 5-3c0-2-2-4-3-4l-2 1-1 2 3 1c1 3-2 3-2 3z"/>
      <path fill="#4b4139" d="M428 277s-3-1-3-4 2-4 2-4-2 2-2 4c0 3 3 4 3 4zM422 270s-2 0-3-3c0-3 5-3 5-3s-5 0-4 3c0 3 2 3 2 3zM452 275h2c1 0 2 0 3-2l-1-4-2-1 2 1 1 4c-1 2-3 2-4 2h-1z"/>
    </g>
    <g fill="#4d2a15">
      <path fill="#904720" d="M397 177h-1l1-1 2-1h5l1 1 2 3-5 2-1 1v-1l-1-2z"/>
      <path fill="#202020" d="M442 247v-7l-20 6 8 7z"/>
      <path fill="#d2a567" d="M406 235l-1-2-2-1h-2v1l2 2a616 616 0 0 0 4 3h1l-2-3zM406 238h1l1 1 1 1 1 2v1h-2l-7-2 1-2 1-1h2z"/>
      <path fill="#d2a567" d="M410 243h1l1-1-1-2 1-8-6-6-1 4 2 6 1 3z"/>
      <path fill="#ab6d29" d="M406 229v3l3 9-2-2-2-11c1-5 1 1 1 1zM410 233l-1 2v3s-1-1 1-1c1-1 1 3 1 3v-6l-1-1zM410 246l-5-2-5-3h6l3 2h2l2-1v2l-3 2zM401 244l1 2h-4l6 2 1-1-4-3z"/>
      <path fill="#d2a567" d="M399 243l3 1h4v2l-4-1-2-1-1-1z"/>
      <path fill="#ab6d29" d="M412 240l1 2 1-3v-4l-2-1z"/>
      <path d="M406 235l-1-3-2-4 1-2 2 2-1 3 1 4z"/>
      <path fill="#d2a567" d="M395 245l2-1h3l4 2 1 1-7-1-3-1z"/>
      <path fill="#8f4620" d="M412 234v5l1 3-1 1h-3l2-1-1-3v-3l-1 1 1-6 2 3z"/>
      <path fill="#ab6d29" d="M400 244l-1-1c0-1 1 2 5 2h5l-1 1-3 2-1 1v-3l-3-1-1-1z"/>
      <path fill="#8f4620" d="M406 235l-5-7c-2-3-1-7-1-7l4 5v3l2 6z"/>
      <path fill="#ab6d29" d="M404 251v-2c3-4 9-6 9-6v4l-8 4h-1z"/>
      <path fill="#8f4620" d="M404 248l2-2-3-1-3-1 3 2 1 1v1zM415 249l-1-3-1-3-1 1-3 1 3 1-4 1h3l-3 2-3 1-1 1h5l6-2z"/>
      <path fill="#ab6d29" d="M415 249s-1-1-2-7l-1-7 2 2 3 4-2 8z"/>
      <path fill="#8f4620" d="M416 239l-1 5v5l3 3v-1l1-3v-4l-3-5z"/>
      <path fill="#202020" d="M419 244s1 8-1 8l-3-3 3 3 1-9v1zM415 249l-1-1-4 2c-5 2-6 1-6 1s1 1 6 0l4-2h1z"/>
      <path fill="#ab6d29" d="M407 238l1 3 2 2-1-3-3-4 1 2z"/>
      <path fill="#8f4620" d="M404 249v-2l-4-1-5-1 4 2 4 1h1v1z"/>
      <path fill="#202020" d="M404 249v-1l-5-1-4-2 4 2 5 2z"/>
      <path fill="#ab6d29" d="M406 238l-4 1-2 2h2l1-2 3-1z"/>
      <path fill="#8f4620" d="M401 232l2 2 3 2 1 2-5-2-1-4z"/>
      <path fill="#8f4620" d="M405 233l-2-1h-2l1 3 1-1-2-1h4z"/>
      <path fill="#202020" d="M415 228l22-11 11 15-19 5-10 1-5-4z"/>
      <path d="M445 235l28 24-3 2-7-2-13-13-5-6z"/>
      <path d="M480 254l-15-12-20-15v7l23 21 7 4 4-2 2-2-1-1z"/>
      <path fill="#803f1d" d="M445 237l14 13c6 5 12 10 13 9l1-1-28-23v2z"/>
      <path d="M464 260l-2 2-4-1-17-18 1-3h3z"/>
      <path fill="#202020" d="M480 254s-2 5-6 4c-5-2-29-25-29-25v3s25 22 29 23c5 1 9-3 9-3l-3-2z"/>
      <path fill="#803f1d" d="M442 241l12 13c4 4 8 7 10 7 1-1-1-3-1-3l-12-11-6-6h-3z"/>
      <path fill="#202020" d="M444 241l22 20c3 1 8-2 8-2l-2-1s-1 3-5 2c-5-1-22-20-22-20l-1 1z"/>
      <path d="M452 260l-8-8-1-3-1-4 15 15-2 1h-2z"/>
      <path fill="#202020" d="M465 260s-2 3-4 2c-3 0-4-2-4-2l-14-13v-3s15 17 18 17c2 1 3-2 3-2l1 1z"/>
      <path fill="#202020" d="M457 260s-1 2-3 2l-2-2-9-10v-2s9 12 11 13c2 0 2-2 2-2l1 1z"/>
      <path fill="#b07229" d="M448 233l9 8 4 1h-2l4 4 5 1h-3l4 4h6l-4 1 6 5-7-4-1 2-1-3c0-2-4-5-4-4l-1 2v-3l-5-4v2l-1-3-9-9z"/>
      <path d="M434 256s0 3-2 4l-4-6v-6l4 4 2 4zM445 255v-2l-1-2v-3l-1-2v-2h-1l-2 2-1 2 1 4 1 3 2 1 2-1z"/>
      <path d="M442 260v-4l-3-7-1-2-2-1-1 2v2l3 6 4 4z"/>
      <path fill="#202020" d="M440 247l1 3 2 5-1 1 3 2v-3l-1-1-2-6 1-3 1 6 1 1-1-4v-3-2-2l1 1 1-2v-8l-9 11 3 4z"/>
      <path fill="#202020" d="M440 246l1 6 1 4v4l-3-9-1-4h-1l3-1z"/>
      <path d="M439 262v-4l-4-6-3-3-2-3v5l4 7 5 4z"/>
      <path fill="#202020" d="M426 248l1 2v2l2 5c1 2 2 4 3 3l2-2-2 2-3-9-1-1-2-2zM435 255l-2-4-2-2v-3l2 2 2 1 1 3-1 3z"/>
      <path fill="#5c3a1d" d="M430 251l1 3 4 4-4-3-1-4z"/>
      <path fill="#202020" d="M436 249l1-2h1l-1-1-2-2 1 3v2zM435 249l3 7 1 5-1-3-3-7v-2z"/>
      <path d="M439 246v-11l-4-8-1 1-4-2v6l7 13 2 1z"/>
      <path fill="#8b441f" d="M425 251l2 1-1-4-10-13 9 16z"/>
      <path fill="#8b441f" d="M431 246l-1 5c-2 0-11-13-13-14l-6-5 7 1 12 12 1 1z"/>
      <path fill="#202020" d="M425 251l-1-3-1-3-7-10-3-2a20 20 0 0 0 0 3l5 7 7 8z"/>
      <path d="M435 249v-4l-5-13-2 1-3-3-2-2 1 5-1 2 5 7 7 7zM441 242l2-1-1-6-4-13h-1l-2-2 1 8 3 10 1 3 1 1z"/>
      <path fill="#202020" d="M430 245l-5-6-2-4h-2c-2 0-3-2-3-2s-1 2 4 7c6 6 8 5 8 5z"/>
      <path fill="#8b441f" d="M439 247v-12l-4-8 4 10-1 5-1-5-2-3 3 11c-2 0-8-13-8-13 0-1 0 0 0 0s5 16 9 15z"/>
      <path d="M442 215l3 6 1 6v5s0 9-1 10l-2-2-2-10-2-12 1-2h1l1-1z"/>
      <path fill="#8b441f" d="M435 249v-3l-1 1-2-4-1-2-1 2-6-8h-1s7 15 12 14z"/>
      <path fill="#202020" d="M432 243v-4l-2-7h-2l-3-2a49 49 0 0 0 7 13zM436 240l-3-9-3-5v4l3 4 3 6zM442 232l-1-7-2-7h1l2 2-1-4h-1-1v1h-1v5l2 5 2 5zM446 232s1-7-1-12c-1-4-3-5-3-5l3 8 1 9zM439 235l-2-9-1-5-2-1 1 5v2l2 3 2 5z"/>
      <path fill="#904720" d="M443 244l-1-10-4-12 4 15c-1 1-2-4-2-4-1 0 3 9 1 9l-1-2v2s1 2 3 2zM444 240l-1-11-2-10 3 10 1 12-2-1v-1l1 1z"/>
      <path fill="#312317" d="M431 249c1 0 1 3-1 2-1 0-4-2-4-4l4 4 1-5v3z"/>
      <path fill="#d2a567" d="M439 213h3l2-3-1-4 1 3c0 3 1 6-3 7h-2v-3z"/>
      <path fill="#8f4620" d="M436 207l3 6v5l-1-1-2-10z"/>
      <path fill="#1e2121" d="M399 211l14 20 17-19-11-12z"/>
      <path d="M417 199l-1 3 2 5 2 3 4 2 1-2v-3h3l2-2 2-4v-1l-1-1-3-6-2 2-1 1-2-2-2 4-3-2z"/>
      <path fill="#5c3818" d="M424 212l1-2v-8l-2-6c-1 1 2 5 1 10l-1 6h1zM425 204s2 4 3 2v-7l-2-4h1l1 4c1 2 2 7 0 8-1 1-3-2-3-2v-1z"/>
      <path fill="#8f4620" d="M417 207l2-2 1 1 1 2 2 3 1 2h-1l-1 1-3-2-1-1-1-4z"/>
      <path fill="#d2a567" d="M423 235a432 432 0 0 1-14-11l-1-4 3 1 5-2 1-2 6-3 3-2h7l2-4 3 6v8l-4-2s2 8 0 8l-4-3s1 7-1 7l-6-3s2 5 0 6z"/>
      <path fill="#8f4620" d="M421 226l2 3v4c-1 1-3-1-4-4l-2-5 4 2zM436 209s2 11 1 11c-1 1-5-3-5-3l-6-9-1-1h3l8 2zM417 230l-2-2-4-4-3-4-1-1 1-1h1l8 6v6zM428 230l-7-6-5-6v-3h1l11 15zM429 225l-3-3-1-3 4 6zM432 224c-1 1-3-2-5-6l-3-3-2-1 1-1 1-1 2-1 5 11 1 2z"/>
      <path fill="#ab6d29" d="M418 233l-2 1c-1 0-9-4-13-10l-4-7 2-2 12 15 5 3z"/>
      <path fill="#8f4620" d="M418 233l-2 1s-4-1-9-7l-7-10v-2l2-1 8 13 8 6z"/>
      <path d="M426 228l-4-4-5-8 1-1v-2l1-1 2 1 3 4 1 2 2 5-4-3c0 1 4 6 3 7zM421 226l1 3c-1 0-1 1-2-1l-3-4-1 3-4-4-3-5v-3-3 1l1 1 5 5 1-1 3 6 2 2zM403 218l7 10c4 4 8 5 8 5l-11-13-4-2zM431 222l-4-4-2-7v-5l5 6 2 5-3-1 2 6zM436 218l-3-3-1-4-2-4v-5h2l3 3 1 5v8zM406 229l-5-8-2-4h1s1 5 6 10 7 5 7 5v4l-7-7z"/>
      <path fill="#202020" d="M412 235l-8-9-6-8 1-2a61 61 0 0 0 13 19zM418 233l-8-8-4-5h2l3 5 7 8zM417 224l-4-5-3-5 5 4h1v3l1 3zM418 210v4l-1 1 2 3 3 3-2-4c-1-1-2-2-1-4l3 2 3 4-2-5-5-4z"/>
      <path fill="#202020" d="M429 217l-2-5-2-7v4l-2 4h-2l1 1 2-1 1-2 2 3 2 3z"/>
      <path fill="#202020" d="M425 205s3 3 4 2v-5h2l1-2 4 7 2 7-4-7c-1-4-2-5-3-5v4l2 5 1 4-2-3-2-2-2-2-3-1v-2z"/>
      <path fill="#171717" d="M416 218l2 5a281 281 0 0 1-2-5z"/>
      <path fill="#8f4620" d="M433 219h-1l1 3 2 1-1-2v-2h-1z"/>
      <path fill="#d2a567" d="M402 200l-2 1-2 4 1 7a523 523 0 0 0 8 9l2-5v-4l2 3 4 3 3-5-5-13-3-1-8 1z"/>
      <path fill="#ab6d29" d="M413 210l2 5v3s3-3 3-5l-1-8v-7l-1-1-3 5v8zM404 207l1 7 2 4 2-6-1-7-1-6-3 8z"/>
      <path fill="#45392d" d="M397 197s-4 6-4 10c0 3 1 2 2 5l1 8 1-1v-22z"/>
      <path fill="#ab6d29" d="M397 198s-4 6-3 9l1 5 2 8 2-2 2-2-1-3-1-3-1-1v-5l1-4v-2h-2z"/>
      <path fill="#dbad6c" d="M416 208l-2-1-1-2v-1l3 4z"/>
      <path fill="#d2a567" d="M398 199s-3 5-3 9l3 9v-1-12l1-4v-1h-1z"/>
      <path fill="#8f4620" d="M404 200v2l-2 3-1 4 1-3 1-1 1 3-2 3v3l1-3 1-1 1 3 1-3 1-2v-1-6c1 0 3 0 2-1l-2-3-3 3z"/>
      <path fill="#dbad6c" d="M416 211h-2l-1-1 1-1 1 1 1 1z"/>
      <path fill="#8f4620" d="M400 212l-1 2-1 2v-4l-1-3c0-1 0 0 0 0v-3-2l-1 1-1 1 1-2 2-4 1-2h1l2 2-2 2s-1-1-1 4l1 6zM412 200v4l-2 2v3l1-2 1-1 1 2 1 4v-2h1l1 1-1-1-1-2-1-3 2 1 2 2-1-2v-3-3-3l-4 3z"/>
      <path fill="#1e2121" d="M426 196l1 4 1 5-2-5-2-5-1 2 1 6-1-3-1-3-1 3 2 3-1-1-1-1v3l2 2-2-2h-1l1 4 2 4-2-4-2-11 2-2 2-6 1 5 2 2zM415 194l1 2 1 1c1 1-2 2-3 3l-5 2v-2l3-2 2-3 1-1zM400 199s1 3 2 3l5-4 1-2-1-1-5 5-2-1zM401 195l-1 3v1h-3v-2l2-1 2-1zM427 191l2 4 2 4-2-3-2-1v-2-2z"/>
      <path fill="#dbad6c" d="M397 197h1l1-1 1-1v3l2 2 3-2 2-2 1 3c0 2 1 2 3 1l3-4 1-1 1-2 2-7-1-1-2 1-2-1h-1l-1 2-1 1h-3v-1l-1-1v-1l-4 3h-1l-2 3-1 2-2 3 1 1z"/>
      <path fill="#8f4620" d="M412 189l-1 5-2 5 5-5 1-8-3 3zM416 186v3l-1 6 1 1c0 1 1 3 2 2l3-3 2-3c0-1 0 0 0 0l1 2 2 2 1-2-1-5-2-6-2-2-3 1-3 4z"/>
      <path fill="#ab6d29" d="M422 181l1 5v0l-1-3v-2z"/>
      <path d="M427 191v3l-2-4-2-6-1-3h2l3 10zM418 197s4-2 4-8l-1-8s0 5-2 8l-2 6 1-1 1-2v3l-1 2zM415 186l-2 3-4 2 3-3v-3l-1 2-2 1 1-2v-1l2-3 1 3 2 1z"/>
      <path fill="#1e2121" d="M426 179l1 5v7l-2-4-1-4-1-1h-1l1-2v-1h3zM418 192l3-6v-5h-2l-2-3v4l-2 4h2c2-1 2-3 2-3v3l-1 6z"/>
      <path fill="#8f4620" d="M395 197l3-5a20785 20785 0 0 1 8-9l1 3 2 2-1 3-1 5v-5l-1 2-2 2 2-3v-2l-1 1h-1l1-1 1-2v-1-1l-2 1-1 2-2 3-1 4h-1l1-3 2-4h-1l-3 3-1 5h-2z"/>
      <path fill="#874f20" d="M427 177s1 2-1 2h-3v-2h4z"/>
      <path fill="#b27129" d="M402 181l-1 3-2 3 2 1 1-6v-1z"/>
      <path fill="#dbad6c" d="M418 178s-1 8-3 8-3-4-3-4-1 6-4 6l-2-5-2 4c-3 2-5 1-5 0 0 0 3-2 3-6h1l2-2 4-2 2-2h1l2-2 4 3v2z"/>
      <path fill="#b27129" d="M409 170l3 5 1-1 1 2c-1 1-2 3-1 5v-3l1-1 2 7 1-6c0-2 0 0 0 0 1 1 3 4 5 4l1-5-1-5-8-5-1 3h-4z"/>
      <path fill="#8f4620" d="M420 169l1 3v8l-3-2-1-5-1-4v-2l2-1 2 3z"/>
      <path d="M420 167l3 5 3 5h1s-1 2-4 1l-2-6c-1-3-4-5-4-5l1-1 2 1z"/>
      <path fill="#1e2121" d="M418 164l4 5 3 5 2 3h-1l-2-2-3-5-3-3 2 3 1 4-1-3-4-4 2 4 2 4-3-3-2-3-2-2 3-1 2-2z"/>
      <path fill="#8f4620" d="M410 170h4l1 2-1 3-1-2-3-3z"/>
      <path fill="#b27129" d="M411 175v5c0 3-2 6-3 6v-5l-1 2 1-4v-1l2-2 1-1z"/>
      <path fill="#8f4620" d="M407 177l-2 1-1 2 1-1v2l-3 4 3-3 1-3 2-1 1 1v3l1-3 1-4h-1l-2-1-1 3z"/>
      <path fill="#dbad6c" d="M418 162s1 2-1 4h-4l-5-2-3-1-1-1v-1h4l4 2h6v-1z"/>
      <path fill="#ab6d29" d="M418 162l-1 2h-3l-4-2-5-1c-1 0 0 0 0 0h5l5 2 3-1z"/>
      <path d="M404 161h1l1-1v1h-2z"/>
      <path fill="#dbad6c" d="M414 167s2 2 1 3l-3-1-6-3-3-1 1-1v-1h3l4 2 3 2zM410 169s3 5 2 6l-7-5-3 5-6-3 6-5v-1l3 1 4 1 1 1z"/>
      <path fill="#ab6d29" d="M408 163l5 2 4 1-3 1-3-2-3-1v-1z"/>
      <path d="M404 162l3 1h2l-1 1-3-1h-1v-1z"/>
      <path fill="#ab6d29" d="M414 169l1 1-2 1-3-1-3-2-4-1-1-1h1l4 1 4 1 2 1h1zM407 172l1 3-1 2-1 1-1-1v-2l-3-1 2-2v-2l3 2z"/>
      <path d="M403 165l2 1h4-1l3 1 3 2-3-1-4-1-5-1c-1 0 0 0 0 0l1-1z"/>
      <path fill="#ab6d29" d="M412 174v1c-1 1-3 1-4-1l-1-1-3-2v-1l5 2 3 2z"/>
      <path d="M412 174s-1-2-6-4h-1l-1-1-3-1-1 1-1 1h3l2 1-2 3 2-2 2 1v-1l-1-2 4 2 3 2z"/>
      <path fill="#dbad6c" d="M404 170s4 2 4 5c0 4-3 4-3 2l1 1 1-3-1-3-2-2z"/>
      <path fill="#6c3f18" d="M389 161l-1 3-3 6c-3 3-5 3-4 4 0 2 1 1 2 1l5-7 1-5v-2z"/>
      <path fill="#dbad6c" d="M402 155s1 3 1 7c-1 4-6 8-6 8l-9 6h-4l-1-1-1-1 1-2 3-3 2-2 1-4v-2 1l1 3-1 2 3-1 2-2 2-1 1-5v-3l1 3 1 3 1-1 1-2 1-3z"/>
      <path fill="#904720" d="M403 177v2c0 2-1 3-2 3v-2l-2-2h-2l1-1 2-1 3 1z"/>
      <path fill="#ab6d29" d="M401 177l2 1 1-3-1 2-2-2-3 1h2v1h1z"/>
      <path fill="#904720" d="M389 171h2l5-1 2-2c1-1 4-3 4-6v-7s4 5 0 11c-2 4-5 5-5 5s5-1 5 0v3s2 0 3 2l-5-1-4 2h-2l-4 1-6-2 3-3 2-2z"/>
      <path fill="#ab6d29" d="M399 161l2-3 1-3-1 3-2 3z"/>
      <path fill="#904720" d="M398 157s2 6 0 8c-1 2-8 5-8 5s5-2 7-6l1-6v-1z"/>
      <path fill="#1e2121" d="M391 171h4l3-3-2 2-1-2-1 2-3 1zM396 164s2-2 2-6-1-3-1-3l1 4-2 5zM399 165l3-2v-4l-1 3-2 3zM398 177s1-2 2-1l1 1-1-1-2 1zM394 174l4-2 4-1-3 3-4 1 4-2-5 1z"/>
      <path fill="#fff" d="M389 169a3 4 68 0 1-4 6"/>
      <path fill="#f16e16" d="M389 169a3 3 68 0 1-4 5"/>
      <path fill="#000" d="M387 171a1 1 0 1 1-1 2"/>
      <path fill="#d5d3ca" d="M387 173v-1 1z"/>
      <path fill="#ab6d29" d="M390 167l2-5v-4l1 1 1 2-1 3 2-1 2-8v5c-1 4-2 4-5 6-1 1-3 2-5 6l-3 4 2-4 3-4 1-1z"/>
      <path fill="#904720" d="M389 168l1-4-1-3 1 3-1 4z"/>
      <path d="M393 165l1-4-2-3s2 0 2 3l-1 4z"/>
      <path fill="#ab6d29" d="M383 176v-2l2-3 3-4c0-1 2-4 1-6l-1 6-5 5-1 2v1l1 1z"/>
      <path fill="#6c4119" d="M401 182l1-1-1-2-2-1-3-1 2 2h2l1 3z"/>
      <path fill="#6c4119" d="M401 182s2-1 2-3v-1h2s-1 4-4 4z"/>
    </g>
    <g fill="#f9c83a">
      <path fill="#bf802d" d="M387 181l1 1 1 2 5-2 2-1-2-2h-3l-4 2z"/>
      <path d="M399 180l-1-2h-1l-4-1-2 1h-2l-3-1-2-1-3-1-2 2 1 1h-1s-4 2-4 6c-1 3 6 9 8 6 0 0-3-3-3-5 1-2 3-4 6-4l4-1h5c2 2-6 4-6 4v1s11-3 10-5z"/>
      <path fill="#fcf3d8" d="M380 188s-4-1-4-4c0-4 4-6 4-6l2-2 2 1 2 1s-7 3-7 7l1 3z"/>
      <path fill="#fdeaaf" d="M399 179h-1l-4-1h-7l-5-2-1 1-1 1c-1-1 1-3 2-3 3 0 6 3 8 3l4-1 5 2z"/>
      <path fill="#513625" d="M387 182l3-1 3-1-2 2h-4z"/>
      <path d="M382 191l-4-2c-3-1-3-4-3-4s-1-3 2-5l2-2c1 0 0 0 0 0l-2 2-1 2-1 1v2l1 2 4 2 2 2z"/>
      <path fill="#8b5122" d="M380 176l-1 1v1h1v-1a4 4 0 0 1 0-1h1-1z"/>
      <path d="M387 180l-5 1h6c2-1 6-2 7 0l-6 2v1l5-1 2-1 1-2-2-1h-5l-3 1z"/>
      <path fill="#8f4620" d="M380 187l2 3h-2c-1 0-4-1-5-5v1l1 1 1 2 3 1 1 1 2-1-1-1-2-3v1z"/>
    </g>
    <g fill="#816c2a">
      <path fill="#fcca3d" d="M396 230v2-2zM390 185l-1-2h-1l1 3z"/>
      <path d="M396 234l-2-1-3-1a14 14 0 0 0 5 2zM396 230h-2-1l-2 1a5 5 0 0 1 3-1 30 30 0 0 1 2 0zM396 227l-3 1-3 2h1a24 24 0 0 1 5-3zM394 223l-1 2-1 1-2 2-1 1 2-2a114 114 0 0 0 3-2v-2zM391 221v3l-2 3v1l-1 1h1l2-5a6 6 0 0 0 0-3zM388 221a12 12 0 0 0 0 2v2a145 145 0 0 1-1 3v1l1-4 1-2-1-2zM386 221v4l-1 3 1-1v-2-4zM384 221a16 16 0 0 0 0 4l-1 3h1a30 30 0 0 1 0-3v-2-2zM382 222v3l-1 2-1 2h1l1-4v-3zM380 222a10 10 0 0 0 0 1l-1 2-1 2-1 1h-1 1l3-3v-2-1zM379 221v1l-2 2a9 9 0 0 1-2 2l3-2 1-3zM377 220l-1 1-1 1a10 10 0 0 1-2 1l1 1v-1l2-1 1-1v-1zM376 219h-1a23 23 0 0 1-1 2l-1 1 1-1 2-2z"/>
      <path d="M375 218l-1 1-1 1h1l2-1-1-1zM375 217l-1 1a14 14 0 0 1-1 0v1l2-1v-1zM374 216l-1 1 1-1h1-1zM375 213h-1l-1 2 1-1 1-1zM389 196h2v-1 1h-1 1-1 1-1l1-1v1-1 1-1 1-1 1-1h-1-1v1zM389 195l1-1h1l1-1h-1l-1 1h-1v1zM389 193l1-1 1-1h1v-1l-1 1-1 1h-1v1zM388 191l2-2 2-1-2 1-2 1v1zM386 189l5-3v-1l-5 3v1zM385 187l2-2 2-1v-1l-2 2-3 1 1 1zM383 186a173 173 0 0 1 5-4l-1 1-4 2v1z"/>
      <path fill="#78732e" d="M386 181a402 402 0 0 0 4 4l2 5v1c0 2-1 5-3 7l-9 8-4 4-2 5 2 4a6 6 0 0 0 5 3l7-1 6 2c2 2 2 5 2 8a32 32 0 0 1-1 7v1h1l1-8c0-3-1-6-3-8-1-2-4-2-6-2h-7-1l-4-2-1-4 2-6 9-8c4-3 6-6 7-10v-1l-3-6-3-3h-1z"/>
      <path fill="#a8ac71" d="M383 185h-1l1 1zM385 187l-1-1v1z"/>
      <path fill="#78732e" d="M387 189l-1-1v1zM388 191v-1h-1l1 1zM389 193v-1h-1v1zM389 195v-1 1zM389 196v-1 1zM373 215v-1 1h-1 1z"/>
      <path fill="#fff" d="M373 217h-1 1z"/>
      <path fill="#78732e" d="M373 219v-1h-1v1z"/>
      <path fill="#fff" d="M373 220zM373 222zM374 224l-1-1 1 1z"/>
      <path fill="#a8ac71" d="M375 226h-1l1 1zM377 228h-1 1zM390 229h-1 1z"/>
      <path fill="#fff" d="M391 230h-1 1z"/>
      <path fill="#a8ac71" d="M391 231zM391 232z"/>
      <path fill="#fff" d="M390 234h1-1zM371 166v1-1z"/>
    </g>
    <g>
      <path fill="#f9c83a" d="M387 181c-1 0 0 0 0 0z"/>
      <path fill="#8f4620" d="M387 181l-1 1 1-1z"/>
      <path fill="#977c2e" d="M395 239l1-1v1h-1z"/>
    </g>
  </g>
</svg>
