<?xml version="1.0" encoding="UTF-8" standalone="no"?>
<!DOCTYPE svg PUBLIC "-//W3C//DTD SVG 1.1//EN" "http://www.w3.org/Graphics/SVG/1.1/DTD/svg11.dtd">
<svg width="100%" height="100%" viewBox="0 0 80 80" version="1.1" xmlns="http://www.w3.org/2000/svg" xmlns:xlink="http://www.w3.org/1999/xlink" xml:space="preserve" style="fill-rule:evenodd;clip-rule:evenodd;stroke-linejoin:round;stroke-miterlimit:1.41421;">
    <g transform="matrix(0.28337,0,0,0.28337,3.84199,1.53459)">
        <path d="M0.1,45.522L125.91,0.697L255.1,44.725L234.19,211.185L125.91,271.145L19.33,211.975L0.1,45.525L0.1,45.522Z" style="fill:rgb(226,50,55);fill-rule:nonzero;"/>
    </g>
    <g transform="matrix(0.28337,0,0,0.28337,4.24678,1.53459)">
        <path d="M125.34,63.71C125.06,63.758 124.783,63.82 124.51,63.895C124.324,63.919 124.139,63.95 123.956,63.987C123.863,64.016 123.771,64.047 123.679,64.079C123.617,64.109 123.556,64.14 123.495,64.171C122.713,64.406 121.968,64.748 121.28,65.186C121.218,65.247 121.156,65.309 121.096,65.371C119.375,66.565 118.132,68.331 117.589,70.354L96.919,119.9C101.885,122.979 107.384,125.34 113.251,126.728L125.984,96.279L139.917,131.896C135.497,132.917 130.905,133.464 126.169,133.464C105.405,133.464 87.212,123.077 76.25,107.259C74.446,104.557 71.264,103.091 68.037,103.477C63.702,103.982 60.395,107.696 60.395,112.061C60.395,113.882 60.971,115.658 62.039,117.132C76.114,137.443 99.642,150.718 126.167,150.718C133.108,150.718 139.859,149.748 146.281,148.042L167.503,202.206C168.696,205.831 172.103,208.297 175.919,208.297C180.778,208.297 184.778,204.298 184.778,199.438C184.778,198.13 184.488,196.838 183.929,195.655L162.799,141.685C173.855,135.823 183.31,127.35 190.387,117.141C191.403,115.688 191.948,113.957 191.948,112.184C191.948,107.438 188.043,103.533 183.297,103.533C180.457,103.533 177.791,104.931 176.177,107.268C171.033,114.689 164.296,120.927 156.431,125.445L134.751,69.98C134.576,69.501 134.36,69.038 134.105,68.596C134.075,68.534 134.045,68.473 134.013,68.412C133.774,67.958 133.496,67.526 133.182,67.12C133.152,67.058 133.122,66.997 133.09,66.935C132.942,66.776 132.788,66.622 132.629,66.474C132.568,66.412 132.507,66.35 132.444,66.29C132.296,66.13 132.142,65.976 131.983,65.828C131.922,65.766 131.861,65.704 131.799,65.644C131.619,65.514 131.434,65.391 131.244,65.275C130.948,65.071 130.64,64.887 130.321,64.721C130.11,64.62 129.895,64.528 129.677,64.444C129.615,64.413 129.554,64.382 129.492,64.352C129.279,64.282 129.063,64.221 128.845,64.167C128.573,64.061 128.297,63.969 128.016,63.89C127.439,63.771 126.851,63.709 126.262,63.706C125.955,63.69 125.647,63.69 125.34,63.706L125.34,63.71ZM86.216,145.65L79.296,162.25C78.744,163.427 78.458,164.711 78.458,166.011C78.458,170.87 82.457,174.87 87.317,174.87C91.018,174.87 94.347,172.55 95.628,169.078L102.548,152.377C96.819,150.687 91.36,148.467 86.215,145.647L86.216,145.65Z" style="fill:white;fill-rule:nonzero;"/>
    </g>
</svg>
