<svg width="77" height="56" viewBox="0 0 77 56" xmlns="http://www.w3.org/2000/svg" xmlns:xlink="http://www.w3.org/1999/xlink"><defs><path d="M.15 11.94h69.7V45.8H5.2c-2.8 0-5.05-2.26-5.05-5.05v-28.8z" id="a"/></defs><g transform="rotate(10 15.424 44.65)" fill="none" fill-rule="evenodd"><use fill="#F8DA7E" xlink:href="#a"/><use fill="#FCC57B" xlink:href="#a"/><path d="M69.85 45.35H4.8c-2.57 0-4.65-2.08-4.65-4.65V3.58h64.3c2.98 0 5.4 2.42 5.4 5.4v36.37zM.15 12.05h69.7" stroke="#333A3E" stroke-width="2"/><circle fill="#FFF" cx="27.1" cy="26.02" r="18.2"/><circle fill="#9E9E9E" cx="27.1" cy="26.02" r="13.69"/><circle fill="#C5E1ED" cx="27.1" cy="26.02" r="13.69"/><circle stroke="#333A3E" stroke-width="2" cx="27.1" cy="26.02" r="18.2"/><path d="M52.4.2h-5.45C45.5.2 44.3 1.36 44.3 2.82v.75h10.74v-.75C55.04 1.37 53.86.2 52.4.2z" stroke="#333A3E" stroke-width="2" fill="#F8DA7E"/><g fill="#9EB6C7" opacity=".5"><path d="M27.1 32.09c-7.56-.02-13.7-2.73-13.7-6.08 0 7.56 6.14 13.7 13.7 13.7S40.8 33.57 40.8 26c0 3.35-6.14 6.07-13.7 6.07v-.02z"/><path d="M27.1 19.95c7.56 0 13.7 2.72 13.7 6.07 0-7.56-6.14-13.7-13.7-13.7s-13.7 6.14-13.7 13.7c0-3.35 6.14-6.07 13.7-6.07z"/></g><circle stroke="#333A3E" stroke-width="2" cx="27.1" cy="26.02" r="13.69"/><g opacity=".5" transform="translate(16 15)"><circle fill="#267BBD" cx="11.1" cy="11.02" r="10.93"/><circle fill="#333A3E" opacity=".75" cx="11.1" cy="11.02" r="3.11"/></g><path fill="#FFF" d="M51.1 7.8h10.7v6.5H51.1z"/><path fill="#74AAD5" opacity=".5" d="M51.1 7.8h10.7v6.5H51.1z"/><path d="M51.1 7.8c.08 1.74 1.5 3.12 3.23 3.12h4.23c1.75 0 3.16-1.38 3.24-3.1H51.1z" fill="#8AB7DB" opacity=".75"/><path stroke="#333A3E" stroke-width="2" d="M51.1 7.8h10.7v6.5H51.1z"/><circle fill="#F2F2F2" opacity=".5" cx="33.87" cy="18.11" r="1.41"/><circle fill="#F2F2F2" opacity=".5" cx="30.48" cy="22.63" r="3.24"/></g></svg>