<svg width="117" height="93" viewBox="0 0 117 93" xmlns="http://www.w3.org/2000/svg"><g transform="rotate(-10 106.435 1.495)" fill="none" fill-rule="evenodd"><path fill="#C5E1ED" d="M0 .95h102.27v72.92H0z"/><ellipse fill="#F3DFC5" cx="57.57" cy="37.41" rx="31.65" ry="31.54"/><path stroke="#333A3E" stroke-width="2.4" d="M0 .95h102.27v72.92H0z"/><ellipse fill="#333A3E" opacity=".75" cx="57.57" cy="37.41" rx="31.65" ry="31.54"/><g opacity=".5" fill="#333A3E"><path d="M75.8 11.32c-9.3-6.44-20.83-7.25-30.55-3.2l12.32 29.3 31.84 1.34c.45-10.5-4.3-21-13.6-27.44zM69.9 66.7L57.56 37.4l-31.84-1.34c-.44 10.5 4.32 21 13.6 27.44 9.3 6.45 20.83 7.26 30.56 3.2z"/></g><ellipse stroke="#333A3E" stroke-width="2.4" cx="57.57" cy="37.41" rx="31.83" ry="31.72"/><ellipse fill="#FC7C7B" cx="57.57" cy="37.41" rx="11.19" ry="11.15"/><path d="M20.6.95v72.92" stroke="#333A3E" stroke-width="2.4"/><ellipse stroke="#333A3E" stroke-width="2.4" fill="#FC7C7B" cx="93.47" cy="54.63" rx="2.79" ry="2.78"/><ellipse stroke="#333A3E" stroke-width="2.4" fill="#98C8B6" cx="93.47" cy="63.6" rx="2.79" ry="2.78"/><ellipse stroke="#333A3E" stroke-width="2.4" fill="#D4C09E" cx="90.47" cy="10.18" rx="4.18" ry="4.17"/><path d="M90.47 10.18l-9.05 34.77M81.42 44.95l-5.94 3.48" stroke="#333A3E" stroke-width="2.4"/><path stroke="#333A3E" stroke-width="2.4" fill="#FDCC9A" d="M77.34 45.1l1.96 3.32-5.7 3.35-1.96-3.32z"/><g fill="#FF9D9B"><path d="M46.76 34.53c-1.02 3.82.08 7.7 2.58 10.42l8.23-7.54-3.34-10.62c-3.53 1.1-6.44 3.92-7.47 7.75zM65.8 29.88l-8.23 7.53 3.34 10.64c3.54-1.1 6.44-3.92 7.47-7.74 1.03-3.83-.07-7.7-2.57-10.42z"/></g><ellipse fill="#333A3E" cx="57.57" cy="37.41" rx="2.38" ry="2.37"/><path d="M10.3 13.05v35.9" stroke="#333A3E" stroke-width="2.4"/><path d="M14.48 28.98H6.12V27.2c0-1.37 1.12-2.5 2.5-2.5h3.36c1.38 0 2.5 1.13 2.5 2.5v1.78z" stroke="#333A3E" stroke-width="2.4" fill="#FDCC9A"/><path d="M13.87 65.34H6.73c-1.5 0-2.72-1.22-2.72-2.7v-1.47c0-1.5 1.23-2.7 2.73-2.7h7.14c1.5 0 2.72 1.2 2.72 2.7v1.46c0 1.5-1.23 2.7-2.73 2.7z" stroke="#333A3E" stroke-width="2.4" fill="#C5E1ED"/><ellipse stroke="#333A3E" stroke-width="2.4" cx="57.57" cy="37.41" rx="11.19" ry="11.15"/></g></svg>