<?xml version="1.0" encoding="UTF-8" standalone="no"?>
<svg width="40px" height="40px" viewBox="0 0 40 40" version="1.1" xmlns="http://www.w3.org/2000/svg" xmlns:xlink="http://www.w3.org/1999/xlink" xmlns:sketch="http://www.bohemiancoding.com/sketch/ns">
    <!-- Generator: Sketch 3.3.3 (12072) - http://www.bohemiancoding.com/sketch -->
    <title>cart</title>
    <desc>Created with Sketch.</desc>
    <defs></defs>
    <g id="Page-1" stroke="none" stroke-width="1" fill="none" fill-rule="evenodd" sketch:type="MSPage">
        <g id="colored-icons" sketch:type="MSLayerGroup" transform="translate(0.000000, -248.000000)" fill="#448CC0">
            <g id="cart" transform="translate(0.000000, 248.000000)" sketch:type="MSShapeGroup">
                <rect id="Rectangle-10483-Copy" fill-opacity="0.16" x="3.63636364" y="3.63636364" width="36.3636364" height="36.3636364" rx="27.2727273"></rect>
                <path d="M1,18.1818182 L1,18.1818182 C1,27.6725009 8.69178065,35.3636364 18.1818182,35.3636364 C27.6725009,35.3636364 35.3636364,27.6718557 35.3636364,18.1818182 C35.3636364,8.69113548 27.6718557,1 18.1818182,1 C8.69113548,1 1,8.69178065 1,18.1818182 L1,18.1818182 Z M0,18.1818182 C0,8.14027728 8.13806942,0 18.1818182,0 C28.2233591,0 36.3636364,8.13806942 36.3636364,18.1818182 C36.3636364,28.2233591 28.2255669,36.3636364 18.1818182,36.3636364 C8.14027728,36.3636364 0,28.2255669 0,18.1818182 L0,18.1818182 Z" id="Shape"></path>
                <rect id="Rectangle-2069" x="12" y="12" width="12" height="1"></rect>
                <rect id="Rectangle-2069-Copy" x="12" y="17" width="12" height="1"></rect>
                <rect id="Rectangle-2069-Copy-2" x="12" y="22" width="12" height="1"></rect>
            </g>
        </g>
    </g>
</svg>