<?xml version="1.0" encoding="UTF-8" standalone="no"?>
<svg width="32px" height="32px" viewBox="0 0 32 32" version="1.1" xmlns="http://www.w3.org/2000/svg" xmlns:xlink="http://www.w3.org/1999/xlink" xmlns:sketch="http://www.bohemiancoding.com/sketch/ns">
    <!-- Generator: Sketch 3.3.3 (12072) - http://www.bohemiancoding.com/sketch -->
    <title>discount-blue</title>
    <desc>Created with Sketch.</desc>
    <defs></defs>
    <g id="Page-1" stroke="none" stroke-width="1" fill="none" fill-rule="evenodd" sketch:type="MSPage">
        <g id="colored-icons" sketch:type="MSLayerGroup" transform="translate(-44.000000, -319.000000)" fill="#448CC0">
            <g id="discount-blue" transform="translate(44.000000, 319.000000)" sketch:type="MSShapeGroup">
                <rect id="Rectangle-10483" fill-opacity="0.16" x="2.90909091" y="2.90909091" width="29.0909091" height="29.0909091" rx="21.8181818"></rect>
                <path d="M1,14.5454545 L1,14.5454545 C1,22.02754 7.06387772,28.0909091 14.5454545,28.0909091 C22.02754,28.0909091 28.0909091,22.0270314 28.0909091,14.5454545 C28.0909091,7.06336909 22.0270314,1 14.5454545,1 C7.06336909,1 1,7.06387772 1,14.5454545 L1,14.5454545 Z M0,14.5454545 C0,6.51222182 6.51045553,0 14.5454545,0 C22.5786873,0 29.0909091,6.51045553 29.0909091,14.5454545 C29.0909091,22.5786873 22.5804536,29.0909091 14.5454545,29.0909091 C6.51222182,29.0909091 0,22.5804536 0,14.5454545 L0,14.5454545 Z" id="Shape"></path>
                <path d="M17.736,19.08 C16.9418182,19.08 16.3156364,18.2552727 16.3156364,17.2014545 L16.3156364,17.1709091 C16.3156364,16.1476364 16.8807273,15.3229091 17.7054545,15.3229091 C18.4996364,15.3229091 19.1258182,16.1476364 19.1258182,17.2014545 L19.1258182,17.232 C19.1258182,18.2552727 18.576,19.08 17.736,19.08 L17.736,19.08 Z M11.4436364,13.6123636 C10.6494545,13.6123636 10.0232727,12.7876364 10.0232727,11.7338182 L10.0232727,11.7032727 C10.0232727,10.68 10.5730909,9.85527273 11.4130909,9.85527273 C12.192,9.85527273 12.8334545,10.68 12.8334545,11.7338182 L12.8334545,11.7643636 C12.8334545,12.7876364 12.2683636,13.6123636 11.4436364,13.6123636 L11.4436364,13.6123636 Z M17.7054545,19.9352727 C19.1716364,19.9352727 20.1338182,18.6523636 20.1338182,17.2014545 L20.1338182,17.1709091 C20.1338182,15.7505455 19.2021818,14.4676364 17.736,14.4676364 C16.2850909,14.4676364 15.3076364,15.7505455 15.3076364,17.2014545 L15.3076364,17.232 C15.3076364,18.6523636 16.2850909,19.9352727 17.7054545,19.9352727 L17.7054545,19.9352727 Z M10.0996364,19.8130909 L11.1992727,19.8130909 L19.0341818,9.12218182 L17.9498182,9.12218182 L10.0996364,19.8130909 Z M11.4130909,14.4676364 C12.864,14.4676364 13.8414545,13.1847273 13.8414545,11.7338182 L13.8414545,11.7032727 C13.8414545,10.2829091 12.864,9 11.4436364,9 C9.97745455,9 9,10.2829091 9,11.7338182 L9,11.7643636 C9,13.1847273 9.96218182,14.4676364 11.4130909,14.4676364 L11.4130909,14.4676364 Z" id="%"></path>
            </g>
        </g>
    </g>
</svg>