<?xml version="1.0" encoding="UTF-8" standalone="no"?>
<svg width="44px" height="44px" viewBox="0 0 44 44" version="1.1" xmlns="http://www.w3.org/2000/svg" xmlns:xlink="http://www.w3.org/1999/xlink" xmlns:sketch="http://www.bohemiancoding.com/sketch/ns">
    <!-- Generator: Sketch 3.3.3 (12072) - http://www.bohemiancoding.com/sketch -->
    <title>mail</title>
    <desc>Created with Sketch.</desc>
    <defs></defs>
    <g id="Page-1" stroke="none" stroke-width="1" fill="none" fill-rule="evenodd" sketch:type="MSPage">
        <g id="colored-icons" sketch:type="MSLayerGroup" transform="translate(-47.000000, -244.000000)">
            <g id="mail" transform="translate(47.000000, 244.000000)" sketch:type="MSShapeGroup">
                <rect id="Mask-Copy" fill-opacity="0.16" fill="#267BBD" x="4" y="4" width="40" height="40" rx="200"></rect>
                <path d="M1,20 L1,20 C1,30.4949813 9.50573212,39 20,39 C30.4949813,39 39,30.4942679 39,20 C39,9.50501867 30.4942679,1 20,1 C9.50501867,1 1,9.50573212 1,20 L1,20 Z M0,20 C0,8.954305 8.95187636,0 20,0 C31.045695,0 40,8.95187636 40,20 C40,31.045695 31.0481236,40 20,40 C8.954305,40 0,31.0481236 0,20 L0,20 Z" id="Shape" fill="#448CC0"></path>
                <path d="M20.0823127,20.5951455 L29.3415186,13.4044367 L28.7281572,12.6146343 C28.7281572,12.6146343 20.1982074,19.4191797 20.1028901,19.3451888 C18.7083849,18.2626906 11.4499071,12.6282269 11.4499071,12.6282269 L10.836714,13.4181599 L20.0823127,20.5951455 Z" id="Shape" fill="#267BBD"></path>
                <path d="M11,13.9940603 L11,13.9940603 L11,26.0059397 C11,26.5543046 11.4446971,27 11.9907951,27 L28.0092049,27 C28.5520556,27 29,26.552393 29,26.0059397 L29,13.9940603 C29,13.4456954 28.5553029,13 28.0092049,13 L11.9907951,13 C11.4479444,13 11,13.447607 11,13.9940603 L11,13.9940603 L11,13.9940603 Z M10,13.9940603 C10,12.8927712 10.8982124,12 11.9907951,12 L28.0092049,12 C29.1086907,12 30,12.8945138 30,13.9940603 L30,26.0059397 C30,27.1072288 29.1017876,28 28.0092049,28 L11.9907951,28 C10.8913093,28 10,27.1054862 10,26.0059397 L10,13.9940603 L10,13.9940603 Z" id="Shape" fill="#267BBD"></path>
            </g>
        </g>
    </g>
</svg>