<?xml version="1.0" encoding="UTF-8" standalone="no"?>
<svg width="25px" height="25px" viewBox="0 0 25 25" version="1.1" xmlns="http://www.w3.org/2000/svg" xmlns:xlink="http://www.w3.org/1999/xlink" xmlns:sketch="http://www.bohemiancoding.com/sketch/ns">
    <!-- Generator: Sketch 3.3.3 (12072) - http://www.bohemiancoding.com/sketch -->
    <title>menu-payments-active</title>
    <desc>Created with Sketch.</desc>
    <defs></defs>
    <g id="Page-1" stroke="none" stroke-width="1" fill="none" fill-rule="evenodd" sketch:type="MSPage">
        <g id="colored-icons" sketch:type="MSLayerGroup" transform="translate(-3.000000, -40.000000)" fill="#3E8BC2">
            <g id="menu-payments-active" transform="translate(3.000000, 40.000000)" sketch:type="MSShapeGroup">
                <rect id="Rectangle-10483-Copy-3" fill-opacity="0.16" x="2.18181818" y="2.18181818" width="22" height="22" rx="16.3636364"></rect>
                <path d="M1,11 L1,11 C1,16.5237031 5.47667235,21 11,21 C16.5237031,21 21,16.5233276 21,11 C21,5.47629686 16.5233276,1 11,1 C5.47629686,1 1,5.47667235 1,11 L1,11 Z M0,11 C0,4.92486775 4.923532,0 11,0 C17.0751322,0 22,4.923532 22,11 C22,17.0751322 17.076468,22 11,22 C4.92486775,22 0,17.076468 0,11 L0,11 Z" id="Shape"></path>
                <path d="M8.08721357,10.8260173 L13.4890476,10.8260173 L13.78,10.1264935 L8.21904811,10.1264935 C8.37852173,9.59273268 8.66804457,9.11606798 9.08761905,8.69649351 C9.76444783,8.01966473 10.5898364,7.68125541 11.5638095,7.68125541 C12.5996877,7.68125541 13.5055517,8.09807664 14.2814286,8.9317316 L14.5847619,8.22601732 C13.7552339,7.39648936 12.7482599,6.9817316 11.5638095,6.9817316 C10.3793592,6.9817316 9.38579766,7.38410853 8.58309524,8.18887446 C8.0290767,8.74431721 7.66625053,9.39018695 7.49461275,10.1264935 L6.54952381,10.1264935 L6.24619048,10.8260173 L7.39088078,10.8260173 C7.382992,10.939707 7.37904762,11.0552625 7.37904762,11.172684 C7.37904762,11.2922373 7.38313653,11.4098563 7.39131436,11.5255411 L6.54952381,11.5255411 L6.24619048,12.2188745 L7.49461275,12.2188745 C7.66625053,12.955181 8.0290767,13.6010508 8.58309524,14.1564935 C9.38579766,14.9612594 10.3793592,15.3636364 11.5638095,15.3636364 C12.6450848,15.3636364 13.5509487,15.0479252 14.2814286,14.4164935 L14.2814286,13.3888745 C13.5303137,14.2390374 12.6244497,14.6641126 11.5638095,14.6641126 C10.5898364,14.6641126 9.76444783,14.3257032 9.08761905,13.6488745 C8.66804457,13.2293 8.37852173,12.7526353 8.21904811,12.2188745 L12.8947619,12.2188745 L13.1980952,11.5255411 L8.08775855,11.5255411 C8.07750681,11.4101726 8.07238095,11.2925536 8.07238095,11.172684 C8.07238095,11.0549576 8.07732515,10.9394021 8.08721357,10.8260173 Z" id="€-copy"></path>
            </g>
        </g>
    </g>
</svg>