<?xml version="1.0" encoding="UTF-8" standalone="no"?>
<svg width="25px" height="25px" viewBox="0 0 25 25" version="1.1" xmlns="http://www.w3.org/2000/svg" xmlns:xlink="http://www.w3.org/1999/xlink" xmlns:sketch="http://www.bohemiancoding.com/sketch/ns">
    <!-- Generator: Sketch 3.3.3 (12072) - http://www.bohemiancoding.com/sketch -->
    <title>menu-sales-active</title>
    <desc>Created with Sketch.</desc>
    <defs></defs>
    <g id="Page-1" stroke="none" stroke-width="1" fill="none" fill-rule="evenodd" sketch:type="MSPage">
        <g id="colored-icons" sketch:type="MSLayerGroup" transform="translate(-43.000000, -40.000000)">
            <g id="menu-sales-active" transform="translate(43.000000, 40.000000)" sketch:type="MSShapeGroup">
                <rect id="Rectangle-10483-Copy-3" fill-opacity="0.16" fill="#448CC0" x="2.18181818" y="2.18181818" width="22" height="22" rx="16.3636364"></rect>
                <path d="M1,11 L1,11 C1,16.5237031 5.47667235,21 11,21 C16.5237031,21 21,16.5233276 21,11 C21,5.47629686 16.5233276,1 11,1 C5.47629686,1 1,5.47667235 1,11 L1,11 Z M0,11 C0,4.92486775 4.923532,0 11,0 C17.0751322,0 22,4.923532 22,11 C22,17.0751322 17.076468,22 11,22 C4.92486775,22 0,17.076468 0,11 L0,11 Z" id="Shape" fill="#3E8BC2"></path>
                <g id="Oval-157-+-Oval-157-Copy-2-+-Path-314" transform="translate(5.500000, 6.000000)" fill="#448CC0">
                    <path d="M2,10 C3.1045695,10 4,9.1045695 4,8 C4,6.8954305 3.1045695,6 2,6 C0.8954305,6 0,6.8954305 0,8 C0,9.1045695 0.8954305,10 2,10 Z M2,9 C2.55228475,9 3,8.55228475 3,8 C3,7.44771525 2.55228475,7 2,7 C1.44771525,7 1,7.44771525 1,8 C1,8.55228475 1.44771525,9 2,9 Z" id="Oval-157"></path>
                    <path d="M8,4 C9.1045695,4 10,3.1045695 10,2 C10,0.8954305 9.1045695,0 8,0 C6.8954305,0 6,0.8954305 6,2 C6,3.1045695 6.8954305,4 8,4 Z M8,3 C8.55228475,3 9,2.55228475 9,2 C9,1.44771525 8.55228475,1 8,1 C7.44771525,1 7,1.44771525 7,2 C7,2.55228475 7.44771525,3 8,3 Z" id="Oval-157-Copy-2"></path>
                    <path d="M3.37546501,7.36966667 L7.6181057,3.12702598 L6.91099892,2.4199192 L2.66835823,6.66255989 L3.37546501,7.36966667 L3.37546501,7.36966667 Z" id="Shape"></path>
                </g>
            </g>
        </g>
    </g>
</svg>