<?xml version="1.0" encoding="UTF-8" standalone="no"?>
<svg width="24px" height="24px" viewBox="0 0 24 24" version="1.1" xmlns="http://www.w3.org/2000/svg" xmlns:xlink="http://www.w3.org/1999/xlink" xmlns:sketch="http://www.bohemiancoding.com/sketch/ns">
    <!-- Generator: Sketch 3.3.3 (12072) - http://www.bohemiancoding.com/sketch -->
    <title>menu-operations-active</title>
    <desc>Created with Sketch.</desc>
    <defs></defs>
    <g id="Page-1" stroke="none" stroke-width="1" fill="none" fill-rule="evenodd" sketch:type="MSPage">
        <g id="menu-operations-active" sketch:type="MSLayerGroup">
            <rect id="Rectangle-10483-Copy-3" fill-opacity="0.16" fill="#682D99" sketch:type="MSShapeGroup" x="2" y="2" width="22" height="22" rx="16.3636364"></rect>
            <path d="M1,11 L1,11 C1,16.5237031 5.47667235,21 11,21 C16.5237031,21 21,16.5233276 21,11 C21,5.47629686 16.5233276,1 11,1 C5.47629686,1 1,5.47667235 1,11 L1,11 Z M0,11 C0,4.92486775 4.923532,0 11,0 C17.0751322,0 22,4.923532 22,11 C22,17.0751322 17.076468,22 11,22 C4.92486775,22 0,17.076468 0,11 L0,11 Z" id="Shape" fill="#682D99" sketch:type="MSShapeGroup"></path>
            <g id="Oval-157-+-Oval-157-Copy-2-+-Path-314" transform="translate(5.000000, 6.000000)"></g>
            <path d="M7,16 C8.1045695,16 9,15.1045695 9,14 C9,12.8954305 8.1045695,12 7,12 C5.8954305,12 5,12.8954305 5,14 C5,15.1045695 5.8954305,16 7,16 Z M7,15 C7.55228475,15 8,14.5522847 8,14 C8,13.4477153 7.55228475,13 7,13 C6.44771525,13 6,13.4477153 6,14 C6,14.5522847 6.44771525,15 7,15 Z" id="Oval-157" fill="#682D99" sketch:type="MSShapeGroup"></path>
            <path d="M13,10 C14.1045695,10 15,9.1045695 15,8 C15,6.8954305 14.1045695,6 13,6 C11.8954305,6 11,6.8954305 11,8 C11,9.1045695 11.8954305,10 13,10 Z M13,9 C13.5522847,9 14,8.55228475 14,8 C14,7.44771525 13.5522847,7 13,7 C12.4477153,7 12,7.44771525 12,8 C12,8.55228475 12.4477153,9 13,9 Z" id="Oval-157-Copy-2" fill="#682D99" sketch:type="MSShapeGroup"></path>
            <path d="M8.37546501,13.3696667 L12.6181057,9.12702598 L11.9109989,8.4199192 L7.66835823,12.6625599 L8.37546501,13.3696667 L8.37546501,13.3696667 Z" id="Shape" fill="#682D99" sketch:type="MSShapeGroup"></path>
        </g>
    </g>
</svg>