<?xml version="1.0" encoding="UTF-8" standalone="no"?>
<svg width="25px" height="25px" viewBox="0 0 25 25" version="1.1" xmlns="http://www.w3.org/2000/svg" xmlns:xlink="http://www.w3.org/1999/xlink" xmlns:sketch="http://www.bohemiancoding.com/sketch/ns">
    <!-- Generator: Sketch 3.3.3 (12072) - http://www.bohemiancoding.com/sketch -->
    <title>refund</title>
    <desc>Created with Sketch.</desc>
    <defs></defs>
    <g id="Page-1" stroke="none" stroke-width="1" fill="none" fill-rule="evenodd" sketch:type="MSPage">
        <g id="colored-icons" sketch:type="MSLayerGroup" transform="translate(-46.000000, -375.000000)">
            <g id="refund" transform="translate(46.000000, 375.000000)" sketch:type="MSShapeGroup">
                <rect id="Rectangle-10483-Copy-3" fill-opacity="0.16" fill="#3E8BC2" x="2.18181818" y="2.18181818" width="22" height="22" rx="16.3636364"></rect>
                <path d="M1,11 L1,11 C1,16.5237031 5.47667235,21 11,21 C16.5237031,21 21,16.5233276 21,11 C21,5.47629686 16.5233276,1 11,1 C5.47629686,1 1,5.47667235 1,11 L1,11 Z M0,11 C0,4.92486775 4.923532,0 11,0 C17.0751322,0 22,4.923532 22,11 C22,17.0751322 17.076468,22 11,22 C4.92486775,22 0,17.076468 0,11 L0,11 Z" id="Shape" fill="#3E8BC2"></path>
                <path d="M12,6.10024523 C14.2822403,6.5645093 16,8.58596418 16,11 C16,13.7614237 13.7558048,16 11,16 C8.23857625,16 6,13.7558048 6,11 C6,10.1166037 6.22967074,9.28671556 6.63228883,8.56650711 L6.63228883,8.56650711 L7.50128194,9.0613656 C7.18200716,9.63563729 7,10.2966168 7,11 C7,13.2046438 8.790861,15 11,15 C13.2046438,15 15,13.209139 15,11 C15,9.13995311 13.7252272,7.57124586 12,7.12629545 L12,8.5 L9,6.5 L12,4.5 L12,6.10024523 Z" id="Rectangle-10483-Copy-7" fill="#448CC0" transform="translate(11.000000, 10.250000) scale(-1, 1) translate(-11.000000, -10.250000) "></path>
            </g>
        </g>
    </g>
</svg>