<?xml version="1.0" encoding="UTF-8" standalone="no"?>
<svg width="482px" height="181px" viewBox="0 0 482 181" version="1.1" xmlns="http://www.w3.org/2000/svg" xmlns:xlink="http://www.w3.org/1999/xlink">
    <!-- Generator: Sketch 3.6.1 (26313) - http://www.bohemiancoding.com/sketch -->
    <title>Group 3</title>
    <desc>Created with Sketch.</desc>
    <defs></defs>
    <g id="Page-1" stroke="none" stroke-width="1" fill="none" fill-rule="evenodd">
        <g id="widget---modal" transform="translate(-479.000000, -144.000000)">
            <g id="Group-2" transform="translate(384.000000, 76.000000)">
                <g id="Group-3" transform="translate(96.000000, 69.000000)">
                    <path d="M0,156 L480,156" id="Stroke-197" stroke="#333A3E" stroke-width="1.44" stroke-linecap="round" stroke-linejoin="round"></path>
                    <g id="valla" transform="translate(170.000000, 102.000000)" stroke="#333A3E" stroke-width="1.44">
                        <path d="M71.328,31.4038681 C48.72,31.4038681 26.112,23.9321169 7.392,8.9886146 C6.456,8.27017699 6.312,6.90514553 7.032,5.97117663 C7.752,5.03720774 9.12,4.89352021 10.056,5.61195783 C45.48,33.846556 95.232,34.2776185 131.16,6.68961424 L132.6,5.61195783 C133.536,4.89352021 134.904,5.03720774 135.624,5.97117663 C136.344,6.90514553 136.2,8.27017699 135.264,8.9886146 L133.824,10.066271 C115.32,24.3631795 93.36,31.4038681 71.328,31.4038681 L71.328,31.4038681 Z" id="Shape" fill="#FC7C7B"></path>
                        <path d="M8.76,4.46245765 L4.368,4.46245765 L4.368,72.642187 L8.688,72.642187 L8.76,4.46245765 Z" id="Shape" fill="#FFFFFF"></path>
                        <path d="M4.512,72.642187 L8.688,72.642187 C10.848,72.642187 12.576,74.3664373 12.576,76.5217501 L12.576,76.5217501 L0.624,76.5217501 L0.624,76.5217501 C0.552,74.438281 2.352,72.642187 4.512,72.642187 L4.512,72.642187 Z" id="Shape" fill="#FFFFFF"></path>
                        <ellipse id="Oval" fill="#FFFFFF" cx="6.6" cy="4.1750826" rx="3.528" ry="3.5203443"></ellipse>
                        <path d="M138.36,4.46245765 L133.968,4.46245765 L133.968,72.642187 L138.288,72.642187 L138.36,4.46245765 Z" id="Shape" fill="#FFFFFF"></path>
                        <path d="M134.112,72.642187 L138.288,72.642187 C140.448,72.642187 142.176,74.3664373 142.176,76.5217501 L142.176,76.5217501 L130.224,76.5217501 L130.224,76.5217501 C130.152,74.438281 131.952,72.642187 134.112,72.642187 L134.112,72.642187 Z" id="Shape" fill="#FFFFFF"></path>
                        <ellipse id="Oval" fill="#FFFFFF" cx="136.2" cy="4.1750826" rx="3.528" ry="3.5203443"></ellipse>
                    </g>
                    <g id="hombre" transform="translate(335.000000, 5.000000)">
                        <rect id="Rectangle-path" fill="#90B7C7" x="20.408" y="143.203683" width="12.384" height="28.0909106"></rect>
                        <rect id="Rectangle-path" fill="#90B7C7" x="36.248" y="143.203683" width="12.384" height="28.0909106"></rect>
                        <rect id="Rectangle-path" fill="#000000" opacity="0.2" x="20.408" y="143.203683" width="12.312" height="3.66403182"></rect>
                        <rect id="Rectangle-path" fill="#000000" opacity="0.2" x="36.248" y="143.203683" width="12.456" height="3.66403182"></rect>
                        <path d="M55.112,96.4333944 C55.112,96.3615506 55.976,95.7868005 57.488,94.4217691 C62.024,90.1829871 64.112,77.4666414 63.176,71.3599217 L60.44,60.2241387 C59.36,53.2552939 53.672,47.7233243 46.616,47.3641055 L45.752,47.3641055 L34.232,47.3641055 L22.712,47.3641055 C16.808,47.3641055 11.408,50.5970747 8.672,55.8416693 C8.672,55.8416693 4.28,67.4085148 1.184,75.5268599 C-0.616,80.1967043 0.68,85.4412989 4.424,88.7461119 L10.04,93.7751752 L15.512,88.8179557 C15.584,88.6024244 7.88,78.5442978 8.024,78.4006103 L17.672,62.235764 L17.672,61.0862639 L19.112,97.6547383 L49.28,97.6547383 L50.72,61.0862639 L50.72,65.8279521 L54.176,73.4433908 C52.088,70.5696403 58.064,82.2801734 53.384,89.320862 L52.592,90.5422059 L55.112,96.4333944 L55.112,96.4333944 Z" id="Shape" fill="#FFB3AF"></path>
                        <path d="M50.72,61.0144201 L49.28,97.5110508" id="Shape" stroke="#333A3E" stroke-width="1.44"></path>
                        <path d="M10.112,93.7033314 L4.28,88.5305806 C0.608,85.2976114 -0.616,80.1967043 1.112,75.5987036 C3.704,68.7735463 7.304,59.3620136 8.384,56.5601069 C8.6,55.9853568 8.816,55.4824505 9.104,54.9795442 C11.984,50.2378559 17.096,47.2922617 22.712,47.2922617 L34.232,47.2922617" id="Shape" stroke="#333A3E" stroke-width="1.44"></path>
                        <path d="M37.328,45.999074 C36.464,45.2087926 35.384,44.7777301 34.16,44.7777301 C32.936,44.7777301 31.856,45.2806364 30.992,45.999074 C31.856,46.7175116 32.936,47.220418 34.16,47.220418 C35.384,47.220418 36.464,46.7175116 37.328,45.999074 L37.328,45.999074 Z" id="Shape" fill="#FF9D9B"></path>
                        <path d="M19.04,97.5110508 L17.6,61.0144201" id="Shape" stroke="#333A3E" stroke-width="1.44"></path>
                        <path d="M43.016,47.3641055 C41.144,50.1660122 37.904,51.9621062 34.304,51.9621062 C30.704,51.9621062 27.464,50.0941684 25.592,47.3641055 L43.016,47.3641055 L43.016,47.3641055 Z" id="Shape" stroke="#333A3E" stroke-width="1.44" fill="#F3CE9D"></path>
                        <path d="M22.064,35.5817286 C22.064,35.5817286 18.68,34.863291 18.68,31.8458531 L18.68,28.9002589 C18.68,28.9002589 18.608,26.3857272 22.064,26.3857272 L22.064,35.5817286 L22.064,35.5817286 Z" id="Shape" fill="#F3CE9D"></path>
                        <path d="M46.544,35.5817286 C46.544,35.5817286 49.928,34.863291 49.928,31.8458531 L49.928,28.9002589 C49.928,28.9002589 50,26.3857272 46.544,26.3857272 L46.544,35.5817286 L46.544,35.5817286 Z" id="Shape" fill="#F3CE9D"></path>
                        <path d="M41.936,16.830507 C40.424,17.3334133 38.696,17.6207883 36.824,17.6207883 C30.92,17.6207883 27.248,16.830507 25.664,16.3994444 C25.664,16.3994444 25.736,20.9974451 21.992,20.9974451 L21.992,36.084635 C21.992,42.694261 29.264,49.4475746 34.232,49.4475746 C39.2,49.4475746 46.472,42.694261 46.472,36.084635 L46.472,21.2848202 C46.472,18.8421323 44.456,16.830507 42.008,16.830507 L41.936,16.830507 L41.936,16.830507 Z" id="Shape" fill="#F3CE9D"></path>
                        <path d="M22.064,26.3138835 C21.128,26.3138835 20.48,26.457571 19.976,26.744946 L19.976,26.744946 C19.976,26.744946 12.776,9.21506829 28.184,7.49081802 C28.184,7.49081802 35.672,0.450129427 41.504,7.70634931 C41.504,7.70634931 48.704,6.19763032 50,11.8014437 C50,11.8014437 45.032,17.5489446 36.896,17.5489446 C30.992,17.5489446 27.32,16.7586632 25.736,16.3276006 C25.736,16.3276006 25.808,20.9256014 22.064,20.9256014 L22.064,26.3138835 L22.064,26.3138835 Z" id="Shape" fill="#AB887A"></path>
                        <path d="M48.632,26.8167898 C48.632,26.8167898 49.568,23.7993518 49.928,20.7100701 C50.144,18.9858198 50.648,15.609163 49.064,12.6635688 L49.064,12.6635688 C47.84,13.7412252 45.392,15.7528506 41.936,16.830507 L42.08,16.830507 C44.528,16.830507 46.544,18.8421323 46.544,21.2848202 C46.544,21.2848202 46.544,19.7761012 46.544,22.9372267 L46.544,26.3857272 C47.48,26.3138835 48.128,26.5294147 48.632,26.8167898 L48.632,26.8167898 Z" id="Shape" fill="#AB887A"></path>
                        <path d="M49.352,13.0946314 C49.208,12.5917251 49.352,13.0946314 49.064,12.5917251 C47.84,13.6693815 45.392,15.6810068 41.936,16.7586632 L42.08,16.7586632 L41.936,16.7586632 C40.424,17.2615695 38.696,17.5489446 36.824,17.5489446 C30.92,17.5489446 27.248,16.7586632 25.664,16.3276006 C25.664,16.3276006 25.736,20.9256014 21.992,20.9256014 L24.584,20.0634762 L26.096,16.9741945 C27.608,17.4052571 31.856,19.8479449 37.76,19.8479449 C44.6,19.9197887 48.2,14.2441316 49.352,13.0946314 L49.352,13.0946314 Z" id="Shape" fill="#000000" opacity="0.2"></path>
                        <path d="M33.512,27.8944462 L33.512,34.863291 C33.512,34.863291 33.656,36.0127912 35.384,36.0127912" id="Shape" stroke="#333A3E" stroke-width="1.44"></path>
                        <path d="M22.064,35.5817286 C22.064,35.5817286 18.68,34.863291 18.68,31.8458531 L18.68,28.9002589 C18.68,28.9002589 18.608,26.3857272 22.064,26.3857272" id="Shape" stroke="#333A3E" stroke-width="1.44"></path>
                        <path d="M24.872,25.6672896 C24.872,25.6672896 26.6,24.1585706 30.848,25.6672896" id="Shape" stroke="#333A3E" stroke-width="1.44"></path>
                        <path d="M46.544,35.5817286 C46.544,35.5817286 49.928,34.863291 49.928,31.8458531 L49.928,28.9002589 C49.928,28.9002589 50,26.3857272 46.544,26.3857272" id="Shape" stroke="#333A3E" stroke-width="1.44"></path>
                        <path d="M43.736,25.6672896 C43.736,25.6672896 42.008,24.1585706 37.76,25.6672896" id="Shape" stroke="#333A3E" stroke-width="1.44"></path>
                        <path d="M48.632,26.8167898 C48.632,26.8167898 49.568,23.7993518 49.928,20.7100701 C50.144,18.9858198 50.648,15.609163 49.064,12.6635688" id="Shape" stroke="#333A3E" stroke-width="1.44"></path>
                        <path d="M42.08,16.830507 C44.528,16.830507 46.544,18.8421323 46.544,21.2848202 L46.544,36.084635 C46.544,42.694261 39.272,49.4475746 34.304,49.4475746 C29.336,49.4475746 22.064,42.694261 22.064,36.084635 L22.064,20.9974451 C25.808,20.9974451 25.736,16.3994444 25.736,16.3994444 C27.248,16.830507 30.92,17.6207883 36.896,17.6207883 C45.032,17.6207883 50,11.8732875 50,11.8732875 C48.704,6.19763032 41.504,7.77819307 41.504,7.77819307 C35.672,0.521973189 28.184,7.56266178 28.184,7.56266178 C12.776,9.35875581 19.976,26.8167898 19.976,26.8167898" id="Shape" stroke="#333A3E" stroke-width="1.44"></path>
                        <path d="M29.552,40.2515731 C29.984,42.406886 31.856,44.0592925 34.16,44.0592925 C36.464,44.0592925 38.408,42.406886 38.768,40.2515731 L29.552,40.2515731 L29.552,40.2515731 Z" id="Shape" fill="#FC7C7B"></path>
                        <path d="M29.912,30.5526654 L29.912,30.2652903 C29.912,29.4031652 29.192,28.6847276 28.328,28.6847276 C27.464,28.6847276 26.744,29.4031652 26.744,30.2652903 L26.744,30.5526654 L29.912,30.5526654 L29.912,30.5526654 Z" id="Shape" fill="#333A3E"></path>
                        <path d="M41.864,30.5526654 L41.864,30.2652903 C41.864,29.4031652 41.144,28.6847276 40.28,28.6847276 C39.416,28.6847276 38.696,29.4031652 38.696,30.2652903 L38.696,30.5526654 L41.864,30.5526654 L41.864,30.5526654 Z" id="Shape" fill="#333A3E"></path>
                        <path d="M29.552,40.2515731 C29.984,42.406886 31.856,44.0592925 34.16,44.0592925 C36.464,44.0592925 38.408,42.406886 38.768,40.2515731 L29.552,40.2515731 L29.552,40.2515731 Z" id="Shape" stroke="#333A3E" stroke-width="1.44"></path>
                        <path d="M32.504,46.9330429 C33.44,45.999074 34.88,45.999074 35.816,46.9330429" id="Shape" stroke="#D4C09E" stroke-width="1.44"></path>
                        <path d="M14.504,87.8839868 L7.952,78.2569228 C8.024,78.0413915 7.808,78.4006103 7.952,78.2569228 L17.6,62.0920765" id="Shape" stroke="#333A3E" stroke-width="1.44"></path>
                        <path d="M50.36,67.6240461 C48.272,67.6240461 46.544,65.8997959 46.544,63.8163268 L21.776,63.8163268 C21.776,65.8997959 20.048,67.6240461 17.96,67.6240461 L19.04,97.5110508 L49.208,97.5110508 L50.36,67.6240461 L50.36,67.6240461 Z" id="Shape" stroke="#333A3E" stroke-width="1.44" fill="#D4CBBD"></path>
                        <path d="M21.704,47.7233243 L21.848,63.8881705 L24.944,63.8881705 L24.944,47.6514805" id="Shape" stroke="#333A3E" stroke-width="1.44" fill="#D4CBBD"></path>
                        <path d="M43.304,47.3641055 L43.448,63.8881705 L46.544,63.8881705 L46.544,47.3641055" id="Shape" stroke="#333A3E" stroke-width="1.44" fill="#D4CBBD"></path>
                        <path d="M48.776,11.0830061 L22.784,11.2266936 L19.04,9.71797462 C19.76,4.32969253 24.512,0.378285666 29.984,0.59381695 L42.8,1.16856704 C45.536,0.881191994 47.984,2.89281731 48.272,5.62288023 L48.776,11.0830061 L48.776,11.0830061 Z" id="Shape" stroke="#333A3E" stroke-width="1.44" fill="#D4CBBD"></path>
                        <rect id="Rectangle-path" stroke="#333A3E" stroke-width="1.43995099" fill="#D4CBBD" transform="translate(34.153110, 10.578911) rotate(-5.712505) translate(-34.153110, -10.578911) " x="18.0256585" y="7.77709956" width="32.2549021" height="5.60362263"></rect>
                        <rect id="Rectangle-path" stroke="#333A3E" stroke-width="1.44" fill="#D4CBBD" x="19.04" y="97.5110508" width="30.168" height="4.74168824"></rect>
                        <path d="M52.88,143.203683 L15.44,143.203683 L19.04,100.815864 L49.28,100.815864 L52.88,143.203683 Z" id="Shape" stroke="#333A3E" stroke-width="1.44" fill="#D4CBBD"></path>
                        <path d="M47.984,77.4666414 C47.84,77.3229539 47.696,77.2511101 47.48,77.2511101 L15.584,77.2511101 C15.152,77.2511101 14.864,77.5384852 14.864,77.9695477 L14.864,95.0683629 L14.864,95.0683629 C14.864,95.0683629 20.84,103.402239 19.76,101.89352 L18.896,110.658459 L47.48,110.658459 C47.912,110.658459 48.2,110.371084 48.2,109.940021 L48.2,77.9695477 C48.2,77.8258602 48.128,77.6103289 47.984,77.4666414 L47.984,77.4666414 Z" id="Shape" fill="#000000" opacity="0.2"></path>
                        <rect id="Rectangle-path" stroke="#333A3E" stroke-width="1.44" x="20.408" y="143.203683" width="12.384" height="28.0909106"></rect>
                        <rect id="Rectangle-path" stroke="#333A3E" stroke-width="1.44" x="36.248" y="143.203683" width="12.384" height="28.0909106"></rect>
                        <path d="M33.44,171.007218 C33.44,167.271343 30.416,164.253905 26.672,164.253905 C22.928,164.253905 19.904,167.271343 19.904,171.007218 L19.904,173.593594 L33.512,173.593594 L33.512,171.007218" id="Shape" stroke="#333A3E" stroke-width="1.44" fill="#AB887A"></path>
                        <path d="M49.28,171.007218 C49.28,167.271343 46.256,164.253905 42.512,164.253905 C38.768,164.253905 35.744,167.271343 35.744,171.007218 L35.744,173.593594 L49.352,173.593594 L49.352,171.007218" id="Shape" stroke="#333A3E" stroke-width="1.44" fill="#AB887A"></path>
                        <path d="M20.12,94.0625502 L20.408,94.2780815 C20.912,94.6373003 20.984,95.2838942 20.624,95.7868005 L20.552,95.8586443 C20.192,96.3615506 19.544,96.4333944 19.04,96.0741756 L17.096,94.5654566" id="Shape" stroke="#333A3E" stroke-width="1.08"></path>
                        <path d="M18.752,95.8586443 C19.256,96.2178631 19.328,96.8644569 18.968,97.3673633 L18.896,97.439207 C18.536,97.9421133 17.888,98.0139571 17.384,97.6547383 L16.952,97.2955195" id="Shape" stroke="#333A3E" stroke-width="1.08"></path>
                        <path d="M18.392,92.7693625 L18.896,93.1285813 L20.12,94.0625502 C20.624,94.4217691 21.272,94.3499253 21.632,93.847019 L21.704,93.7751752 C22.064,93.2722689 21.992,92.625675 21.488,92.2664562 L18.824,90.2548309" id="Shape" stroke="#333A3E" stroke-width="1.08"></path>
                        <rect id="Rectangle-path" fill="#FFFFFF" x="15.584" y="73.6589221" width="31.896" height="31.9704737"></rect>
                        <rect id="Rectangle-path" stroke="#333A3E" stroke-width="1.44" x="15.584" y="73.6589221" width="31.896" height="31.9704737"></rect>
                        <rect id="Rectangle-path" stroke="#333A3E" stroke-width="1.44" fill="#FC7C7B" x="15.584" y="86.7344866" width="31.896" height="5.89118842"></rect>
                        <rect id="Rectangle-path" stroke="#333A3E" stroke-width="1.44" fill="#FC7C7B" x="28.616" y="73.6589221" width="5.904" height="31.9704737"></rect>
                        <path d="M50.72,65.7561083 L54.752,74.2336722 C54.896,74.6647347 56.48,85.1539239 52.592,90.4703622 L52.592,90.4703622 L45.824,96.0741756 L55.112,96.5052381 C56.336,95.930488 57.488,94.9246754 58.568,93.7751752 C62.384,89.6800808 64.04,76.9637351 63.176,71.3599217" id="Shape" stroke="#333A3E" stroke-width="1.44"></path>
                        <path d="M52.592,90.4703622 L48.704,89.8956121 L47.624,85.5131427 C47.552,85.4412989 47.48,85.4412989 47.336,85.5131427 L47.336,85.5131427 C46.472,86.2315803 45.824,86.8781741 46.112,88.3150494 L46.76,91.4043311 L46.76,91.6198624 L39.992,91.7635499 C39.416,91.7635499 38.912,92.2664562 38.912,92.8412063 L38.912,92.9130501 C38.912,93.4878002 39.416,93.9907065 39.992,93.9907065 L45.752,93.847019 L38.768,95.5712692 C38.192,95.7149568 37.832,96.2897068 37.976,96.8644569 L37.976,96.9363007 C38.12,97.5110508 38.696,97.8702696 39.272,97.7265821 L46.616,95.930488 L46.616,95.930488 L41.288,98.5168634 C40.712,98.8042385 40.496,99.4508323 40.784,99.9537387 L40.856,100.025582 C41.144,100.600333 41.792,100.815864 42.296,100.528489 L48.2,97.5828945 L45.896,99.9537387 C45.464,100.384801 45.392,101.031395 45.824,101.462458 L45.896,101.534301 C46.328,101.965364 46.976,102.037208 47.408,101.606145 L49.064,99.9537387 C49.064,99.9537387 54.176,97.9421133 54.824,96.6489256 C54.896,96.5052381 54.968,96.4333944 54.968,96.2897068" id="Shape" fill="#F3CE9D"></path>
                        <path d="M55.112,96.4333944 C55.04,96.5770819 49.208,100.097426 49.208,100.097426 L47.552,101.606145 C47.12,102.037208 46.328,101.89352 45.968,101.462458 L45.968,101.462458 C45.536,101.031395 45.608,100.312957 46.04,99.9537387 L48.344,97.6547383 L42.44,100.600333 C41.864,100.887708 41.216,100.672176 41,100.097426 L40.928,100.025582 C40.64,99.4508323 40.856,98.8042385 41.432,98.5887072 L46.76,96.0023318 L46.76,96.0023318 L39.416,97.7984258 C38.84,97.9421133 38.264,97.5828945 38.12,97.0081445 L38.12,96.9363007 C37.976,96.3615506 38.336,95.7868005 38.912,95.643113 L45.896,93.9188627 L40.136,94.0625502 C39.56,94.0625502 39.056,93.6314877 39.056,92.9848938 L39.056,92.9130501 C39.056,92.3383 39.56,91.8353936 40.136,91.8353936 L46.904,91.6917061 L46.904,91.4761748 L45.752,88.4587369 C45.464,87.0937054 46.544,86.303424 47.48,85.6568302 L47.48,85.6568302 C47.552,85.5849864 47.696,85.5849864 47.768,85.6568302 L48.848,90.0392996 L52.736,90.6140497 C52.736,90.6140497 54.824,92.625675 55.544,96.4333944" id="Shape" stroke="#333A3E" stroke-width="1.08"></path>
                        <path d="M63.176,71.3599217 L60.44,60.2241387 C58.424,53.1834501 53.672,47.7233243 46.616,47.3641055 L45.752,47.3641055 L40.856,47.3641055" id="Shape" stroke="#333A3E" stroke-width="1.44"></path>
                        <path d="M19.328,91.0451123 L19.544,89.7519246 C20.336,89.4645495 21.704,88.6024244 21.2,87.4529242 L21.2,87.4529242 C21.272,87.0218616 21.056,86.7344866 20.84,86.6626428 L16.736,89.4645495" id="Shape" fill="#F3CE9D"></path>
                        <path d="M19.112,90.829581 L19.04,90.9732685 L24.728,92.1946125 C25.304,92.3383 25.664,92.9848938 25.448,93.5596439 L25.448,93.6314877 C25.304,94.2062378 24.656,94.5654566 24.08,94.3499253 L19.328,93.4159564 L24.8,96.1460193 C25.304,96.4333944 25.52,97.0799882 25.232,97.6547383 L25.16,97.7265821 C24.872,98.2294884 24.224,98.4450197 23.648,98.1576446 L17.888,95.2120504 L17.888,95.2120504 L21.56,98.4450197 C21.992,98.8760822 22.064,99.5226761 21.632,99.9537387 L21.56,100.025582 C21.128,100.456645 20.48,100.528489 20.048,100.097426 L15.872,96.4333944 L17.888,99.1634573 C18.248,99.6663636 18.104,100.312957 17.6,100.672176 L17.528,100.74402 C17.024,101.103239 16.376,100.959551 16.016,100.456645 L14.36,98.5887072 L9.68,93.847019 C10.616,91.7635499 14.432,87.8839868 14.432,87.8839868 C15.872,87.9558305 17.096,89.6082371 17.096,89.5363933" id="Shape" fill="#F3CE9D"></path>
                        <path d="M19.04,91.0451123 L14.576,88.0276743 C14.576,88.0276743 11.696,90.1829871 10.04,93.7033314" id="Shape" stroke="#333A3E" stroke-width="1.08"></path>
                        <path d="M9.752,93.6314877 C9.752,93.7751752 14.504,98.7323947 14.504,98.7323947 L16.16,100.456645 C16.52,100.959551 17.24,101.031395 17.744,100.672176 L17.744,100.672176 C18.248,100.312957 18.392,99.6663636 18.032,99.1634573 L15.944,96.5770819 L20.12,100.241114 C20.552,100.672176 21.272,100.600333 21.632,100.16927 L21.704,100.097426 C22.136,99.6663636 22.064,98.947926 21.632,98.5887072 L17.96,95.3557379 L17.96,95.3557379 L23.72,98.3013322 C24.224,98.5887072 24.944,98.3731759 25.232,97.8702696 L25.304,97.7984258 C25.592,97.2955195 25.376,96.5770819 24.872,96.2897068 L19.4,93.5596439 L24.152,94.4936128 C24.728,94.6373003 25.304,94.3499253 25.52,93.7751752 L25.52,93.7033314 C25.664,93.1285813 25.376,92.5538313 24.8,92.3383 L19.112,91.116956 L19.184,90.9732685" id="Shape" stroke="#333A3E" stroke-width="1.08"></path>
                        <path d="M19.328,90.9014248 L19.544,89.7519246 C20.696,89.1771745 21.704,88.4587369 21.416,87.4529242 L21.416,87.4529242 C21.488,87.0218616 21.128,86.7344866 20.84,86.6626428 L16.664,89.320862" id="Shape" stroke="#333A3E" stroke-width="1.08"></path>
                        <path d="M31.568,73.6589221 L25.592,68.8453901 C23,66.6900772 19.256,69.4201402 20.408,72.5812657 L20.408,72.5812657 C20.624,73.2278595 21.272,73.7307658 22.064,73.7307658 L31.568,73.7307658 L31.568,73.6589221 Z" id="Shape" stroke="#333A3E" stroke-width="1.44"></path>
                        <path d="M31.568,73.6589221 L37.112,69.2046089 C39.56,67.2648273 43.016,69.7075152 41.936,72.6531094 L41.936,72.6531094 C41.72,73.2997033 41.072,73.7307658 40.424,73.7307658 L31.568,73.6589221" id="Shape" stroke="#333A3E" stroke-width="1.44"></path>
                        <path d="M31.208,73.6589221 L31.208,73.6589221 L30.2,72.5094219 C29.408,71.6472968 30.056,70.2822653 31.208,70.2822653 L31.208,70.2822653 C32.36,70.2822653 33.008,71.6472968 32.216,72.5094219 L31.208,73.6589221 L31.208,73.6589221 Z" id="Shape" stroke="#333A3E" stroke-width="1.44" fill="#FC7C7B"></path>
                        <path d="M19.832,170.719843 L33.44,170.719843" id="Shape" stroke="#333A3E" stroke-width="1.44"></path>
                        <path d="M35.672,170.719843 L49.28,170.719843" id="Shape" stroke="#333A3E" stroke-width="1.44"></path>
                    </g>
                    <g id="mujer" transform="translate(89.000000, 0.000000)">
                        <path d="M28.888,173.133468 L35.368,173.133468 L37.672,143.677526 L41.128,97.9130501 L26.008,97.9130501 L28.888,173.133468 Z" id="Shape" fill="#F3CE9D"></path>
                        <path d="M26.008,97.9130501 L28.888,173.133468" id="Shape" stroke="#333A3E" stroke-width="1.44"></path>
                        <path d="M35.368,173.133468 L37.528,144.036745 L41.128,97.9130501" id="Shape" stroke="#333A3E" stroke-width="1.44"></path>
                        <path d="M34.504,143.677526 C33.568,144.611495 32.128,144.611495 31.192,143.677526" id="Shape" stroke="#D4C09E" stroke-width="1.44"></path>
                        <path d="M32.704,169.613124 L34.792,169.613124 C34.792,169.613124 40.408,170.906311 39.976,175.648 L39.184,176.294594 L35.008,176.294594 L34.072,176.294594 L33.352,176.294594 L32.416,176.294594 L28.24,176.294594 L27.448,175.648 C27.088,170.906311 32.704,169.613124 32.704,169.613124 L32.704,169.613124 Z" id="Shape" fill="#FFFFFF"></path>
                        <path d="M27.952,178.52175 L39.976,178.52175 L39.976,176.22275 L27.232,176.22275 L27.952,178.52175 Z" id="Shape" fill="#FFFFFF"></path>
                        <path d="M40.048,176.22275 L27.376,176.22275" id="Shape" stroke="#333A3E" stroke-width="1.44"></path>
                        <path d="M33.784,178.52175 L28.024,178.52175 L28.024,178.52175 C27.664,177.731469 27.448,176.7975 27.448,175.863531 C27.448,172.41503 30.256,169.54128 33.784,169.54128 L33.856,169.54128 C37.312,169.54128 40.192,172.343187 40.192,175.863531" id="Shape" stroke="#333A3E" stroke-width="1.44"></path>
                        <path d="M33.784,178.52175 L39.544,178.52175 L39.544,178.52175 C39.904,177.731469 40.12,176.7975 40.12,175.863531" id="Shape" stroke="#333A3E" stroke-width="1.44"></path>
                        <path d="M22.408,173.133468 L15.928,173.133468 L13.624,143.677526 L10.672,104.666364 L17.368,97.9130501 L25.288,97.9130501 L22.408,173.133468 Z" id="Shape" fill="#F3CE9D"></path>
                        <path d="M25.288,97.9130501 L22.408,173.133468" id="Shape" stroke="#333A3E" stroke-width="1.44"></path>
                        <path d="M15.928,173.133468 L13.768,144.036745 L12.4,125.788429 L11.464,114.365271 L17.368,97.9130501" id="Shape" stroke="#333A3E" stroke-width="1.44"></path>
                        <path d="M16.792,143.677526 C17.728,144.611495 19.168,144.611495 20.104,143.677526" id="Shape" stroke="#D4C09E" stroke-width="1.44"></path>
                        <path d="M10.168,81.6045163 C10.168,81.6045163 10.096,69.6784519 10.456,70.253202 C16.576,81.9637351 14.416,88.1422985 12.616,97.9130501 L38.896,97.9130501 C37.96,92.524768 35.44,79.592891 41.704,68.457108 L41.704,68.457108 L38.104,104.307145 L43.72,106.246926 L48.184,59.3329503 C46.456,53.4417619 41.488,50.7835427 35.368,50.7835427 L35.368,50.7835427 C33.568,50.7835427 32.128,49.3466675 32.128,47.5505735 L32.128,46.9039796 L32.128,42.2341352 L19.456,42.2341352 L19.456,46.9039796 L19.456,47.5505735 C19.456,49.3466675 18.016,50.7835427 16.216,50.7835427 L16.216,50.7835427 C10.024,50.7835427 2.824,53.4417619 2.824,62.9251384" id="Shape" fill="#CCE3ED"></path>
                        <path d="M25.792,55.6689185 L25.792,55.6689185 C22.264,55.6689185 19.456,52.8670118 19.456,49.3466675 L19.456,43.0244165 L32.128,43.0244165 L32.128,49.3466675 C32.128,52.795168 29.248,55.6689185 25.792,55.6689185 L25.792,55.6689185 Z" id="Shape" stroke="#333A3E" stroke-width="0.72" fill="#F3CE9D"></path>
                        <path d="M16.216,50.711699 C18.016,50.711699 19.456,49.2748237 19.456,47.4787297 L19.456,46.8321359 L19.456,42.1622914 L32.128,42.1622914 L32.128,46.8321359 L32.128,47.4787297 C32.128,49.2748237 33.568,50.711699 35.368,50.711699" id="Shape" stroke="#333A3E" stroke-width="1.44"></path>
                        <path d="M12.616,97.9130501 C13.552,89.7947051 17.368,84.9811731 11.608,72.6240461" id="Shape" stroke="#333A3E" stroke-width="1.44"></path>
                        <path d="M41.704,69.0318581 C34.576,83.1132353 38.536,94.5363933 38.896,97.8412063" id="Shape" stroke="#333A3E" stroke-width="1.44"></path>
                        <path d="M41.056,66.0144201 C41.416,66.948389 41.632,67.9542017 41.632,69.0318581 L41.632,68.9600143 C41.632,73.3424837 38.032,76.9346718 33.64,76.9346718 C29.248,76.9346718 25.648,73.3424837 25.648,68.9600143" id="Shape" fill="#CCE3ED"></path>
                        <path d="M10.456,65.7988888 C10.024,66.8047015 9.808,67.8823579 9.808,69.0318581 C9.808,73.4143275 13.408,77.0065156 17.8,77.0065156 C22.192,77.0065156 25.792,73.4143275 25.792,69.0318581" id="Shape" fill="#CCE3ED"></path>
                        <path d="M40.912,27.8653829 C41.632,26.7877265 42.064,25.422695 42.064,23.9858198 C42.064,23.2673822 41.992,22.6207883 41.776,21.9741945 C43.288,20.4654755 44.296,18.3820064 44.296,16.0830061 C44.296,12.6345055 42.208,9.68891134 39.184,8.4675674 C37.672,5.88119199 34.936,4.22878549 31.768,4.22878549 C30.976,4.22878549 30.256,4.30062925 29.536,4.51616053 C27.88,2.14531641 25.072,0.636597428 21.976,0.636597428 C17.44,0.636597428 13.624,3.86956668 12.832,8.18019235 C9.448,9.18600501 6.928,12.3471305 6.928,16.0830061 C6.928,18.3820064 7.864,20.4654755 9.448,21.9741945 C9.232,22.6207883 9.16,23.2673822 9.16,23.9858198 C9.16,25.4945388 9.664,26.8595703 10.456,28.0090704" id="Shape" stroke="#333A3E" stroke-width="0.72" fill="#F8E3A4"></path>
                        <path d="M24.352,34.0439464 C24.352,34.0439464 24.496,35.1934466 26.224,35.1934466" id="Shape" stroke="#333A3E" stroke-width="1.44"></path>
                        <path d="M37.96,35.1216028 C37.96,35.1216028 41.056,34.4031652 41.056,31.6731023 L41.056,29.0148831 C41.056,29.0148831 41.128,26.644039 37.96,26.644039" id="Shape" stroke="#333A3E" stroke-width="0.72" fill="#F3CE9D"></path>
                        <path d="M33.496,16.3703811 C35.944,16.3703811 37.96,18.3820064 37.96,20.8246943 L37.96,35.5526654 C37.96,42.0904476 30.76,47.5505735 25.72,47.5505735 C20.68,47.5505735 13.48,42.1622914 13.48,35.5526654 L13.48,23.8421323 C13.48,20.6810068 17.8,19.2441316 17.8,19.2441316 C23.848,20.9683818 29.536,18.0946314 33.496,16.3703811" id="Shape" stroke="#333A3E" stroke-width="0.72" fill="#F3CE9D"></path>
                        <path d="M21.832,40.0788223 C22.192,41.8749163 23.776,42.8088852 25.648,42.8088852 C27.52,42.8088852 29.104,41.8030726 29.464,40.0788223 L21.832,40.0788223 L21.832,40.0788223 Z" id="Shape" fill="#FAB4C3"></path>
                        <path d="M13.552,35.1216028 C13.552,35.1216028 10.456,34.4031652 10.456,31.6731023 L10.456,29.0148831 C10.456,29.0148831 10.384,26.644039 13.552,26.644039" id="Shape" stroke="#333A3E" stroke-width="0.72" fill="#F3CE9D"></path>
                        <ellipse id="Oval" fill="#333A3E" cx="29.176" cy="37.6361344" rx="0.576" ry="0.574750089"></ellipse>
                        <path d="M24.352,34.0439464 C24.352,34.0439464 24.496,35.1934466 26.224,35.1934466" id="Shape" stroke="#333A3E" stroke-width="1.44"></path>
                        <path d="M33.712,16.5140686 C37.528,16.5140686 37.672,20.4654755 37.672,20.4654755 C37.384,18.3101627 33.64,17.7354126 33.64,17.7354126 C12.904,28.0090704 15.136,16.3703811 15.136,16.3703811 C15.136,16.3703811 16.576,19.1722878 17.872,19.1722878 C17.872,19.1722878 25.864,20.8246943 32.344,17.30435 C38.752,13.7840057 33.712,16.5140686 33.712,16.5140686 L33.712,16.5140686 Z" id="Shape" fill="#000000" opacity="0.2"></path>
                        <path d="M37.96,35.1216028 C37.96,35.1216028 41.056,34.4031652 41.056,31.6731023 L41.056,29.0148831 C41.056,29.0148831 41.128,26.644039 37.96,26.644039" id="Shape" stroke="#333A3E" stroke-width="1.44"></path>
                        <path d="M33.496,16.3703811 C35.944,16.3703811 37.96,18.3820064 37.96,20.8246943 L37.96,35.5526654 C37.96,42.0904476 30.76,47.5505735 25.72,47.5505735 C20.68,47.5505735 13.48,42.1622914 13.48,35.5526654 L13.48,23.8421323 C13.48,20.6810068 17.8,19.2441316 17.8,19.2441316 C23.848,20.9683818 29.536,18.0946314 33.496,16.3703811" id="Shape" stroke="#333A3E" stroke-width="1.44"></path>
                        <path d="M21.76,30.0206958 L21.76,29.7333207 C21.76,28.8711956 21.04,28.152758 20.176,28.152758 C19.312,28.152758 18.592,28.8711956 18.592,29.7333207 L18.592,30.0206958 L21.76,30.0206958 L21.76,30.0206958 Z" id="Shape" fill="#333A3E"></path>
                        <path d="M21.832,40.0788223 C22.192,41.8749163 23.776,42.8088852 25.648,42.8088852 C27.52,42.8088852 29.104,41.8030726 29.464,40.0788223 L21.832,40.0788223 L21.832,40.0788223 Z" id="Shape" stroke="#FC7C7B" stroke-width="1.44"></path>
                        <path d="M26.224,30.5954458 C26.224,32.5352274 24.352,34.0439464 24.352,34.0439464" id="Shape" stroke="#333A3E" stroke-width="1.44"></path>
                        <path d="M25.792,39.6477597 C25.792,40.2225098 25.288,40.3661974 24.712,40.3661974 C24.136,40.3661974 23.632,40.2225098 23.632,39.6477597 C23.632,39.0730097 24.136,38.5701033 24.712,38.5701033 C25.288,38.5701033 25.792,39.0730097 25.792,39.6477597 L25.792,39.6477597 Z" id="Shape" fill="#FC7C7B"></path>
                        <path d="M27.448,39.6477597 C27.448,40.2225098 26.944,40.3661974 26.368,40.3661974 C25.792,40.3661974 25.288,40.2225098 25.288,39.6477597 C25.288,39.0730097 25.792,38.5701033 26.368,38.5701033 C27.016,38.5701033 27.448,39.0730097 27.448,39.6477597 L27.448,39.6477597 Z" id="Shape" fill="#FC7C7B"></path>
                        <path d="M22.12,25.9256014 C22.12,25.9256014 20.752,25.6382263 19.168,25.0634762 C17.8,24.6324137 16.72,25.9256014 16.72,25.9256014" id="Shape" stroke="#333A3E" stroke-width="1.44"></path>
                        <path d="M13.552,35.1216028 C13.552,35.1216028 10.456,34.4031652 10.456,31.6731023 L10.456,29.0148831 C10.456,29.0148831 10.384,26.644039 13.552,26.644039" id="Shape" stroke="#333A3E" stroke-width="1.44"></path>
                        <path d="M17.944,30.0206958 C17.944,29.6614769 18.232,29.3741019 18.592,29.3741019 C18.952,29.3741019 19.24,29.6614769 19.24,30.0206958 L17.944,30.0206958 L17.944,30.0206958 Z" id="Shape" fill="#333A3E"></path>
                        <path d="M29.752,30.0206958 L29.752,29.7333207 C29.752,28.8711956 30.472,28.152758 31.336,28.152758 C32.2,28.152758 32.92,28.8711956 32.92,29.7333207 L32.92,30.0206958 L29.752,30.0206958 L29.752,30.0206958 Z" id="Shape" fill="#333A3E"></path>
                        <path d="M29.392,25.9256014 C29.392,25.9256014 30.76,25.6382263 32.344,25.0634762 C33.712,24.6324137 34.792,25.9256014 34.792,25.9256014" id="Shape" stroke="#333A3E" stroke-width="1.44"></path>
                        <path d="M33.64,30.0206958 C33.64,29.6614769 33.352,29.3741019 32.992,29.3741019 C32.632,29.3741019 32.344,29.6614769 32.344,30.0206958 L33.64,30.0206958 L33.64,30.0206958 Z" id="Shape" fill="#333A3E"></path>
                        <path d="M40.912,27.8653829 C41.632,26.7877265 42.064,25.422695 42.064,23.9858198 C42.064,23.2673822 41.992,22.6207883 41.776,21.9741945 C43.288,20.4654755 44.296,18.3820064 44.296,16.0830061 C44.296,12.6345055 42.208,9.68891134 39.184,8.4675674 C37.672,5.88119199 34.936,4.22878549 31.768,4.22878549 C30.976,4.22878549 30.256,4.30062925 29.536,4.51616053 C27.88,2.14531641 25.072,0.636597428 21.976,0.636597428 C17.44,0.636597428 13.624,3.86956668 12.832,8.18019235 C9.448,9.18600501 6.928,12.3471305 6.928,16.0830061 C6.928,18.3820064 7.864,20.4654755 9.448,21.9741945 C9.232,22.6207883 9.16,23.2673822 9.16,23.9858198 C9.16,25.4945388 9.664,26.8595703 10.456,28.0090704" id="Shape" stroke="#333A3E" stroke-width="1.44"></path>
                        <path d="M17.872,19.2441316 C15.352,17.8791001 15.64,16.4422249 15.64,16.4422249" id="Shape" stroke="#333A3E" stroke-width="1.44"></path>
                        <path d="M41.704,68.9600143 C41.704,73.3424837 38.104,76.9346718 33.712,76.9346718" id="Shape" stroke="#333A3E" stroke-width="1.44"></path>
                        <path d="M17.728,76.9346718 C13.336,76.9346718 9.736,73.3424837 9.736,68.9600143" id="Shape" stroke="#333A3E" stroke-width="1.44"></path>
                        <path d="M41.704,69.0318581 C41.704,67.9542017 41.488,66.948389 41.128,66.0144201" id="Shape" stroke="#333A3E" stroke-width="1.44"></path>
                        <path d="M10.456,65.7988888 C10.024,66.8047015 9.808,67.8823579 9.808,69.0318581" id="Shape" stroke="#333A3E" stroke-width="1.44"></path>
                        <path d="M38.032,104.307145 L41.704,68.457108" id="Shape" stroke="#333A3E" stroke-width="1.44"></path>
                        <path d="M25.792,55.6689185 L25.792,55.6689185 C29.32,55.6689185 32.128,52.8670118 32.128,49.3466675 L32.128,47.9097923" id="Shape" stroke="#333A3E" stroke-width="1.44"></path>
                        <path d="M25.792,55.6689185 C22.264,55.6689185 19.456,52.8670118 19.456,49.3466675 L19.456,49.3466675" id="Shape" stroke="#333A3E" stroke-width="1.44"></path>
                        <path d="M17.944,50.5680114 C17.944,50.5680114 17.8,62.422232 25.792,55.6689185" id="Shape" stroke="#333A3E" stroke-width="1.44"></path>
                        <path d="M19.456,49.3466675 L19.456,47.5505735" id="Shape" stroke="#333A3E" stroke-width="1.44"></path>
                        <ellipse id="Oval" fill="#333A3E" cx="25.504" cy="59.2611066" rx="0.648" ry="0.646593851"></ellipse>
                        <ellipse id="Oval" fill="#333A3E" cx="25.504" cy="66.4454827" rx="0.648" ry="0.646593851"></ellipse>
                        <ellipse id="Oval" fill="#333A3E" cx="25.504" cy="73.6298588" rx="0.648" ry="0.646593851"></ellipse>
                        <ellipse id="Oval" fill="#333A3E" cx="25.504" cy="80.8142349" rx="0.648" ry="0.646593851"></ellipse>
                        <ellipse id="Oval" fill="#333A3E" cx="25.504" cy="87.998611" rx="0.648" ry="0.646593851"></ellipse>
                        <path d="M33.64,50.5680114 C33.64,50.5680114 33.784,62.422232 25.792,55.6689185" id="Shape" stroke="#333A3E" stroke-width="1.44"></path>
                        <path d="M0.16,123.776804 L2.32,124.926304 C4.12,125.932117 6.352,125.932117 8.152,124.854461 L9.952,123.848648 C10.168,123.70496 10.456,123.70496 10.672,123.848648 L12.4,124.854461 C14.272,125.932117 16.504,125.932117 18.376,124.854461 L20.104,123.848648 C20.32,123.70496 20.608,123.70496 20.824,123.848648 L22.552,124.854461 C24.424,125.932117 26.656,125.932117 28.528,124.854461 L30.256,123.848648 C30.472,123.70496 30.76,123.70496 30.976,123.848648 L32.704,124.854461 C34.576,125.932117 36.808,125.932117 38.68,124.854461 L40.408,123.848648 C40.624,123.70496 40.912,123.70496 41.128,123.848648 L42.928,124.854461 C44.728,125.860273 46.96,125.932117 48.76,124.926304 L50.92,123.776804 L37.744,92.8839868 L13.408,92.8839868 L0.16,123.776804 L0.16,123.776804 Z" id="Shape" fill="#FF9D9B"></path>
                        <path d="M36.304,99.7809879 L34,99.7809879 L34,97.9848938 C34,94.2490182 30.976,91.1597365 27.16,91.1597365 C23.416,91.1597365 20.32,94.1771745 20.32,97.9848938 L20.32,99.7809879 L18.016,99.7809879 C14.776,99.7809879 12.112,102.439207 12.112,105.672176 L12.112,118.819585 C12.112,119.250647 12.4,119.538022 12.832,119.538022 L41.488,119.538022 C41.92,119.538022 42.208,119.250647 42.208,118.819585 L42.208,105.672176 C42.208,102.439207 39.544,99.7809879 36.304,99.7809879 L36.304,99.7809879 Z M21.832,97.9848938 C21.832,95.0392996 24.28,92.5966117 27.232,92.5966117 C30.184,92.5966117 32.632,95.0392996 32.632,97.9848938 L32.632,99.7809879 L21.904,99.7809879 L21.904,97.9848938 L21.832,97.9848938 Z" id="Shape" fill="#000000" opacity="0.2"></path>
                        <path d="M41.488,116.736115 L41.488,103.588707 C41.488,100.714957 39.112,98.4159564 36.304,98.4159564 L18.088,98.4159564 C15.208,98.4159564 12.904,100.786801 12.904,103.588707 L12.904,116.736115 L41.488,116.736115 L41.488,116.736115 Z" id="Shape" fill="#808080"></path>
                        <path d="M37.456,112.138115 C28.96,114.437115 19.816,106.103239 12.832,110.70124 L12.832,116.736115 L41.488,116.736115 L41.488,110.557552 C40.264,111.204146 38.896,111.778896 37.456,112.138115 L37.456,112.138115 Z" id="Shape" fill-opacity="0.2" fill="#000000"></path>
                        <path d="M41.488,116.736115 L41.488,103.588707 C41.488,100.714957 39.112,98.4159564 36.304,98.4159564 L18.088,98.4159564 C15.208,98.4159564 12.904,100.786801 12.904,103.588707 L12.904,116.736115 L41.488,116.736115 L41.488,116.736115 Z" id="Shape" stroke="#333A3E" stroke-width="1.44"></path>
                        <path d="M21.112,107.755645 L21.112,95.9014248 C21.112,92.524768 23.848,89.7947051 27.232,89.7947051 C30.616,89.7947051 33.352,92.524768 33.352,95.9014248 L33.352,107.755645" id="Shape" stroke="#333A3E" stroke-width="1.44"></path>
                        <path d="M19.744,107.755645 L22.408,107.755645" id="Shape" stroke="#333A3E" stroke-width="1.44"></path>
                        <path d="M31.984,107.755645 L34.576,107.755645" id="Shape" stroke="#333A3E" stroke-width="1.44"></path>
                        <path d="M0.376,123.776804 L2.32,124.854461 C4.264,125.932117 6.568,125.860273 8.512,124.782617 L10.168,123.848648 C10.384,123.70496 10.672,123.70496 10.888,123.848648 L12.472,124.710773 C14.416,125.788429 16.792,125.788429 18.736,124.710773 L20.32,123.848648 C20.536,123.70496 20.824,123.70496 21.04,123.848648 L22.624,124.710773 C24.568,125.788429 26.944,125.788429 28.888,124.710773 L30.472,123.848648 C30.688,123.70496 30.976,123.70496 31.192,123.848648 L32.776,124.710773 C34.72,125.788429 37.096,125.788429 39.04,124.710773 L40.624,123.848648 C40.84,123.70496 41.128,123.70496 41.344,123.848648 L43,124.782617 C44.944,125.860273 47.248,125.860273 49.192,124.854461 L51.136,123.776804 L37.96,92.8839868 L13.48,92.8839868 L0.376,123.776804 L0.376,123.776804 Z" id="Shape" stroke="#333A3E" stroke-width="1.44"></path>
                        <path d="M30.616,89.5791738 L27.016,88.2859861 C26.512,88.1422985 26.224,87.5675485 26.44,87.0646421 L26.44,86.9927984 C26.584,86.489892 27.16,86.202517 27.664,86.4180483 L30.544,87.4238609 C31.264,87.6393922 31.624,88.4296736 31.336,89.1481112 L31.336,89.219955 C31.264,89.50733 30.904,89.6510175 30.616,89.5791738 L30.616,89.5791738 Z" id="Shape" stroke="#333A3E" stroke-width="1.08" fill="#F3CE9D"></path>
                        <path d="M28.96,91.8781741 L29.896,93.7461119 C30.112,94.2490182 30.688,94.3927058 31.192,94.1771745 L31.264,94.1771745 C31.768,93.9616432 31.912,93.3868931 31.696,92.8839868 L29.608,88.7888924 C29.608,88.7888924 27.664,84.3345792 22.624,84.3345792 L18.376,89.9383926 C21.616,89.6510175 22.624,92.5966117 22.624,92.5966117 L23.272,93.7461119 C23.488,94.2490182 24.064,94.3927058 24.568,94.1771745 L24.64,94.1771745 C25.144,93.9616432 25.288,93.3868931 25.072,92.8839868 L24.208,91.303424" id="Shape" stroke="#333A3E" stroke-width="1.08" fill="#F3CE9D"></path>
                        <path d="M28.24,90.4412989 L29.392,92.7402993 C29.608,93.2432056 29.464,93.8179557 28.96,94.033487 L28.888,94.033487 C28.384,94.2490182 27.808,94.1053307 27.592,93.6024244 L26.44,91.303424" id="Shape" stroke="#333A3E" stroke-width="1.08" fill="#F3CE9D"></path>
                        <path d="M26.152,90.7286739 L27.088,92.6684555 C27.304,93.1713618 27.16,93.7461119 26.656,93.9616432 L26.584,93.9616432 C26.08,94.1771745 25.504,94.033487 25.288,93.5305806 L24.064,91.0878928" id="Shape" stroke="#333A3E" stroke-width="1.08" fill="#F3CE9D"></path>
                        <path d="M2.824,62.134857 L2.824,87.4957047 L18.304,89.8665488 L21.256,87.6393922 L22.552,84.2627354 L10.168,81.6045163" id="Shape" fill="#CCE3ED"></path>
                        <path d="M43.864,106.821676 L47.968,64.7930762 C49.12,52.4359492 41.344,50.711699 35.152,50.711699" id="Shape" stroke="#333A3E" stroke-width="1.44"></path>
                        <path d="M16.216,50.711699 C10.024,50.711699 2.824,52.7233243 2.824,62.8532946 L2.896,87.4957047 L18.376,89.8665488" id="Shape" stroke="#333A3E" stroke-width="1.44"></path>
                        <path d="M10.456,72.2648273 L10.168,81.6045163 L22.624,84.2627354 C22.624,84.2627354 22.912,88.1422985 18.376,89.8665488" id="Shape" stroke="#333A3E" stroke-width="1.44"></path>
                        <path d="M24.856,101.936301 L29.464,101.936301" id="Shape" stroke="#F8DA7E" stroke-width="1.44"></path>
                        <path d="M13.768,91.5189553 L14.704,89.2917987 L20.752,90.2976114 C20.752,90.2976114 21.904,91.7344866 21.832,93.3868931 C21.832,93.3868931 20.968,92.3092367 19.168,92.0218616 C17.296,91.6626428 13.768,91.5189553 13.768,91.5189553 L13.768,91.5189553 Z" id="Shape" fill="#000000" opacity="0.2"></path>
                        <path d="M19.312,169.613124 L17.224,169.613124 C17.224,169.613124 11.608,170.906311 12.04,175.648 L12.832,176.294594 L17.008,176.294594 L17.944,176.294594 L18.664,176.294594 L19.6,176.294594 L23.776,176.294594 L24.568,175.648 C24.928,170.906311 19.312,169.613124 19.312,169.613124 L19.312,169.613124 Z" id="Shape" fill="#FFFFFF"></path>
                        <path d="M24.064,178.52175 L12.04,178.52175 L12.04,176.22275 L24.712,176.22275 L24.064,178.52175 Z" id="Shape" fill="#FFFFFF"></path>
                        <path d="M11.968,176.22275 L24.64,176.22275" id="Shape" stroke="#333A3E" stroke-width="1.44"></path>
                        <path d="M18.232,178.52175 L23.992,178.52175 L23.992,178.52175 C24.352,177.731469 24.568,176.7975 24.568,175.863531 C24.568,172.41503 21.76,169.54128 18.232,169.54128 L18.16,169.54128 C14.704,169.54128 11.824,172.343187 11.824,175.863531" id="Shape" stroke="#333A3E" stroke-width="1.44"></path>
                        <path d="M18.232,178.52175 L12.472,178.52175 L12.472,178.52175 C12.112,177.731469 11.896,176.7975 11.896,175.863531" id="Shape" stroke="#333A3E" stroke-width="1.44"></path>
                    </g>
                    <g id="aplazame-logotipo__1_" transform="translate(163.000000, 10.000000)" fill="#267BBD">
                        <path d="M55.893068,22.3985769 L55.893068,21.2647308 C55.893068,21.1593462 55.840323,21.1066538 55.734833,21.1066538 L53.623108,21.1066538 C51.669233,21.1066538 50.877288,21.6601154 50.877288,22.8208846 C50.877288,23.8758846 51.643053,24.4028077 53.094888,24.4028077 C54.810833,24.4028077 55.893068,23.7435769 55.893068,22.3985769 M59.589068,25.2735769 C59.589068,26.0643462 58.955358,26.6447308 58.110668,26.6447308 C57.582833,26.6447308 57.160488,26.4601154 56.869813,26.0381923 L56.447468,25.4047308 L56.421288,25.4047308 C55.682088,26.2751154 54.388488,26.8028077 52.672928,26.8028077 C49.662998,26.8028077 48.052928,25.3789615 48.052928,22.9524231 C48.052928,20.2097308 49.979853,18.8912692 53.121453,18.8912692 L55.734833,18.8912692 C55.840323,18.8912692 55.893068,18.8385769 55.893068,18.7328077 L55.893068,18.4162692 C55.893068,16.9397308 55.048763,16.0697308 53.042528,16.0697308 C52.144708,16.0697308 51.273453,16.3331923 50.719053,16.5970385 C50.454943,16.7020385 50.190833,16.7547308 49.953288,16.7547308 C49.241038,16.7547308 48.738613,16.2805 48.738613,15.5424231 C48.738613,15.1197308 48.950363,14.6455 49.478583,14.3816538 C50.296708,13.9070385 51.616873,13.5112692 53.358613,13.5112692 C56.976073,13.5112692 58.691633,15.3051154 58.691633,18.4428077 L58.691633,22.4516538 C58.691633,23.1112692 58.770943,23.3747308 58.955358,23.7174231 L59.351138,24.4028077 C59.509758,24.6931923 59.589068,24.9835769 59.589068,25.2735769" id="Fill-10"></path>
                        <path d="M69.7891425,22.4778462 C69.9735575,21.924 70.0532525,21.1593846 70.0532525,20.1570769 C70.0532525,19.1547692 69.9735575,18.3901538 69.7891425,17.8366923 C69.3933625,16.6232308 68.5482875,16.1486154 67.4394875,16.1486154 C66.3045075,16.1486154 65.4598175,16.6232308 65.0640375,17.8366923 C64.8792375,18.3901538 64.7999275,19.1547692 64.7999275,20.1570769 C64.7999275,21.1593846 64.8792375,21.924 65.0640375,22.4778462 C65.4598175,23.6909231 66.3045075,24.1655385 67.4394875,24.1655385 C68.5482875,24.1655385 69.3933625,23.6909231 69.7891425,22.4778462 M61.8427425,29.8359231 L61.8427425,15.2255385 C61.8427425,14.2493846 62.4498875,13.6697692 63.3215275,13.6697692 C64.1923975,13.6697692 64.6674875,14.1970769 64.7999275,15.0143846 L64.8261075,15.0143846 C65.4332525,14.1443846 66.4627425,13.5113077 68.2579975,13.5113077 C70.3701075,13.5113077 71.9536125,14.7243846 72.6138875,16.7286154 C72.9307425,17.7043846 73.0627975,18.7328462 73.0627975,20.1570769 C73.0627975,21.5813077 72.9307425,22.6093846 72.6138875,23.5855385 C71.9536125,25.5893846 70.3701075,26.8028462 68.2579975,26.8028462 C66.4627425,26.8028462 65.3808925,26.1174615 64.8261075,25.2997692 L64.7999275,25.2997692 L64.7999275,29.8359231 C64.7999275,30.8116923 64.1923975,31.3920769 63.3215275,31.3920769 C62.4498875,31.3920769 61.8427425,30.8116923 61.8427425,29.8359231" id="Fill-12"></path>
                        <path d="M79.094939,26.6714231 C76.507354,26.6714231 75.609534,25.3791154 75.609534,22.9525769 L75.609534,10.0037308 C75.609534,9.02796154 76.217064,8.44757692 77.087934,8.44757692 C77.933009,8.44757692 78.566719,9.02796154 78.566719,10.0037308 L78.566719,22.7152692 C78.566719,23.6121923 78.857394,23.9283462 79.596594,24.0341154 C80.467079,24.1391154 80.837064,24.6668077 80.837064,25.3264231 C80.837064,26.0910385 80.361974,26.6714231 79.305919,26.6714231 L79.094939,26.6714231 Z" id="Fill-14"></path>
                        <path d="M90.236993,22.3985769 L90.236993,21.2647308 C90.236993,21.1593462 90.184248,21.1066538 90.079143,21.1066538 L87.967033,21.1066538 C86.013158,21.1066538 85.221598,21.6601154 85.221598,22.8208846 C85.221598,23.8758846 85.986978,24.4028077 87.438813,24.4028077 C89.154373,24.4028077 90.236993,23.7435769 90.236993,22.3985769 M93.933378,25.2735769 C93.933378,26.0643462 93.299283,26.6447308 92.454593,26.6447308 C91.926758,26.6447308 91.504413,26.4601154 91.213738,26.0381923 L90.791393,25.4047308 L90.765213,25.4047308 C90.026013,26.2751154 88.732413,26.8028077 87.016468,26.8028077 C84.006923,26.8028077 82.396853,25.3789615 82.396853,22.9524231 C82.396853,20.2097308 84.324163,18.8912692 87.465378,18.8912692 L90.079143,18.8912692 C90.184248,18.8912692 90.236993,18.8385769 90.236993,18.7328077 L90.236993,18.4162692 C90.236993,16.9397308 89.392303,16.0697308 87.386068,16.0697308 C86.488633,16.0697308 85.617378,16.3331923 85.062593,16.5970385 C84.799253,16.7020385 84.535143,16.7547308 84.297598,16.7547308 C83.584578,16.7547308 83.082923,16.2805 83.082923,15.5424231 C83.082923,15.1197308 83.294673,14.6455 83.822508,14.3816538 C84.640633,13.9070385 85.960798,13.5112692 87.702923,13.5112692 C91.319998,13.5112692 93.035558,15.3051154 93.035558,18.4428077 L93.035558,22.4516538 C93.035558,23.1112692 93.114868,23.3747308 93.299283,23.7174231 L93.695063,24.4028077 C93.854068,24.6931923 93.933378,24.9835769 93.933378,25.2735769" id="Fill-16"></path>
                        <path d="M96.9763795,26.5129231 C96.1578695,26.5129231 95.6300345,26.0117692 95.6300345,25.2206154 C95.6300345,24.6406154 95.9468895,24.1133077 96.5536495,23.4006154 L102.414504,16.4386923 L102.414504,16.386 L97.3463645,16.386 C96.5016745,16.386 96.0000195,15.8321538 96.0000195,15.0940769 C96.0000195,14.3556154 96.5016745,13.8013846 97.3463645,13.8013846 L104.843469,13.8013846 C105.661594,13.8013846 106.190199,14.3025385 106.190199,15.0940769 C106.190199,15.6736923 105.899139,16.201 105.265814,16.9394615 L99.4846545,23.876 L99.4846545,23.9283077 L104.843469,23.9283077 C105.688544,23.9283077 106.190199,24.4821538 106.190199,25.2206154 C106.190199,25.9590769 105.688544,26.5129231 104.843469,26.5129231 L96.9763795,26.5129231 Z" id="Fill-18"></path>
                        <path d="M115.785362,22.3985769 L115.785362,21.2647308 C115.785362,21.1593462 115.732617,21.1066538 115.627127,21.1066538 L113.515402,21.1066538 C111.561142,21.1066538 110.769967,21.6601154 110.769967,22.8208846 C110.769967,23.8758846 111.534962,24.4028077 112.987182,24.4028077 C114.703127,24.4028077 115.785362,23.7435769 115.785362,22.3985769 M119.481362,25.2735769 C119.481362,26.0643462 118.848037,26.6447308 118.002962,26.6447308 C117.475127,26.6447308 117.052782,26.4601154 116.762107,26.0381923 L116.339762,25.4047308 L116.313582,25.4047308 C115.574382,26.2751154 114.280782,26.8028077 112.565222,26.8028077 C109.554907,26.8028077 107.945222,25.3789615 107.945222,22.9524231 C107.945222,20.2097308 109.872147,18.8912692 113.013747,18.8912692 L115.627127,18.8912692 C115.732617,18.8912692 115.785362,18.8385769 115.785362,18.7328077 L115.785362,18.4162692 C115.785362,16.9397308 114.940672,16.0697308 112.934437,16.0697308 C112.036617,16.0697308 111.165747,16.3331923 110.611347,16.5970385 C110.346852,16.7020385 110.083127,16.7547308 109.845582,16.7547308 C109.132947,16.7547308 108.631292,16.2805 108.631292,15.5424231 C108.631292,15.1197308 108.842657,14.6455 109.370107,14.3816538 C110.189002,13.9070385 111.509167,13.5112692 113.251292,13.5112692 C116.868367,13.5112692 118.583927,15.3051154 118.583927,18.4428077 L118.583927,22.4516538 C118.583927,23.1112692 118.662852,23.3747308 118.848037,23.7174231 L119.243432,24.4028077 C119.402052,24.6931923 119.481362,24.9835769 119.481362,25.2735769" id="Fill-20"></path>
                        <path d="M121.682946,15.2253462 C121.682946,14.2495769 122.290091,13.6695769 123.160961,13.6695769 C124.032601,13.6695769 124.507691,14.2234231 124.639361,14.9880385 L124.665926,14.9880385 C125.220326,14.1968846 126.329126,13.5111154 128.018506,13.5111154 C129.523086,13.5111154 130.737761,14.1176538 131.503141,15.1995769 L131.529706,15.1995769 C132.506066,14.1441923 133.773486,13.5111154 135.595306,13.5111154 C138.551336,13.5111154 140.214536,15.5153462 140.214536,18.2318846 L140.214536,25.0891923 C140.214536,26.0645769 139.607776,26.6445769 138.736906,26.6445769 C137.865266,26.6445769 137.258121,26.0645769 137.258121,25.0891923 L137.258121,18.9176538 C137.258121,17.2830385 136.439611,16.1484231 134.856106,16.1484231 C133.324576,16.1484231 132.426756,17.2830385 132.426756,18.9176538 L132.426756,25.0891923 C132.426756,26.0645769 131.819996,26.6445769 130.948741,26.6445769 C130.077871,26.6445769 129.470726,26.0645769 129.470726,25.0891923 L129.470726,18.9176538 C129.470726,17.2830385 128.651831,16.1484231 127.068326,16.1484231 C125.537181,16.1484231 124.639361,17.2830385 124.639361,18.9176538 L124.639361,25.0891923 C124.639361,26.0645769 124.032601,26.6445769 123.160961,26.6445769 C122.290091,26.6445769 121.682946,26.0645769 121.682946,25.0891923 L121.682946,15.2253462 Z" id="Fill-22"></path>
                        <path d="M150.805308,17.6517308 C150.461888,16.6232692 149.511708,16.0163462 148.323983,16.0163462 C147.108923,16.0163462 146.159128,16.6232692 145.816093,17.6517308 C145.710603,17.9678846 145.657473,18.2848077 145.657473,18.7328846 C145.657473,18.8386538 145.710603,18.8913462 145.816093,18.8913462 L150.805308,18.8913462 C150.910413,18.8913462 150.963543,18.8386538 150.963543,18.7328846 C150.963543,18.2848077 150.910413,17.9678846 150.805308,17.6517308 M143.123018,23.2690385 C142.858908,22.4513462 142.674493,21.4755769 142.674493,20.1571154 C142.674493,18.8386538 142.832728,17.8363462 143.096838,17.0186538 C143.809858,14.8036538 145.762963,13.5109615 148.297418,13.5109615 C150.910413,13.5109615 152.811543,14.8559615 153.524563,17.0186538 C153.788288,17.8628846 153.946523,18.8648077 153.946523,20.0782692 C153.946523,20.6844231 153.577308,21.1063462 152.917418,21.1063462 L145.816093,21.1063462 C145.710603,21.1063462 145.657473,21.1594231 145.657473,21.2648077 C145.657473,21.6340385 145.736783,21.9505769 145.841888,22.2405769 C146.264618,23.4794231 147.267928,24.1655769 148.719763,24.1655769 C149.802383,24.1655769 150.515018,23.8494231 151.333143,23.2955769 C151.676948,23.0582692 152.019598,22.8736538 152.416148,22.8736538 C153.181528,22.8736538 153.656618,23.4005769 153.656618,24.1132692 C153.656618,24.6144231 153.444868,24.9567308 153.049088,25.2732692 C151.913723,26.1963462 150.515018,26.8028846 148.455653,26.8028846 C145.736783,26.8028846 143.835653,25.4840385 143.123018,23.2690385" id="Fill-24"></path>
                        <path d="M36.1238185,14.5158462 C36.8322185,13.4689231 36.5561735,12.0458462 35.5078185,11.3377692 C34.4598485,10.6300769 33.0353485,10.9058462 32.3269485,11.9535385 C30.8058135,14.2023846 28.8022735,16.0146923 26.5061335,17.2946923 C26.4607035,17.1793077 20.3438235,1.60161538 20.3438235,1.60161538 C20.0138785,0.769307692 19.2046085,0.180076923 18.2413385,0.166230769 C17.3712385,0.161615385 16.5146135,0.633923077 16.1038185,1.57315385 L10.4701135,15.0708462 C11.7764185,15.8704615 13.2020735,16.4681538 14.6989535,16.8343077 L18.1531735,8.557 L22.2395635,18.9650769 C20.9378785,19.2812308 19.5896085,19.447 18.2182385,19.447 C12.6395885,19.447 7.4089785,16.7089231 4.2281085,12.1227692 C3.5070035,11.0839231 2.0794235,10.8250769 1.0399235,11.5450769 C-0.0003465,12.2646923 -0.2586815,13.6912308 0.4612685,14.7300769 C4.4983785,20.5496923 11.1369335,24.0243077 18.2182385,24.0243077 C20.1717285,24.0243077 22.0882585,23.7600769 23.9247085,23.2577692 L29.8617935,38.3804615 C30.3261035,39.5631538 31.6601285,40.1339231 32.8312985,39.6754615 C34.0097835,39.2139231 34.5895935,37.8862308 34.1275935,36.7089231 L28.1908935,21.5873846 C31.3348035,19.9527692 34.0752335,17.5458462 36.1238185,14.5158462 L36.1238185,14.5158462 Z M5.3153485,27.4227692 C4.8275535,28.5896923 5.3796435,29.9296923 6.5477335,30.4166154 C7.7100485,30.9008462 9.0548535,30.3558462 9.5438035,29.1843077 L11.2239435,25.1589231 C9.7586335,24.7081538 8.3426035,24.1162308 6.9954885,23.3958462 L5.3153485,27.4227692 Z" id="Fill-26"></path>
                    </g>
                </g>
            </g>
        </g>
    </g>
</svg>