<?xml version="1.0" encoding="UTF-8" standalone="no"?>
<svg width="400px" height="104px" viewBox="0 0 400 104" version="1.1" xmlns="http://www.w3.org/2000/svg" xmlns:xlink="http://www.w3.org/1999/xlink" xmlns:sketch="http://www.bohemiancoding.com/sketch/ns">
    <!-- Generator: Sketch 3.4.1 (15681) - http://www.bohemiancoding.com/sketch -->
    <title>Artboard</title>
    <desc>Created with Sketch.</desc>
    <defs></defs>
    <g id="Page-1" stroke="none" stroke-width="1" fill="none" fill-rule="evenodd" sketch:type="MSPage">
        <g id="Artboard" sketch:type="MSArtboardGroup" fill="#FFFFFF">
            <g id="aplazame-logotipo__1_" sketch:type="MSLayerGroup">
                <path d="M145.1768,58.2363 L145.1768,55.2883 C145.1768,55.0143 145.0398,54.8773 144.7658,54.8773 L139.2808,54.8773 C134.2058,54.8773 132.1488,56.3163 132.1488,59.3343 C132.1488,62.0773 134.1378,63.4473 137.9088,63.4473 C142.3658,63.4473 145.1768,61.7333 145.1768,58.2363 M154.7768,65.7113 C154.7768,67.7673 153.1308,69.2763 150.9368,69.2763 C149.5658,69.2763 148.4688,68.7963 147.7138,67.6993 L146.6168,66.0523 L146.5488,66.0523 C144.6288,68.3153 141.2688,69.6873 136.8128,69.6873 C128.9948,69.6873 124.8128,65.9853 124.8128,59.6763 C124.8128,52.5453 129.8178,49.1173 137.9778,49.1173 L144.7658,49.1173 C145.0398,49.1173 145.1768,48.9803 145.1768,48.7053 L145.1768,47.8823 C145.1768,44.0433 142.9838,41.7813 137.7728,41.7813 C135.4408,41.7813 133.1778,42.4663 131.7378,43.1523 C131.0518,43.4253 130.3658,43.5623 129.7488,43.5623 C127.8988,43.5623 126.5938,42.3293 126.5938,40.4103 C126.5938,39.3113 127.1438,38.0783 128.5158,37.3923 C130.6408,36.1583 134.0698,35.1293 138.5938,35.1293 C147.9898,35.1293 152.4458,39.7933 152.4458,47.9513 L152.4458,58.3743 C152.4458,60.0893 152.6518,60.7743 153.1308,61.6653 L154.1588,63.4473 C154.5708,64.2023 154.7768,64.9573 154.7768,65.7113" id="Fill-10" sketch:type="MSShapeGroup"></path>
                <path d="M181.2705,58.4424 C181.7495,57.0024 181.9565,55.0144 181.9565,52.4084 C181.9565,49.8024 181.7495,47.8144 181.2705,46.3754 C180.2425,43.2204 178.0475,41.9864 175.1675,41.9864 C172.2195,41.9864 170.0255,43.2204 168.9975,46.3754 C168.5175,47.8144 168.3115,49.8024 168.3115,52.4084 C168.3115,55.0144 168.5175,57.0024 168.9975,58.4424 C170.0255,61.5964 172.2195,62.8304 175.1675,62.8304 C178.0475,62.8304 180.2425,61.5964 181.2705,58.4424 M160.6305,77.5734 L160.6305,39.5864 C160.6305,37.0484 162.2075,35.5414 164.4715,35.5414 C166.7335,35.5414 167.9675,36.9124 168.3115,39.0374 L168.3795,39.0374 C169.9565,36.7754 172.6305,35.1294 177.2935,35.1294 C182.7795,35.1294 186.8925,38.2834 188.6075,43.4944 C189.4305,46.0314 189.7735,48.7054 189.7735,52.4084 C189.7735,56.1114 189.4305,58.7844 188.6075,61.3224 C186.8925,66.5324 182.7795,69.6874 177.2935,69.6874 C172.6305,69.6874 169.8205,67.9054 168.3795,65.7794 L168.3115,65.7794 L168.3115,77.5734 C168.3115,80.1104 166.7335,81.6194 164.4715,81.6194 C162.2075,81.6194 160.6305,80.1104 160.6305,77.5734" id="Fill-12" sketch:type="MSShapeGroup"></path>
                <path d="M205.4414,69.3457 C198.7204,69.3457 196.3884,65.9857 196.3884,59.6767 L196.3884,26.0097 C196.3884,23.4727 197.9664,21.9637 200.2284,21.9637 C202.4234,21.9637 204.0694,23.4727 204.0694,26.0097 L204.0694,59.0597 C204.0694,61.3917 204.8244,62.2137 206.7444,62.4887 C209.0054,62.7617 209.9664,64.1337 209.9664,65.8487 C209.9664,67.8367 208.7324,69.3457 205.9894,69.3457 L205.4414,69.3457 Z" id="Fill-14" sketch:type="MSShapeGroup"></path>
                <path d="M234.3818,58.2363 L234.3818,55.2883 C234.3818,55.0143 234.2448,54.8773 233.9718,54.8773 L228.4858,54.8773 C223.4108,54.8773 221.3548,56.3163 221.3548,59.3343 C221.3548,62.0773 223.3428,63.4473 227.1138,63.4473 C231.5698,63.4473 234.3818,61.7333 234.3818,58.2363 M243.9828,65.7113 C243.9828,67.7673 242.3358,69.2763 240.1418,69.2763 C238.7708,69.2763 237.6738,68.7963 236.9188,67.6993 L235.8218,66.0523 L235.7538,66.0523 C233.8338,68.3153 230.4738,69.6873 226.0168,69.6873 C218.1998,69.6873 214.0178,65.9853 214.0178,59.6763 C214.0178,52.5453 219.0238,49.1173 227.1828,49.1173 L233.9718,49.1173 C234.2448,49.1173 234.3818,48.9803 234.3818,48.7053 L234.3818,47.8823 C234.3818,44.0433 232.1878,41.7813 226.9768,41.7813 C224.6458,41.7813 222.3828,42.4663 220.9418,43.1523 C220.2578,43.4253 219.5718,43.5623 218.9548,43.5623 C217.1028,43.5623 215.7998,42.3293 215.7998,40.4103 C215.7998,39.3113 216.3498,38.0783 217.7208,37.3923 C219.8458,36.1583 223.2748,35.1293 227.7998,35.1293 C237.1948,35.1293 241.6508,39.7933 241.6508,47.9513 L241.6508,58.3743 C241.6508,60.0893 241.8568,60.7743 242.3358,61.6653 L243.3638,63.4473 C243.7768,64.2023 243.9828,64.9573 243.9828,65.7113" id="Fill-16" sketch:type="MSShapeGroup"></path>
                <path d="M251.8867,68.9336 C249.7607,68.9336 248.3897,67.6306 248.3897,65.5736 C248.3897,64.0656 249.2127,62.6946 250.7887,60.8416 L266.0117,42.7406 L266.0117,42.6036 L252.8477,42.6036 C250.6537,42.6036 249.3507,41.1636 249.3507,39.2446 C249.3507,37.3246 250.6537,35.8836 252.8477,35.8836 L272.3207,35.8836 C274.4457,35.8836 275.8187,37.1866 275.8187,39.2446 C275.8187,40.7516 275.0627,42.1226 273.4177,44.0426 L258.4017,62.0776 L258.4017,62.2136 L272.3207,62.2136 C274.5157,62.2136 275.8187,63.6536 275.8187,65.5736 C275.8187,67.4936 274.5157,68.9336 272.3207,68.9336 L251.8867,68.9336 Z" id="Fill-18" sketch:type="MSShapeGroup"></path>
                <path d="M300.7412,58.2363 L300.7412,55.2883 C300.7412,55.0143 300.6042,54.8773 300.3302,54.8773 L294.8452,54.8773 C289.7692,54.8773 287.7142,56.3163 287.7142,59.3343 C287.7142,62.0773 289.7012,63.4473 293.4732,63.4473 C297.9302,63.4473 300.7412,61.7333 300.7412,58.2363 M310.3412,65.7113 C310.3412,67.7673 308.6962,69.2763 306.5012,69.2763 C305.1302,69.2763 304.0332,68.7963 303.2782,67.6993 L302.1812,66.0523 L302.1132,66.0523 C300.1932,68.3153 296.8332,69.6873 292.3772,69.6873 C284.5582,69.6873 280.3772,65.9853 280.3772,59.6763 C280.3772,52.5453 285.3822,49.1173 293.5422,49.1173 L300.3302,49.1173 C300.6042,49.1173 300.7412,48.9803 300.7412,48.7053 L300.7412,47.8823 C300.7412,44.0433 298.5472,41.7813 293.3362,41.7813 C291.0042,41.7813 288.7422,42.4663 287.3022,43.1523 C286.6152,43.4253 285.9302,43.5623 285.3132,43.5623 C283.4622,43.5623 282.1592,42.3293 282.1592,40.4103 C282.1592,39.3113 282.7082,38.0783 284.0782,37.3923 C286.2052,36.1583 289.6342,35.1293 294.1592,35.1293 C303.5542,35.1293 308.0102,39.7933 308.0102,47.9513 L308.0102,58.3743 C308.0102,60.0893 308.2152,60.7743 308.6962,61.6653 L309.7232,63.4473 C310.1352,64.2023 310.3412,64.9573 310.3412,65.7113" id="Fill-20" sketch:type="MSShapeGroup"></path>
                <path d="M316.0596,39.5859 C316.0596,37.0489 317.6366,35.5409 319.8986,35.5409 C322.1626,35.5409 323.3966,36.9809 323.7386,38.9689 L323.8076,38.9689 C325.2476,36.9119 328.1276,35.1289 332.5156,35.1289 C336.4236,35.1289 339.5786,36.7059 341.5666,39.5189 L341.6356,39.5189 C344.1716,36.7749 347.4636,35.1289 352.1956,35.1289 C359.8736,35.1289 364.1936,40.3399 364.1936,47.4029 L364.1936,65.2319 C364.1936,67.7679 362.6176,69.2759 360.3556,69.2759 C358.0916,69.2759 356.5146,67.7679 356.5146,65.2319 L356.5146,49.1859 C356.5146,44.9359 354.3886,41.9859 350.2756,41.9859 C346.2976,41.9859 343.9656,44.9359 343.9656,49.1859 L343.9656,65.2319 C343.9656,67.7679 342.3896,69.2759 340.1266,69.2759 C337.8646,69.2759 336.2876,67.7679 336.2876,65.2319 L336.2876,49.1859 C336.2876,44.9359 334.1606,41.9859 330.0476,41.9859 C326.0706,41.9859 323.7386,44.9359 323.7386,49.1859 L323.7386,65.2319 C323.7386,67.7679 322.1626,69.2759 319.8986,69.2759 C317.6366,69.2759 316.0596,67.7679 316.0596,65.2319 L316.0596,39.5859 Z" id="Fill-22" sketch:type="MSShapeGroup"></path>
                <path d="M391.7021,45.8945 C390.8101,43.2205 388.3421,41.6425 385.2571,41.6425 C382.1011,41.6425 379.6341,43.2205 378.7431,45.8945 C378.4691,46.7165 378.3311,47.5405 378.3311,48.7055 C378.3311,48.9805 378.4691,49.1175 378.7431,49.1175 L391.7021,49.1175 C391.9751,49.1175 392.1131,48.9805 392.1131,48.7055 C392.1131,47.5405 391.9751,46.7165 391.7021,45.8945 M371.7481,60.4995 C371.0621,58.3735 370.5831,55.8365 370.5831,52.4085 C370.5831,48.9805 370.9941,46.3745 371.6801,44.2485 C373.5321,38.4895 378.6051,35.1285 385.1881,35.1285 C391.9751,35.1285 396.9131,38.6255 398.7651,44.2485 C399.4501,46.4435 399.8611,49.0485 399.8611,52.2035 C399.8611,53.7795 398.9021,54.8765 397.1881,54.8765 L378.7431,54.8765 C378.4691,54.8765 378.3311,55.0145 378.3311,55.2885 C378.3311,56.2485 378.5371,57.0715 378.8101,57.8255 C379.9081,61.0465 382.5141,62.8305 386.2851,62.8305 C389.0971,62.8305 390.9481,62.0085 393.0731,60.5685 C393.9661,59.9515 394.8561,59.4715 395.8861,59.4715 C397.8741,59.4715 399.1081,60.8415 399.1081,62.6945 C399.1081,63.9975 398.5581,64.8875 397.5301,65.7105 C394.5811,68.1105 390.9481,69.6875 385.5991,69.6875 C378.5371,69.6875 373.5991,66.2585 371.7481,60.4995" id="Fill-24" sketch:type="MSShapeGroup"></path>
                <path d="M93.8281,37.7412 C95.6681,35.0192 94.9511,31.3192 92.2281,29.4782 C89.5061,27.6382 85.8061,28.3552 83.9661,31.0792 C80.0151,36.9262 74.8111,41.6382 68.8471,44.9662 C68.7291,44.6662 52.8411,4.1642 52.8411,4.1642 C51.9841,2.0002 49.8821,0.4682 47.3801,0.4322 C45.1201,0.4202 42.8951,1.6482 41.8281,4.0902 L27.1951,39.1842 C30.5881,41.2632 34.2911,42.8172 38.1791,43.7692 L47.1511,22.2482 L57.7651,49.3092 C54.3841,50.1312 50.8821,50.5622 47.3201,50.5622 C32.8301,50.5622 19.2441,43.4432 10.9821,31.5192 C9.1091,28.8182 5.4011,28.1452 2.7011,30.0172 C-0.0009,31.8882 -0.6719,35.5972 1.1981,38.2982 C11.6841,53.4292 28.9271,62.4632 47.3201,62.4632 C52.3941,62.4632 57.3721,61.7762 62.1421,60.4702 L77.5631,99.7892 C78.7691,102.8642 82.2341,104.3482 85.2761,103.1562 C88.3371,101.9562 89.8431,98.5042 88.6431,95.4432 L73.2231,56.1272 C81.3891,51.8772 88.5071,45.6192 93.8281,37.7412 L93.8281,37.7412 Z M13.8061,71.2992 C12.5391,74.3332 13.9731,77.8172 17.0071,79.0832 C20.0261,80.3422 23.5191,78.9252 24.7891,75.8792 L29.1531,65.4132 C25.3471,64.2412 21.6691,62.7022 18.1701,60.8292 L13.8061,71.2992 Z" id="Fill-26" sketch:type="MSShapeGroup"></path>
            </g>
        </g>
    </g>
</svg>