<?xml version="1.0" standalone="no"?>
<!DOCTYPE svg PUBLIC "-//W3C//DTD SVG 1.1//EN" "http://www.w3.org/Graphics/SVG/1.1/DTD/svg11.dtd">
<svg width="100%" height="100%" viewBox="0 0 500 80" version="1.1" xmlns="http://www.w3.org/2000/svg" xmlns:xlink="http://www.w3.org/1999/xlink" xml:space="preserve" style="fill-rule:evenodd;clip-rule:evenodd;stroke-linejoin:round;stroke-miterlimit:1.41421;">
    <g transform="matrix(0.28337,0,0,0.28337,213.841,1.53459)">
        <g>
            <g>
                <path d="M0.1,45.522L125.91,0.697L255.1,44.725L234.19,211.185L125.91,271.145L19.33,211.975L0.1,45.525L0.1,45.522Z" style="fill:rgb(226,50,55);fill-rule:nonzero;"/>
                <path d="M255.1,44.725L125.91,0.697L125.91,271.137L234.19,211.271L255.108,44.721L255.1,44.725Z" style="fill:rgb(181,46,49);fill-rule:nonzero;"/>
                <path d="M125.34,63.71C125.06,63.758 124.783,63.82 124.51,63.895C124.324,63.919 124.139,63.95 123.956,63.987C123.863,64.016 123.771,64.047 123.679,64.079C123.617,64.109 123.556,64.14 123.495,64.171C122.713,64.406 121.968,64.748 121.28,65.186C121.218,65.247 121.156,65.309 121.096,65.371C119.375,66.565 118.132,68.331 117.589,70.354L96.919,119.9C101.885,122.979 107.384,125.34 113.251,126.728L125.984,96.279L139.917,131.896C135.497,132.917 130.905,133.464 126.169,133.464C105.405,133.464 87.212,123.077 76.25,107.259C74.446,104.557 71.264,103.091 68.037,103.477C63.702,103.982 60.395,107.696 60.395,112.061C60.395,113.882 60.971,115.658 62.039,117.132C76.114,137.443 99.642,150.718 126.167,150.718C133.108,150.718 139.859,149.748 146.281,148.042L167.503,202.206C168.696,205.831 172.103,208.297 175.919,208.297C180.778,208.297 184.778,204.298 184.778,199.438C184.778,198.13 184.488,196.838 183.929,195.655L162.799,141.685C173.855,135.823 183.31,127.35 190.387,117.141C191.403,115.688 191.948,113.957 191.948,112.184C191.948,107.438 188.043,103.533 183.297,103.533C180.457,103.533 177.791,104.931 176.177,107.268C171.033,114.689 164.296,120.927 156.431,125.445L134.751,69.98C134.576,69.501 134.36,69.038 134.105,68.596C134.075,68.534 134.045,68.473 134.013,68.412C133.774,67.958 133.496,67.526 133.182,67.12C133.152,67.058 133.122,66.997 133.09,66.935C132.942,66.776 132.788,66.622 132.629,66.474C132.568,66.412 132.507,66.35 132.444,66.29C132.296,66.13 132.142,65.976 131.983,65.828C131.922,65.766 131.861,65.704 131.799,65.644C131.619,65.514 131.434,65.391 131.244,65.275C130.948,65.071 130.64,64.887 130.321,64.721C130.11,64.62 129.895,64.528 129.677,64.444C129.615,64.413 129.554,64.382 129.492,64.352C129.279,64.282 129.063,64.221 128.845,64.167C128.573,64.061 128.297,63.969 128.016,63.89C127.439,63.771 126.851,63.709 126.262,63.706C125.955,63.69 125.647,63.69 125.34,63.706L125.34,63.71ZM86.216,145.65L79.296,162.25C78.744,163.427 78.458,164.711 78.458,166.011C78.458,170.87 82.457,174.87 87.317,174.87C91.018,174.87 94.347,172.55 95.628,169.078L102.548,152.377C96.819,150.687 91.36,148.467 86.215,145.647L86.216,145.65Z" style="fill:white;fill-rule:nonzero;"/>
            </g>
        </g>
    </g>
    <g transform="matrix(0.28337,0,0,0.28337,220.148,1.49547)">
        <g>
            <g>
                <path d="M316.22,149.92L316.22,142.909C316.22,142.257 315.894,141.931 315.243,141.931L302.198,141.931C290.128,141.931 285.236,145.354 285.236,152.531C285.236,159.055 289.966,162.313 298.935,162.313C309.535,162.313 316.22,158.237 316.22,149.92M339.051,167.697C339.051,172.587 335.136,176.176 329.918,176.176C326.657,176.176 324.049,175.034 322.253,172.425L319.644,168.508L319.482,168.508C314.916,173.89 306.925,177.153 296.327,177.153C277.734,177.153 267.788,168.349 267.788,153.344C267.788,136.385 279.691,128.232 299.098,128.232L315.242,128.232C315.894,128.232 316.22,127.906 316.22,127.252L316.22,125.295C316.22,116.165 311.004,110.785 298.611,110.785C293.065,110.785 287.683,112.414 284.258,114.046C282.626,114.695 280.995,115.021 279.527,115.021C275.128,115.021 272.024,112.088 272.024,107.524C272.024,104.911 273.332,101.978 276.595,100.347C281.649,97.412 289.804,94.965 300.563,94.965C322.909,94.965 333.507,106.057 333.507,125.459L333.507,150.248C333.507,154.327 333.997,155.956 335.136,158.075L337.581,162.313C338.561,164.108 339.051,165.904 339.051,167.697" style="fill:rgb(38,123,189);"/>
                <path d="M402.06,150.41C403.199,146.985 403.692,142.257 403.692,136.06C403.692,129.862 403.199,125.134 402.06,121.712C399.615,114.209 394.395,111.274 387.545,111.274C380.534,111.274 375.316,114.209 372.871,121.712C371.729,125.134 371.24,129.862 371.24,136.06C371.24,142.258 371.729,146.986 372.871,150.41C375.316,157.911 380.534,160.846 387.545,160.846C394.394,160.846 399.615,157.911 402.06,150.41M352.973,195.908L352.973,105.565C352.973,99.529 356.724,95.945 362.108,95.945C367.488,95.945 370.422,99.206 371.24,104.259L371.402,104.259C375.153,98.88 381.512,94.965 392.602,94.965C405.649,94.965 415.431,102.466 419.51,114.859C421.467,120.893 422.283,127.252 422.283,136.059C422.283,144.866 421.467,151.223 419.51,157.259C415.431,169.65 405.65,177.153 392.602,177.153C381.512,177.153 374.829,172.915 371.402,167.859L371.24,167.859L371.24,195.908C371.24,201.942 367.488,205.53 362.108,205.53C356.724,205.53 352.973,201.942 352.973,195.908" style="fill:rgb(38,123,189);"/>
                <path d="M459.54,176.34C443.556,176.34 438.01,168.349 438.01,153.345L438.01,73.276C438.01,67.242 441.763,63.654 447.143,63.654C452.363,63.654 456.277,67.242 456.277,73.276L456.277,151.877C456.277,157.423 458.073,159.378 462.639,160.032C468.016,160.681 470.302,163.944 470.302,168.023C470.302,172.751 467.367,176.34 460.844,176.34L459.54,176.34L459.54,176.34Z" style="fill:rgb(38,123,189);"/>
                <path d="M528.37,149.92L528.37,142.909C528.37,142.257 528.044,141.931 527.395,141.931L514.348,141.931C502.278,141.931 497.389,145.354 497.389,152.531C497.389,159.055 502.117,162.313 511.085,162.313C521.683,162.313 528.37,158.237 528.37,149.92M551.204,167.697C551.204,172.587 547.287,176.176 542.069,176.176C538.808,176.176 536.2,175.034 534.404,172.425L531.795,168.508L531.633,168.508C527.067,173.89 519.076,177.153 508.476,177.153C489.885,177.153 479.939,168.349 479.939,153.344C479.939,136.385 491.845,128.232 511.249,128.232L527.395,128.232C528.044,128.232 528.37,127.906 528.37,127.252L528.37,125.295C528.37,116.165 523.152,110.785 510.759,110.785C505.216,110.785 499.833,112.414 496.406,114.046C494.78,114.695 493.148,115.021 491.681,115.021C487.276,115.021 484.177,112.088 484.177,107.524C484.177,104.911 485.485,101.978 488.746,100.347C493.8,97.412 501.955,94.965 512.716,94.965C535.06,94.965 545.657,106.057 545.657,125.459L545.657,150.248C545.657,154.327 546.147,155.956 547.286,158.075L549.731,162.313C550.713,164.108 551.203,165.904 551.203,167.697" style="fill:rgb(38,123,189);"/>
                <path d="M570,175.36C564.944,175.36 561.683,172.261 561.683,167.369C561.683,163.783 563.641,160.522 567.389,156.115L603.593,113.066L603.593,112.74L572.286,112.74C567.068,112.74 563.969,109.316 563.969,104.752C563.969,100.185 567.068,96.758 572.286,96.758L618.598,96.758C623.651,96.758 626.917,99.857 626.917,104.752C626.917,108.336 625.119,111.596 621.207,116.163L585.495,159.055L585.495,159.378L618.598,159.378C623.818,159.378 626.917,162.803 626.917,167.369C626.917,171.935 623.818,175.36 618.598,175.36L570.001,175.36L570,175.36Z" style="fill:rgb(38,123,189);"/>
                <path d="M686.19,149.92L686.19,142.909C686.19,142.257 685.864,141.931 685.213,141.931L672.168,141.931C660.096,141.931 655.209,145.354 655.209,152.531C655.209,159.055 659.934,162.313 668.905,162.313C679.505,162.313 686.19,158.237 686.19,149.92M709.021,167.697C709.021,172.587 705.108,176.176 699.888,176.176C696.627,176.176 694.019,175.034 692.223,172.425L689.614,168.508L689.452,168.508C684.886,173.89 676.895,177.153 666.297,177.153C647.701,177.153 637.758,168.349 637.758,153.344C637.758,136.385 649.661,128.232 669.068,128.232L685.212,128.232C685.864,128.232 686.19,127.906 686.19,127.252L686.19,125.295C686.19,116.165 680.972,110.785 668.579,110.785C663.033,110.785 657.653,112.414 654.229,114.046C652.595,114.695 650.966,115.021 649.498,115.021C645.096,115.021 641.997,112.088 641.997,107.524C641.997,104.911 643.303,101.978 646.561,100.347C651.62,97.412 659.775,94.965 670.536,94.965C692.88,94.965 703.477,106.057 703.477,125.459L703.477,150.248C703.477,154.327 703.965,155.956 705.109,158.075L707.551,162.313C708.531,164.108 709.021,165.904 709.021,167.697" style="fill:rgb(38,123,189);"/>
                <path d="M722.62,105.56C722.62,99.526 726.371,95.94 731.75,95.94C737.135,95.94 740.069,99.365 740.883,104.093L741.047,104.093C744.471,99.2 751.321,94.96 761.757,94.96C771.051,94.96 778.555,98.711 783.283,105.401L783.447,105.401C789.478,98.875 797.307,94.96 808.561,94.96C826.821,94.96 837.095,107.353 837.095,124.151L837.095,166.553C837.095,172.584 833.347,176.171 827.967,176.171C822.583,176.171 818.832,172.584 818.832,166.553L818.832,128.391C818.832,118.283 813.776,111.268 803.994,111.268C794.533,111.268 788.987,118.284 788.987,128.391L788.987,166.553C788.987,172.584 785.239,176.171 779.857,176.171C774.477,176.171 770.727,172.584 770.727,166.553L770.727,128.391C770.727,118.283 765.668,111.268 755.887,111.268C746.429,111.268 740.883,118.284 740.883,128.391L740.883,166.553C740.883,172.584 737.135,176.171 731.75,176.171C726.371,176.171 722.62,172.584 722.62,166.553L722.62,105.56L722.62,105.56Z" style="fill:rgb(38,123,189);"/>
                <path d="M902.52,120.57C900.399,114.211 894.529,110.458 887.192,110.458C879.686,110.458 873.819,114.211 871.7,120.57C871.048,122.525 870.72,124.485 870.72,127.255C870.72,127.909 871.048,128.235 871.7,128.235L902.52,128.235C903.169,128.235 903.497,127.909 903.497,127.255C903.497,124.485 903.169,122.525 902.52,120.57M855.064,155.304C853.433,150.248 852.293,144.214 852.293,136.062C852.293,127.909 853.271,121.712 854.902,116.655C859.307,102.959 871.371,94.965 887.028,94.965C903.169,94.965 914.913,103.282 919.318,116.655C920.947,121.875 921.925,128.071 921.925,135.574C921.925,139.322 919.644,141.931 915.568,141.931L871.701,141.931C871.049,141.931 870.721,142.259 870.721,142.911C870.721,145.194 871.211,147.151 871.86,148.945C874.471,156.605 880.669,160.848 889.637,160.848C896.325,160.848 900.727,158.893 905.781,155.468C907.905,154.001 910.021,152.859 912.471,152.859C917.199,152.859 920.134,156.117 920.134,160.524C920.134,163.623 918.826,165.74 916.381,167.697C909.367,173.405 900.727,177.155 888.006,177.155C871.211,177.155 859.467,169 855.065,155.304" style="fill:rgb(38,123,189);"/>
            </g>
        </g>
    </g>
    <g transform="matrix(1.10636,0,0,1.10636,148.474,51.6248)">
        <g>
            <g>
                <path d="M5.357,-3.121L5.357,-17.312L4.937,-17.312C3.933,-17.312 3.243,-17.43 2.867,-17.666C2.491,-17.902 2.302,-18.316 2.302,-18.906C2.302,-19.452 2.457,-19.847 2.767,-20.09C3.077,-20.334 3.579,-20.456 4.273,-20.456L7.438,-20.456C7.837,-20.456 8.147,-20.375 8.368,-20.212C8.59,-20.05 8.7,-19.828 8.7,-19.548L8.7,-18.043C9.778,-19.046 10.844,-19.788 11.899,-20.268C12.955,-20.747 14.05,-20.987 15.187,-20.987C17.415,-20.987 19.168,-20.293 20.445,-18.906C21.721,-17.519 22.36,-15.6 22.36,-13.15L22.36,-3.121L23.4,-3.121C24.138,-3.121 24.669,-3 24.994,-2.756C25.319,-2.513 25.481,-2.125 25.481,-1.594C25.481,-1.018 25.308,-0.609 24.961,-0.365C24.614,-0.122 23.998,0 23.112,0L18.22,0C17.275,0 16.67,-0.111 16.404,-0.332C16.139,-0.553 16.006,-0.974 16.006,-1.594C16.006,-2.17 16.161,-2.568 16.471,-2.789C16.781,-3.011 17.364,-3.121 18.22,-3.121L18.995,-3.121L18.995,-12.331C18.995,-14.058 18.603,-15.375 17.821,-16.283C17.039,-17.19 15.903,-17.644 14.412,-17.644C12.907,-17.644 11.578,-17.135 10.427,-16.117C9.276,-15.098 8.7,-13.836 8.7,-12.331L8.7,-3.121L9.475,-3.121C10.361,-3.121 10.958,-3.011 11.268,-2.789C11.578,-2.568 11.733,-2.17 11.733,-1.594C11.733,-0.974 11.6,-0.553 11.335,-0.332C11.069,-0.111 10.42,0 9.387,0L5.357,0L4.162,0C3.557,0 3.103,-0.129 2.8,-0.387C2.498,-0.646 2.347,-1.048 2.347,-1.594C2.347,-2.184 2.52,-2.586 2.867,-2.8C3.214,-3.014 3.889,-3.121 4.893,-3.121L5.357,-3.121Z" style="fill:rgb(51,58,62);fill-rule:nonzero;"/>
                <path d="M40.181,-17.179C38.247,-17.179 36.668,-16.581 35.443,-15.386C34.218,-14.191 33.606,-12.641 33.606,-10.737C33.606,-8.863 34.218,-7.324 35.443,-6.121C36.668,-4.918 38.247,-4.317 40.181,-4.317C42.099,-4.317 43.675,-4.918 44.907,-6.121C46.14,-7.324 46.756,-8.863 46.756,-10.737C46.756,-12.611 46.14,-14.154 44.907,-15.364C43.675,-16.574 42.099,-17.179 40.181,-17.179ZM49.789,-1.173C49.789,0.893 49.685,2.358 49.479,3.221C49.272,4.084 48.918,4.841 48.416,5.49C47.59,6.582 46.431,7.413 44.941,7.981C43.45,8.549 41.694,8.833 39.672,8.833C37.989,8.833 36.76,8.671 35.986,8.346C35.211,8.021 34.823,7.505 34.823,6.796C34.823,6.339 35.012,5.937 35.388,5.59C35.764,5.243 36.211,5.07 36.727,5.07C37.126,5.07 37.738,5.125 38.565,5.236C39.391,5.346 40.018,5.402 40.446,5.402C42.631,5.402 44.18,4.9 45.095,3.896C46.011,2.893 46.468,1.173 46.468,-1.262L46.468,-3.941C45.568,-2.893 44.572,-2.125 43.479,-1.638C42.387,-1.151 41.133,-0.908 39.716,-0.908C36.956,-0.908 34.672,-1.826 32.864,-3.664C31.056,-5.501 30.152,-7.83 30.152,-10.648C30.152,-13.482 31.082,-15.832 32.942,-17.699C34.801,-19.566 37.104,-20.5 39.849,-20.5C40.985,-20.5 42.096,-20.29 43.181,-19.869C44.265,-19.448 45.361,-18.81 46.468,-17.954L46.468,-19.548C46.468,-19.858 46.568,-20.087 46.767,-20.234C46.966,-20.382 47.28,-20.456 47.708,-20.456L51.051,-20.456C51.641,-20.456 52.084,-20.327 52.379,-20.068C52.674,-19.81 52.822,-19.423 52.822,-18.906C52.822,-18.316 52.637,-17.902 52.268,-17.666C51.899,-17.43 51.206,-17.312 50.187,-17.312L49.789,-17.312L49.789,-1.173Z" style="fill:rgb(51,58,62);fill-rule:nonzero;"/>
            </g>
        </g>
    </g>
</svg>
