<?xml version="1.0" encoding="UTF-8" standalone="no"?>
<svg width="25px" height="25px" viewBox="0 0 25 25" version="1.1" xmlns="http://www.w3.org/2000/svg" xmlns:xlink="http://www.w3.org/1999/xlink" xmlns:sketch="http://www.bohemiancoding.com/sketch/ns">
    <!-- Generator: Sketch 3.3.3 (12072) - http://www.bohemiancoding.com/sketch -->
    <title>cart-small</title>
    <desc>Created with Sketch.</desc>
    <defs></defs>
    <g id="Page-1" stroke="none" stroke-width="1" fill="none" fill-rule="evenodd" sketch:type="MSPage">
        <g id="colored-icons" sketch:type="MSLayerGroup" transform="translate(-166.000000, -375.000000)">
            <g id="cart-small" transform="translate(166.000000, 375.100000)" sketch:type="MSShapeGroup">
                <rect id="Rectangle-10483-Copy-3" fill-opacity="0.16" fill="#3E8BC2" x="2.18181818" y="2.18181818" width="22" height="22" rx="16.3636364"></rect>
                <path d="M1,11 L1,11 C1,16.5237031 5.47667235,21 11,21 C16.5237031,21 21,16.5233276 21,11 C21,5.47629686 16.5233276,1 11,1 C5.47629686,1 1,5.47667235 1,11 L1,11 Z M0,11 C0,4.92486775 4.923532,0 11,0 C17.0751322,0 22,4.923532 22,11 C22,17.0751322 17.076468,22 11,22 C4.92486775,22 0,17.076468 0,11 L0,11 Z" id="Shape" fill="#3E8BC2"></path>
                <g id="Rectangle-2675-+-Rectangle-2675-Copy-2-+-Rectangle-2675-Copy-3" transform="translate(6.000000, 8.000000)" fill="#448CC0">
                    <path d="M0,0 L1,0 L1,1 L0,1 L0,0 Z M2,0 L10,0 L10,1 L2,1 L2,0 Z" id="Rectangle-2675"></path>
                    <path d="M0,3 L1,3 L1,4 L0,4 L0,3 Z M2,3 L10,3 L10,4 L2,4 L2,3 Z" id="Rectangle-2675-Copy-2"></path>
                    <path d="M0,6 L1,6 L1,7 L0,7 L0,6 Z M2,6 L10,6 L10,7 L2,7 L2,6 Z" id="Rectangle-2675-Copy-3"></path>
                </g>
            </g>
        </g>
    </g>
</svg>