<?xml version="1.0" encoding="UTF-8" standalone="no"?>
<svg
   xmlns:sketch="http://www.bohemiancoding.com/sketch/ns"
   xmlns:dc="http://purl.org/dc/elements/1.1/"
   xmlns:cc="http://creativecommons.org/ns#"
   xmlns:rdf="http://www.w3.org/1999/02/22-rdf-syntax-ns#"
   xmlns:svg="http://www.w3.org/2000/svg"
   xmlns="http://www.w3.org/2000/svg"
   xmlns:sodipodi="http://sodipodi.sourceforge.net/DTD/sodipodi-0.dtd"
   xmlns:inkscape="http://www.inkscape.org/namespaces/inkscape"
   width="146px"
   height="36px"
   viewBox="0 0 146 36"
   version="1.1"
   id="svg3046"
   inkscape:version="0.48.4 r9939"
   sodipodi:docname="logo-color.svg">
  <metadata
     id="metadata3067">
    <rdf:RDF>
      <cc:Work
         rdf:about="">
        <dc:format>image/svg+xml</dc:format>
        <dc:type
           rdf:resource="http://purl.org/dc/dcmitype/StillImage" />
      </cc:Work>
    </rdf:RDF>
  </metadata>
  <sodipodi:namedview
     pagecolor="#ffffff"
     bordercolor="#666666"
     borderopacity="1"
     objecttolerance="10"
     gridtolerance="10"
     guidetolerance="10"
     inkscape:pageopacity="0"
     inkscape:pageshadow="2"
     inkscape:window-width="1366"
     inkscape:window-height="744"
     id="namedview3065"
     showgrid="false"
     inkscape:zoom="2.9083399"
     inkscape:cx="89.986361"
     inkscape:cy="47.908656"
     inkscape:window-x="0"
     inkscape:window-y="456"
     inkscape:window-maximized="1"
     inkscape:current-layer="Imported-Layers-3-+-Aplaza-tu-compra-+-Fill-1-path-2" />
  <!-- Generator: Sketch 3.3.2 (12043) - http://www.bohemiancoding.com/sketch -->
  <title
     id="title3048">logo-color</title>
  <desc
     id="desc3050">Created with Sketch.</desc>
  <defs
     id="defs3052" />
  <g
     id="Page-1"
     stroke="none"
     stroke-width="1"
     fill="none"
     fill-rule="evenodd"
     sketch:type="MSPage">
    <g
       id="Imported-Layers-3-+-Aplaza-tu-compra-+-Fill-1-path-2"
       transform="translate(0.383562,0.431818)">
      <path
         style="fill:#3f474d"
         inkscape:connector-curvature="0"
         id="Fill-1"
         d="m 51.780756,4.6157589 c 0,-0.1567302 0.124772,-0.2977039 0.296365,-0.2977039 l 3.760166,0 c 1.919135,0 3.494906,1.5666691 3.494906,3.4624793 0,1.9427255 -1.575771,3.5251767 -3.47929,3.5251767 l -1.638208,0 0,3.681805 c 0,0.15673 -0.140463,0.297704 -0.296467,0.297704 l -1.841107,0 c -0.171593,0 -0.296365,-0.140974 -0.296365,-0.297704 l 0,-10.3717571 0,0 z M 55.6969,9.0182648 c 0.670883,0 1.232585,-0.53271 1.232585,-1.2377305 0,-0.6580036 -0.561702,-1.1593529 -1.232585,-1.1593529 l -1.482205,0 0,2.3970834 1.482205,0 0,0 z m 8.241266,-4.4025059 c 0,-0.1567302 0.124772,-0.2977039 0.296365,-0.2977039 l 1.856724,0 c 0.156003,0 0.296466,0.1409737 0.296466,0.2977039 l 0,8.3663351 3.71332,0 c 0.171593,0 0.296466,0.141049 0.296466,0.297678 l 0,1.707744 c 0,0.15673 -0.124873,0.297704 -0.296466,0.297704 l -5.86651,0 c -0.171593,0 -0.296365,-0.140974 -0.296365,-0.297704 l 0,-10.3717571 0,0 z m 23.764421,10.0897341 4.150149,-8.0530516 0,-0.03126 -3.401238,0 c -0.156079,0 -0.296467,-0.1410496 -0.296467,-0.2977038 l 0,-1.7077187 c 0,-0.1567302 0.140388,-0.2977039 0.296467,-0.2977039 l 6.630908,0 c 0.156003,0 0.296467,0.1409737 0.296467,0.2977039 l 0,0.2036454 -4.009787,8.1313277 0,0.03136 3.401264,0 c 0.171669,0 0.296441,0.141049 0.296441,0.297678 l 0,1.707744 c 0,0.15673 -0.124772,0.297704 -0.296441,0.297704 l -6.771397,0 c -0.156003,0 -0.296366,-0.140974 -0.296366,-0.297704 l 0,-0.282023 0,0 z M 128.89243,4.6157589 c 0,-0.1567302 0.12477,-0.2977039 0.29636,-0.2977039 l 6.45944,0 c 0.17157,0 0.29637,0.1409737 0.29637,0.2977039 l 0,1.7077187 c 0,0.1566542 -0.1248,0.2977038 -0.29637,0.2977038 l -4.32186,0 0,1.9427254 3.55734,0 c 0.15598,0 0.29636,0.140974 0.29636,0.297704 l 0,1.7077442 c 0,0.172309 -0.14038,0.297678 -0.29636,0.297678 l -3.55734,0 0,2.115061 4.32186,0 c 0.17157,0 0.29637,0.141049 0.29637,0.297678 l 0,1.707744 c 0,0.15673 -0.1248,0.297704 -0.29637,0.297704 l -6.45944,0 c -0.17159,0 -0.29636,-0.140974 -0.29636,-0.297704 l 0,-10.3717571 0,0 z M 47.569835,14.877904 42.818884,4.4841329 c -1.01e-4,-1.774e-4 -3.03e-4,-3.293e-4 -4.04e-4,-5.067e-4 -0.07601,-0.1888768 -0.260039,-0.3223014 -0.475375,-0.3223014 -0.222653,0 -0.411627,0.1427469 -0.482515,0.3418579 -0.0017,0.00193 -0.0036,0.00385 -0.0046,0.00585 L 37.116324,14.877904 c -0.09354,0.203645 0.03123,0.407316 0.26526,0.407316 l 1.716235,0 c 0.312081,0 0.483675,-0.18799 0.561701,-0.376082 l 2.67589,-5.9521772 -0.0079,-0.01707 0.01559,0 1.185839,2.5851502 -0.711272,-1.5304692 1.647391,3.6612862 0.561702,1.237705 c 0.140387,0.297602 0.26526,0.391661 0.54601,0.391661 l 1.73185,0 c 0.23403,0 0.358878,-0.203671 0.265235,-0.407316 l 0,0 0,0 z m -5.234425,-5.9209432 0.482237,1.037607 -0.474568,-1.054681 -0.0077,0.01707 0,0 z M 84.398901,14.877904 79.647949,4.4841329 c -7.5e-5,-1.774e-4 -3.02e-4,-3.293e-4 -4.03e-4,-5.067e-4 -0.07601,-0.1888768 -0.260039,-0.3223014 -0.475375,-0.3223014 -0.222653,0 -0.411627,0.1427469 -0.48249,0.3418579 -0.0017,0.00193 -0.0036,0.00385 -0.0046,0.00585 L 73.945389,14.877904 c -0.09354,0.203645 0.03123,0.407316 0.265261,0.407316 l 1.716235,0 c 0.312081,0 0.483674,-0.18799 0.561701,-0.376082 l 2.67589,-5.9521772 -0.0079,-0.01707 0.01562,0 1.18584,2.5851502 -0.711272,-1.5304702 1.647391,3.6612872 0.561701,1.237705 c 0.140388,0.297602 0.265261,0.391661 0.546011,0.391661 l 1.73185,0 c 0.234004,0 0.358877,-0.203671 0.265235,-0.407316 l 0,0 0,0 z m -5.234425,-5.9209432 0.482237,1.037607 -0.474568,-1.054681 -0.0077,0.01707 0,0 z M 98.786317,14.877904 103.5373,4.4841329 c 7e-5,-1.774e-4 3e-4,-3.293e-4 3.8e-4,-4.813e-4 0.076,-0.1889022 0.26004,-0.3223268 0.4754,-0.3223268 0.22265,0 0.4116,0.1427469 0.48249,0.3418579 0.002,0.00193 0.004,0.00385 0.005,0.00585 l 4.7397,10.3688693 c 0.0935,0.203645 -0.0312,0.407316 -0.26524,0.407316 l -1.71626,0 c -0.31205,0 -0.48365,-0.18799 -0.5617,-0.376082 l -2.67589,-5.9521762 0.008,-0.01707 -0.0156,0 -1.18584,2.5851492 0.7113,-1.5304692 -1.64742,3.6612862 -0.56167,1.237705 c -0.14039,0.297602 -0.26527,0.391661 -0.54602,0.391661 l -1.73185,0 c -0.234029,0 -0.358902,-0.203671 -0.26526,-0.407316 l 0,0 0,0 z m 5.234433,-5.9209432 -0.48222,1.037607 0.47455,-1.054681 0.008,0.01707 0,0 z m 21.01439,5.9835132 -1.72529,-10.3139742 c -10e-4,-0.010057 -0.004,-0.018493 -0.008,-0.026092 -0.0424,-0.2516753 -0.25989,-0.4435412 -0.52258,-0.4435412 -0.21786,0 -0.40487,0.1319553 -0.48658,0.3205281 -10e-5,2.28e-4 -2.7e-4,3.293e-4 -3.7e-4,5.573e-4 l -3.43563,6.608433 -0.0312,0 -3.4309,-6.608433 c -8.3e-4,-0.00165 -0.002,-0.00263 -0.003,-0.00413 -0.0825,-0.1866223 -0.26839,-0.3169563 -0.48484,-0.3169563 -0.24702,0 -0.454,0.1697509 -0.51311,0.3992352 -0.009,0.019759 -0.0153,0.039873 -0.0175,0.060037 l -1.72888,10.3243361 c -0.0312,0.203772 0.10926,0.344746 0.29647,0.344746 l 1.84111,0 c 0.15598,0 0.28085,-0.125293 0.29644,-0.250687 l 0.6865,-4.84126 0.0312,0 2.63674,5.076266 c 0.0468,0.09403 0.17159,0.17231 0.26523,0.17231 l 0.28088,0 c 0.078,0 0.21841,-0.07828 0.26523,-0.17231 l 2.62113,-5.076266 0.0312,0 0.70206,4.84126 c 0.0156,0.125394 0.1561,0.250687 0.29647,0.250687 l 1.8411,0 c 0.18721,0 0.32768,-0.140974 0.29647,-0.344746 l 0,0 0,0 z" />
      <path
         d="m 13.746096,27.094419 c -2.838074,-2.199441 -4.6658616,-5.647481 -4.6658616,-9.523838 0,-6.642276 5.3668146,-12.0269107 11.9871536,-12.0269107 6.620339,0 11.98718,5.3846347 11.98718,12.0269107 0,6.642277 -5.366841,12.026912 -11.98718,12.026912 -1.954654,0 -3.80005,-0.469406 -5.430311,-1.301973 l 5.594286,-11.858883 0.07444,0 2.531467,5.690723 c 0.07331,0.209168 0.191724,0.298819 0.446717,0.298819 l 1.638006,0 c 0.238546,0 0.356961,-0.194222 0.297804,-0.448228 L 21.603636,11.967988 c -0.09104,-0.0747 -0.194625,-0.149409 -0.297829,-0.149409 l -0.148914,0 c -0.103152,0 -0.206784,0.0747 -0.297803,0.149409 l -7.112994,15.126431 0,0 z"
         id="Fill-1-path-2"
         inkscape:connector-curvature="0"
         style="fill:#3187c4" />
      <text
         xml:space="preserve"
         style="font-size:38.65380478px;font-style:normal;font-weight:normal;line-height:125%;letter-spacing:0px;word-spacing:0px;opacity:0.4;fill:#000000;fill-opacity:1;stroke:none;font-family:Sans"
         x="36.606831"
         y="30.746878"
         id="text3865"
         sodipodi:linespacing="125%"><tspan
           sodipodi:role="line"
           id="tspan3867"
           x="36.606831"
           y="30.746878"
           style="font-size:16.42786598px;font-style:normal;font-variant:normal;font-weight:bold;font-stretch:normal;font-family:DejaVu Sans;-inkscape-font-specification:DejaVu Sans Bold">CHECKOUT</tspan></text>
    </g>
  </g>
</svg>
