<?xml version="1.0" encoding="UTF-8" standalone="no"?>
<svg width="118px" height="120px" viewBox="0 0 118 120" version="1.1" xmlns="http://www.w3.org/2000/svg" xmlns:xlink="http://www.w3.org/1999/xlink" xmlns:sketch="http://www.bohemiancoding.com/sketch/ns">
    <!-- Generator: Sketch 3.3.2 (12043) - http://www.bohemiancoding.com/sketch -->
    <title>info-lg</title>
    <desc>Created with Sketch.</desc>
    <defs></defs>
    <g id="Page-1" stroke="none" stroke-width="1" fill="none" fill-rule="evenodd" sketch:type="MSPage">
        <g id="Desktop-HD" sketch:type="MSArtboardGroup" transform="translate(-11.000000, -290.000000)" fill="#2B85C2">
            <g id="info-lg" sketch:type="MSLayerGroup" transform="translate(11.000000, 290.000000)">
                <circle id="Icon-Projection" opacity="0.16" sketch:type="MSShapeGroup" cx="63" cy="65" r="55"></circle>
                <path d="M56,76 C57.6568542,76 59,74.6568542 59,73 C59,71.3431458 57.6568542,70 56,70 C54.3431458,70 53,71.3431458 53,73 C53,74.6568542 54.3431458,76 56,76 L56,76 L56,76 Z M56,34 C54.3431458,34 53,35.3473186 53,37.0000191 L53,60.9999809 C53,62.6568457 54.3465171,64 56,64 C57.6568542,64 59,62.6526814 59,60.9999809 L59,37.0000191 C59,35.3431543 57.6534829,34 56,34 L56,34 L56,34 Z" id="Oval-138" sketch:type="MSShapeGroup"></path>
                <path d="M110,55 C110,24.6243388 85.3756612,0 55.5045872,0 C24.6243388,0 0,24.6243388 0,55 C0,85.3756612 24.6243388,110 55.5045872,110 C85.3756612,110 110,85.3756612 110,55 L110,55 L110,55 Z M55.5049505,4 C83.1665222,4 106,26.8334778 106,55 C106,83.1665222 83.1665222,106 55.5049505,106 C26.8334778,106 4,83.1665222 4,55 C4,26.8334778 26.8334778,4 55.5049505,4 L55.5049505,4 L55.5049505,4 Z" id="Oval-1" sketch:type="MSShapeGroup"></path>
            </g>
        </g>
    </g>
</svg>